<?xml version="1.0" standalone="no"?>
<!DOCTYPE svg PUBLIC "-//W3C//DTD SVG 20010904//EN"
 "http://www.w3.org/TR/2001/REC-SVG-20010904/DTD/svg10.dtd">
<svg version="1.0" xmlns="http://www.w3.org/2000/svg"
 width="200.000000pt" height="350.000000pt" viewBox="0 0 645.000000 1280.000000"
 preserveAspectRatio="xMidYMid meet">

<g transform="translate(0.000000,1280.000000) scale(0.100000,-0.100000)"
fill="#000000" stroke="none">
<path d="M3165 12732 c-115 -9 -281 -65 -348 -116 -80 -60 -147 -242 -147
-395 0 -74 17 -192 36 -247 13 -36 23 -46 77 -72 71 -35 105 -72 161 -177 67
-124 44 -115 307 -115 l228 0 19 24 c10 13 34 55 53 92 46 90 107 156 169 183
63 27 73 48 95 193 32 205 -20 405 -130 507 -89 82 -332 139 -520 123z"/>

<g id = "Traps">
traps<path d="M3011 11481 c-17 -17 -21 -33 -21 -88 0 -150 -57 -373 -114 -447 -14
-19 -62 -51 -117 -80 -52 -27 -102 -56 -112 -64 -37 -32 -3 -37 248 -37 213 0
246 2 261 16 14 15 17 58 21 350 3 214 1 339 -6 348 -6 10 -33 16 -74 19 -56
4 -68 1 -86 -17z"/>
traps<path d="M3329 11479 c-20 -20 -20 -25 -13 -342 4 -177 10 -331 15 -343 10
-28 59 -34 268 -33 182 1 267 9 264 24 -2 6 -55 39 -119 75 -110 62 -119 69
-146 120 -54 106 -97 297 -98 437 0 69 -15 83 -91 83 -46 0 -63 -4 -80 -21z"/>
traps<path d="M2574 10695 c-122 -22 -164 -41 -134 -60 37 -23 115 -231 225 -594
113 -376 152 -471 282 -695 117 -201 119 -205 154 -306 17 -52 35 -99 39 -103
14 -16 46 408 61 818 13 331 3 604 -27 729 -13 56 -23 75 -56 107 -64 62 -133
90 -261 105 -137 16 -191 16 -283 -1z"/>
traps<path d="M3645 10699 c-105 -12 -168 -33 -231 -77 -64 -45 -77 -66 -100 -167
-30 -125 -27 -778 5 -1200 13 -170 27 -314 31 -318 4 -5 18 24 30 65 29 92 70
180 135 288 155 256 210 392 339 832 78 265 157 467 202 519 12 14 8 17 -39
32 -115 36 -215 43 -372 26z"/>

traps wide<path d="M2303 10396 c-144 -64 -281 -136 -287 -152 -2 -6 23 -67 56 -135 86
-176 139 -226 348 -332 127 -64 164 -79 205 -80 49 -2 50 -1 53 30 2 17 -10
78 -27 135 -29 102 -70 260 -111 433 -27 112 -52 155 -88 155 -15 0 -82 -25
-149 -54z"/>
<path d="M4002 10425 c-20 -25 -31 -63 -92 -315 -18 -74 -48 -185 -67 -247
-37 -125 -39 -145 -18 -163 26 -22 94 -2 230 67 169 85 226 123 276 186 48 61
153 272 145 292 -6 16 -240 136 -348 179 -82 32 -101 33 -126 1z"/>
<path d="M1974 10055 c-23 -35 -15 -187 15 -269 56 -160 240 -260 412 -227 77
16 164 47 184 67 30 31 17 42 -77 63 -182 42 -383 183 -449 313 -23 47 -47 78
-60 78 -5 0 -16 -11 -25 -25z"/>
traps wide<path d="M4472 10068 c-5 -7 -21 -37 -36 -65 -65 -130 -284 -283 -448 -313
-37 -7 -75 -18 -85 -25 -17 -13 -17 -14 0 -33 23 -25 110 -59 192 -73 77 -13
175 0 238 32 62 32 132 104 161 165 37 79 55 234 33 287 -16 38 -37 47 -55 25z"/>
</g>
<g id = "Shoulders">
shoulder<path d="M1850 10544 c-68 -31 -189 -123 -225 -169 -14 -19 -40 -64 -56 -100
-38 -81 -44 -149 -34 -397 l7 -186 52 21 c67 27 145 78 212 140 86 78 96 97
110 210 14 109 49 198 101 258 17 19 67 59 112 89 44 30 81 59 81 65 0 12 -88
68 -133 84 -16 6 -61 11 -100 11 -56 0 -84 -6 -127 -26z"/>
shoulder<path d="M4426 10563 c-32 -9 -140 -77 -140 -88 -1 -5 31 -32 69 -58 157 -108
206 -188 224 -367 7 -63 14 -89 36 -120 54 -78 213 -193 318 -229 l27 -10 0
249 c0 227 -2 254 -21 305 -30 80 -75 142 -150 205 -110 91 -159 114 -259 116
-47 2 -94 0 -104 -3z"/>
</g>

<g id = "Triceps">
tricep<path d="M4600 9858 c0 -2 -16 -93 -34 -203 -19 -110 -32 -204 -29 -208 3 -5
56 -46 118 -92 73 -55 129 -105 160 -145 76 -99 107 -70 121 115 12 146 -34
259 -152 378 -54 54 -184 164 -184 155z"/>
tricep<path d="M1839 9819 c-85 -61 -202 -190 -239 -264 -35 -68 -35 -70 -35 -200 0
-144 14 -205 46 -205 11 0 40 26 72 65 32 39 96 96 165 146 62 45 112 86 112
93 1 31 -64 396 -70 396 -4 0 -27 -14 -51 -31z"/>
tricep<path d="M4503 9373 c-4 -15 -8 -68 -7 -118 0 -73 5 -102 27 -155 14 -36 37
-106 51 -156 28 -106 34 -119 94 -198 46 -59 72 -129 72 -192 0 -70 134 -264
163 -235 23 23 12 221 -22 391 -18 85 -35 205 -40 266 -5 66 -15 122 -24 141
-18 35 -230 239 -276 266 l-30 18 -8 -28z"/>
<path d="M1913 9352 c-104 -83 -221 -202 -237 -243 -9 -23 -21 -91 -25 -153
-5 -61 -22 -172 -37 -246 -21 -104 -28 -164 -28 -262 -1 -69 3 -130 8 -135 11
-11 101 90 130 147 13 25 27 70 31 100 12 96 23 124 80 199 36 48 60 92 71
129 20 75 48 163 73 236 31 89 28 266 -4 266 -7 0 -35 -17 -62 -38z"/>
<path d="M1471 9248 c-5 -14 -21 -76 -35 -139 -55 -248 -71 -497 -38 -594 30
-88 42 -75 111 112 117 315 117 344 12 563 -38 77 -41 81 -50 58z"/>
tricep<path d="M4975 9193 c-93 -195 -99 -238 -57 -373 42 -134 120 -342 133 -355
19 -18 47 32 59 107 10 57 10 101 1 203 -15 155 -80 495 -96 495 -2 0 -20 -35
-40 -77z"/>
</g>

<g id = "Lats">
lat<path d="M2659 9587 c-65 -68 -82 -80 -144 -102 -110 -39 -275 -28 -393 26
l-65 29 7 -56 c9 -76 40 -166 86 -244 47 -82 45 -74 70 -265 11 -88 34 -214
50 -280 16 -66 48 -228 70 -359 23 -132 48 -255 56 -274 17 -42 130 -195 173
-236 37 -35 41 -32 69 50 34 101 168 445 242 623 86 209 158 419 166 485 6 49
4 55 -42 121 -26 39 -80 142 -120 230 -39 88 -89 198 -112 245 l-40 85 -73
-78z"/>
lat<path d="M3718 9573 c-22 -48 -69 -153 -105 -233 -35 -80 -84 -175 -109 -212
-62 -91 -67 -114 -44 -201 20 -79 117 -343 175 -477 41 -95 108 -269 192 -497
31 -84 62 -153 69 -153 19 0 163 182 203 257 6 12 32 138 56 280 25 142 57
305 71 362 14 57 36 185 49 283 23 171 26 183 64 248 21 37 48 93 60 124 22
59 42 165 34 179 -2 4 -19 -1 -36 -12 -61 -37 -146 -54 -267 -55 -109 -1 -119
1 -181 30 -51 24 -74 42 -98 77 -17 25 -45 55 -61 67 l-30 22 -42 -89z"/>
</g>

back<path d="M3017 8653 c-81 -169 -168 -374 -254 -597 -85 -221 -124 -347 -130
-422 l-6 -61 109 -71 c355 -231 389 -251 395 -234 26 71 34 219 34 632 0 350
-4 467 -18 600 -10 91 -22 181 -27 200 -4 19 -11 47 -14 63 -4 15 -10 27 -14
27 -5 0 -38 -62 -75 -137z"/>
back<path d="M3397 8783 c-37 -61 -77 -538 -77 -925 0 -260 29 -603 51 -603 3 0
114 70 247 155 181 116 244 161 249 179 16 60 -108 424 -278 818 -79 183 -175
383 -184 383 -2 0 -6 -3 -8 -7z"/>
<path d="M1325 8415 c4 -33 7 -121 6 -195 -1 -154 11 -229 43 -267 l22 -26 32
49 c52 78 86 228 64 284 -8 21 -119 159 -164 205 -7 7 -8 -11 -3 -50z"/>
<path d="M5115 8408 c-118 -140 -115 -134 -115 -203 0 -103 67 -274 103 -263
7 2 21 22 33 45 19 37 22 64 27 260 3 120 4 218 3 219 0 0 -23 -26 -51 -58z"/>

<g id = "Forearms">
forearm<path d="M1155 8175 c-79 -634 -187 -1284 -230 -1397 -16 -41 14 -13 52 50 90
147 227 445 289 629 35 104 36 113 36 248 -1 213 -34 400 -95 536 l-34 74 -18
-140z"/>
<path d="M5280 8223 c-18 -43 -44 -132 -58 -198 -21 -102 -25 -147 -26 -300 0
-172 1 -184 28 -260 85 -246 310 -705 345 -705 5 0 0 27 -10 60 -28 90 -77
345 -114 590 -33 220 -84 591 -101 730 -9 80 -20 149 -24 153 -4 4 -22 -27
-40 -70z"/>
<path d="M1065 8180 c-4 -6 -10 -36 -15 -68 -23 -152 -122 -726 -145 -839 -36
-177 -92 -387 -131 -488 l-7 -20 23 20 c60 52 140 220 179 377 59 238 145 941
122 1002 -11 28 -16 31 -26 16z"/>
<path d="M5412 8178 c-16 -16 -15 -81 3 -266 49 -508 109 -812 196 -987 37
-76 94 -154 104 -143 3 3 -4 31 -15 64 -71 205 -120 445 -254 1257 -15 86 -17
92 -34 75z"/>
<path d="M1588 8104 c-77 -24 -79 -26 -238 -499 -129 -382 -161 -465 -251
-653 -37 -78 -63 -140 -57 -136 26 16 110 167 247 445 83 167 168 336 189 374
71 128 211 475 193 475 -5 0 -15 2 -23 4 -7 3 -34 -2 -60 -10z"/>
forearm<path d="M4833 8113 c-7 -3 -13 -9 -13 -14 0 -33 154 -390 222 -514 30 -55
120 -233 201 -395 80 -162 162 -315 181 -339 20 -24 36 -42 36 -39 0 3 -31 70
-69 149 -90 187 -119 264 -242 630 -149 447 -162 475 -219 504 -30 15 -80 24
-97 18z"/>
</g>
side abs<path d="M2344 7960 c-66 -26 -105 -150 -103 -333 0 -114 19 -249 34 -253 6
-2 26 20 45 48 36 53 94 100 194 159 74 43 92 68 77 109 -22 66 -188 281 -214
279 -7 0 -22 -4 -33 -9z"/>
side abs<path d="M4098 7960 c-21 -13 -148 -181 -177 -235 -38 -71 -27 -94 79 -155 77
-45 136 -95 178 -151 20 -27 39 -49 43 -49 15 0 33 149 33 265 1 175 -33 288
-94 320 -34 17 -39 18 -62 5z"/>

<g id = "Glutes">
glute<path d="M2490 7450 c-25 -3 -60 -15 -77 -28 -57 -40 -142 -191 -192 -339 -20
-60 -28 -123 -15 -123 4 0 75 49 158 108 83 59 178 124 211 144 55 34 177 80
283 108 49 13 52 21 16 49 -62 49 -276 93 -384 81z"/>
glute<path d="M3889 7449 c-113 -12 -229 -49 -267 -83 l-33 -31 98 -29 c136 -40
240 -92 363 -181 158 -115 240 -169 246 -162 10 9 -14 104 -47 186 -41 104
-94 196 -142 248 -38 41 -46 45 -132 57 -11 2 -50 0 -86 -5z"/>
glute<path d="M2930 7283 c-37 -7 -258 -97 -315 -129 -222 -122 -397 -274 -430
-373 -22 -67 -22 -210 1 -294 67 -249 290 -541 429 -561 25 -4 85 -21 133 -38
144 -51 261 -49 334 5 38 28 46 57 51 192 4 83 13 153 31 225 29 117 56 339
56 464 0 106 -23 246 -49 299 -34 67 -130 191 -159 204 -28 13 -40 13 -82 6z"/>
glute<path d="M3483 7280 c-22 -9 -130 -147 -159 -201 -18 -36 -40 -144 -49 -239
-11 -126 39 -540 72 -593 3 -6 9 -75 13 -154 5 -121 10 -148 26 -171 50 -67
175 -89 299 -52 39 12 109 32 157 45 109 29 141 49 218 132 104 114 186 253
237 400 22 66 26 96 27 193 1 133 -13 174 -90 260 -97 106 -329 253 -522 328
-136 54 -194 67 -229 52z"/>
</g>
<path d="M705 6681 c-215 -109 -307 -275 -225 -404 36 -57 129 -128 230 -175
62 -29 89 -36 155 -39 131 -7 158 20 193 192 31 148 39 303 18 342 -30 60
-116 98 -246 109 -59 5 -71 3 -125 -25z"/>
<path d="M5630 6703 c-110 -17 -191 -57 -210 -103 -28 -68 11 -403 56 -479 54
-91 220 -81 390 24 140 87 196 174 174 271 -18 80 -56 131 -149 200 -114 84
-167 102 -261 87z"/>
<path d="M6050 6567 c0 -3 9 -30 19 -59 10 -29 27 -78 36 -108 31 -105 143
-221 226 -235 49 -9 62 1 57 46 -3 29 -12 39 -75 79 -60 37 -81 58 -122 120
-44 67 -141 175 -141 157z"/>
<path d="M385 6514 c-25 -27 -66 -80 -92 -118 -31 -45 -62 -78 -91 -95 -67
-40 -91 -63 -94 -95 -4 -40 17 -51 72 -36 35 9 61 28 116 83 68 70 71 75 107
186 20 63 35 117 32 119 -2 2 -24 -18 -50 -44z"/>

<g id = "Quads">
quad<path d="M2026 6198 c-11 -42 -6 -389 9 -663 23 -406 56 -732 91 -885 24 -105
56 -210 66 -210 4 0 5 33 1 73 -14 126 -9 404 12 654 17 216 18 261 7 400 -17
209 -41 332 -96 485 -59 166 -77 194 -90 146z"/>
quad<path d="M4441 6207 c-22 -27 -102 -262 -122 -357 -11 -52 -27 -173 -35 -269
-15 -167 -14 -186 7 -430 24 -284 28 -466 15 -616 -6 -70 -5 -97 2 -90 16 15
69 228 86 347 42 289 79 831 80 1180 1 228 -5 268 -33 235z"/>
</g>
<path d="M433 6168 c-6 -7 -34 -58 -63 -113 -29 -55 -77 -143 -106 -196 -82
-148 -86 -241 -5 -139 22 28 82 112 134 188 52 75 106 148 121 161 34 32 34
66 -1 84 -47 24 -70 28 -80 15z"/>
<path d="M6000 6163 c-52 -26 -52 -62 -2 -117 21 -23 62 -78 92 -121 70 -105
182 -255 191 -255 29 0 11 90 -32 160 -17 27 -65 116 -108 197 -42 81 -83 149
-91 151 -8 1 -31 -6 -50 -15z"/>
<path d="M561 6056 c-4 -6 -22 -54 -39 -106 -17 -52 -56 -160 -86 -239 -62
-162 -71 -203 -43 -209 40 -8 64 25 127 175 34 81 83 192 108 246 35 77 43
102 35 115 -12 20 -90 33 -102 18z"/>
<path d="M5877 6060 c-65 -12 -66 -18 -5 -147 30 -65 79 -175 108 -245 52
-126 77 -163 115 -170 39 -6 29 47 -52 265 -44 117 -86 232 -94 256 -16 50
-19 52 -72 41z"/>
<path d="M918 6023 c-20 -5 -21 -24 -18 -208 3 -175 22 -226 53 -143 10 28 17
97 21 201 l6 157 -22 -1 c-13 -1 -31 -3 -40 -6z"/>
<path d="M5522 5868 c5 -113 12 -175 22 -200 35 -82 46 -44 53 178 l6 171 -24
6 c-67 18 -65 24 -57 -155z"/>
<path d="M715 6001 c-13 -40 -71 -475 -67 -498 5 -28 37 -31 52 -4 14 26 109
501 101 505 -3 2 -23 6 -43 10 -31 6 -37 4 -43 -13z"/>
<path d="M5725 6013 c-11 -3 -24 -8 -28 -13 -11 -10 81 -468 99 -497 8 -13 23
-23 34 -23 28 0 27 34 -15 304 -19 126 -35 230 -35 232 0 5 -28 3 -55 -3z"/>
<g id = "Hamstrings">
hamstring<path d="M2335 5986 c-32 -75 -37 -170 -45 -836 -9 -705 -13 -778 -54 -1037
-14 -87 -32 -219 -41 -293 -9 -74 -18 -144 -21 -155 -9 -35 31 22 75 105 106
203 241 616 286 873 8 49 22 244 30 435 8 191 18 404 21 473 6 113 4 132 -14
181 -45 120 -167 288 -209 288 -8 0 -20 -15 -28 -34z"/>
hamstring<path d="M4075 5979 c-56 -62 -123 -171 -151 -246 -21 -56 -25 -79 -20 -128 3
-33 12 -224 21 -425 8 -201 20 -410 26 -465 20 -184 131 -573 232 -810 77
-181 149 -296 134 -214 -4 19 -16 108 -27 199 -11 91 -28 217 -39 280 -34 198
-43 386 -51 1055 -6 519 -11 662 -23 707 -25 100 -46 109 -102 47z"/>


hamstring<path d="M2947 5780 c-38 -5 -86 -11 -108 -15 l-39 -7 29 -41 c65 -96 125
-239 147 -355 17 -88 18 -226 3 -306 -27 -150 27 -3 82 219 59 241 85 469 57
493 -20 16 -96 21 -171 12z"/>
<path d="M3407 5783 c-39 -6 -50 -41 -42 -126 15 -163 73 -426 130 -597 25
-75 25 -75 20 -25 -16 164 -17 201 -6 272 23 148 93 328 161 414 l29 37 -32 6
c-44 8 -210 26 -222 24 -5 0 -23 -3 -38 -5z"/>
<path d="M2686 5657 c-29 -66 -47 -199 -75 -572 -39 -504 -50 -902 -31 -1141
11 -137 35 -243 51 -227 15 15 35 136 74 439 56 445 90 630 147 804 43 133 43
261 -1 438 -31 125 -44 157 -105 258 l-35 57 -25 -56z"/>
<path d="M3740 5640 c-86 -148 -125 -295 -125 -480 0 -111 4 -134 28 -205 57
-163 92 -358 157 -875 25 -201 48 -339 60 -360 7 -12 11 -9 20 15 26 67 32
132 37 396 6 300 -6 632 -37 1016 -27 329 -44 448 -72 513 l-24 55 -44 -75z"/>
<path d="M2921 4975 c-7 -44 -33 -165 -58 -270 -84 -357 -84 -361 -93 -630 -8
-220 -20 -393 -34 -505 -9 -68 34 83 54 190 25 133 50 354 50 445 0 98 14 185
60 374 56 231 61 269 46 381 l-12 95 -13 -80z"/>
hamstring<path d="M3554 5005 c-5 -22 -8 -85 -8 -140 1 -85 8 -128 48 -285 39 -155 48
-210 56 -335 19 -283 54 -527 94 -655 19 -58 19 -55 1 130 -9 85 -20 265 -25
400 -5 135 -14 263 -19 285 -29 108 -105 452 -121 540 -17 97 -18 99 -26 60z"/>
</g>

<g id = "Calves">
calves<path d="M2350 3763 c-137 -183 -182 -290 -222 -523 -30 -170 -32 -612 -4
-790 22 -144 61 -307 82 -337 31 -49 111 -54 152 -10 51 54 53 72 52 465 0
380 13 906 30 1166 6 82 9 151 7 152 -2 2 -46 -54 -97 -123z"/>
<path d="M3971 3869 c-2 -25 -62 -170 -126 -304 -107 -226 -134 -329 -169
-640 -33 -295 -30 -405 15 -538 42 -126 163 -293 226 -312 17 -4 29 0 47 18
35 35 40 105 26 361 -15 276 -17 614 -7 996 5 173 4 324 -1 365 -5 39 -10 63
-11 54z"/>
<path d="M4055 3760 c3 -69 10 -226 16 -350 5 -124 11 -451 13 -726 4 -455 5
-505 22 -539 35 -74 119 -95 171 -42 31 31 76 209 98 393 22 181 17 619 -9
757 -24 127 -61 248 -100 327 -28 56 -139 214 -204 290 -11 12 -12 -6 -7 -110z"/>
calves<path d="M2506 3688 c-5 -118 -3 -241 5 -347 11 -159 9 -482 -7 -987 -7 -210
0 -257 41 -276 64 -29 198 134 261 317 36 106 42 244 20 465 -34 338 -70 482
-174 700 -38 80 -82 179 -97 220 -16 41 -32 79 -35 83 -4 5 -11 -74 -14 -175z"/>
</g>
<path d="M2240 1943 c-28 -23 -31 -31 -27 -67 2 -23 16 -78 30 -123 26 -83 44
-184 72 -398 45 -355 87 -633 101 -670 9 -22 21 -10 28 27 28 154 26 411 -9
894 -22 296 -28 325 -76 349 -43 23 -83 18 -119 -12z"/>
<path d="M4134 1951 c-17 -10 -36 -32 -42 -47 -20 -52 -62 -691 -62 -944 1
-149 25 -308 44 -289 10 10 48 245 86 538 51 389 66 476 102 580 15 47 28 93
28 104 0 10 -14 32 -31 48 -37 34 -79 38 -125 10z"/>
<path d="M2525 1930 c-18 -30 -27 -217 -21 -465 7 -334 25 -730 35 -769 4 -19
15 41 34 190 15 121 39 275 53 344 33 166 51 305 59 477 8 156 2 190 -41 218
-26 17 -109 21 -119 5z"/>
<path d="M3839 1913 l-32 -27 6 -186 c7 -193 18 -287 61 -505 14 -71 37 -217
50 -324 14 -106 27 -195 29 -197 5 -6 14 137 28 456 14 323 9 756 -9 788 -19
34 -90 31 -133 -5z"/>
<path d="M2275 920 c-3 -5 -1 -62 4 -127 6 -65 11 -170 11 -233 0 -63 5 -132
10 -152 13 -47 37 -52 187 -43 101 6 115 9 128 29 24 36 33 105 40 291 7 167
6 179 -9 164 -10 -9 -24 -52 -33 -101 -24 -131 -54 -168 -139 -168 -73 0 -91
27 -119 175 -9 51 -27 108 -41 133 -27 45 -29 47 -39 32z"/>
<path d="M4191 904 c-24 -31 -45 -97 -62 -199 -15 -91 -46 -125 -112 -125 -61
0 -101 34 -122 103 -8 28 -15 62 -15 76 0 14 -9 44 -19 66 l-19 40 -1 -150
c-1 -157 11 -270 32 -314 12 -25 16 -26 134 -35 143 -10 170 -5 184 32 10 26
34 520 25 529 -2 2 -13 -8 -25 -23z"/>


<path d="M2035 311 c-17 -19 -15 -21 39 -56 31 -19 84 -42 121 -50 106 -25
315 -55 383 -55 56 0 64 2 73 24 14 30 -13 121 -38 131 -29 11 -254 25 -409
25 -137 0 -153 -2 -169 -19z"/>
<path d="M4014 320 c-121 -10 -129 -14 -148 -61 -19 -47 -20 -81 -4 -97 17
-17 115 -15 258 8 212 32 250 44 333 98 36 24 37 26 21 43 -16 17 -33 19 -193
18 -97 -1 -217 -5 -267 -9z"/>
</g>
</svg>
