<?xml version="1.0" encoding="UTF-8"?>
<!DOCTYPE svg PUBLIC "-//W3C//DTD SVG 1.1//EN" "http://www.w3.org/Graphics/SVG/1.1/DTD/svg11.dtd">
<svg xmlns="http://www.w3.org/2000/svg" version="1.1" width="245px" height="427px" style="shape-rendering:geometricPrecision; text-rendering:geometricPrecision; image-rendering:optimizeQuality; fill-rule:evenodd; clip-rule:evenodd" xmlns:xlink="http://www.w3.org/1999/xlink">
<path style="opacity:0.875" fill="#25262a" d="M 116.5,2.5 C 119.43,3.29895 122.43,3.63228 125.5,3.5C 125.158,4.33825 124.492,4.67158 123.5,4.5C 119.802,4.55241 116.135,4.88575 112.5,5.5C 111.761,5.63101 111.094,5.46434 110.5,5C 112.723,4.43381 114.723,3.60047 116.5,2.5 Z"/>
<path style="opacity:1" fill="#eff0f2" d="M 123.5,4.5 C 132.481,6.14749 137.814,11.4808 139.5,20.5C 139.665,23.5184 139.498,26.5184 139,29.5C 138.519,25.4686 137.853,21.4686 137,17.5C 136.654,15.1523 135.487,13.3189 133.5,12C 125.918,12.8997 118.251,13.5664 110.5,14C 107.034,17.0403 105.7,20.8736 106.5,25.5C 106.672,26.4916 106.338,27.1583 105.5,27.5C 103.704,18.6356 106.038,11.3023 112.5,5.5C 116.135,4.88575 119.802,4.55241 123.5,4.5 Z"/>
<path style="opacity:0.89" fill="#67686c" d="M 125.5,3.5 C 136.876,5.92462 142.209,12.9246 141.5,24.5C 140.833,23.1667 140.167,21.8333 139.5,20.5C 137.814,11.4808 132.481,6.14749 123.5,4.5C 124.492,4.67158 125.158,4.33825 125.5,3.5 Z"/>
<path style="opacity:0.102" fill="#d0d0d6" d="M 106.5,8.5 C 106.771,10.3797 106.104,11.713 104.5,12.5C 104.66,10.847 105.326,9.51369 106.5,8.5 Z"/>
<path style="opacity:0.698" fill="#64666a" d="M 116.5,2.5 C 114.723,3.60047 112.723,4.43381 110.5,5C 111.094,5.46434 111.761,5.63101 112.5,5.5C 106.038,11.3023 103.704,18.6356 105.5,27.5C 105.565,27.9382 105.399,28.2716 105,28.5C 104.722,27.5842 104.222,26.9175 103.5,26.5C 102.176,21.7447 102.51,17.078 104.5,12.5C 106.104,11.713 106.771,10.3797 106.5,8.5C 106.33,7.17793 106.663,6.01127 107.5,5C 110.206,3.09237 113.206,2.25903 116.5,2.5 Z"/>
<path style="opacity:1" fill="#f2f3f5" d="M 134.5,50.5 C 133.093,47.9608 131.927,48.2942 131,51.5C 129.667,50.1667 128.333,50.1667 127,51.5C 125.182,49.3546 123.682,49.3546 122.5,51.5C 120.574,50.9394 118.574,50.7727 116.5,51C 118.136,49.566 119.136,47.7326 119.5,45.5C 118.167,44.5 118.167,43.5 119.5,42.5C 119.032,40.8662 118.032,39.6995 116.5,39C 119.368,35.5173 118.701,32.684 114.5,30.5C 112.803,31.3636 111.637,32.6969 111,34.5C 109.583,33.9221 108.75,32.9221 108.5,31.5C 108.795,29.2646 108.461,27.2646 107.5,25.5C 107.016,16.8023 110.849,13.4689 119,15.5C 123.85,14.7396 128.683,14.2396 133.5,14C 135.702,21.7331 137.702,29.5665 139.5,37.5C 137.41,41.618 135.743,45.9513 134.5,50.5 Z"/>
<path style="opacity:1" fill="#a0a1a3" d="M 106.5,25.5 C 106.833,25.5 107.167,25.5 107.5,25.5C 108.461,27.2646 108.795,29.2646 108.5,31.5C 108.167,31.5 107.833,31.5 107.5,31.5C 107.217,30.7109 106.717,30.0442 106,29.5C 105.583,30.756 104.75,31.4226 103.5,31.5C 103.5,29.8333 103.5,28.1667 103.5,26.5C 104.222,26.9175 104.722,27.5842 105,28.5C 105.399,28.2716 105.565,27.9382 105.5,27.5C 106.338,27.1583 106.672,26.4916 106.5,25.5 Z"/>
<path style="opacity:1" fill="#848587" d="M 139.5,20.5 C 140.167,21.8333 140.833,23.1667 141.5,24.5C 142.573,30.5659 142.406,36.5659 141,42.5C 137.32,46.3311 135.82,50.9978 136.5,56.5C 135.833,54.5 135.167,52.5 134.5,50.5C 135.743,45.9513 137.41,41.618 139.5,37.5C 137.702,29.5665 135.702,21.7331 133.5,14C 128.683,14.2396 123.85,14.7396 119,15.5C 110.849,13.4689 107.016,16.8023 107.5,25.5C 107.167,25.5 106.833,25.5 106.5,25.5C 105.7,20.8736 107.034,17.0403 110.5,14C 118.251,13.5664 125.918,12.8997 133.5,12C 135.487,13.3189 136.654,15.1523 137,17.5C 137.853,21.4686 138.519,25.4686 139,29.5C 139.498,26.5184 139.665,23.5184 139.5,20.5 Z"/>
<path style="opacity:1" fill="#efeff2" d="M 134.5,50.5 C 134.167,51.1667 133.833,51.8333 133.5,52.5C 125.999,57.7965 118.499,57.7965 111,52.5C 110.489,50.1218 109.822,47.7885 109,45.5C 108.821,49.0252 108.321,52.3586 107.5,55.5C 107.693,51.4338 107.36,47.4338 106.5,43.5C 107.363,44.463 108.03,44.463 108.5,43.5C 105.801,40.7395 104.467,37.4062 104.5,33.5C 106.179,33.7148 107.179,33.0481 107.5,31.5C 107.833,31.5 108.167,31.5 108.5,31.5C 108.75,32.9221 109.583,33.9221 111,34.5C 111.637,32.6969 112.803,31.3636 114.5,30.5C 118.701,32.684 119.368,35.5173 116.5,39C 118.032,39.6995 119.032,40.8662 119.5,42.5C 118.167,43.5 118.167,44.5 119.5,45.5C 119.136,47.7326 118.136,49.566 116.5,51C 118.574,50.7727 120.574,50.9394 122.5,51.5C 123.682,49.3546 125.182,49.3546 127,51.5C 128.333,50.1667 129.667,50.1667 131,51.5C 131.927,48.2942 133.093,47.9608 134.5,50.5 Z"/>
<path style="opacity:0.531" fill="#636768" d="M 107.5,31.5 C 107.179,33.0481 106.179,33.7148 104.5,33.5C 104.467,37.4062 105.801,40.7395 108.5,43.5C 108.03,44.463 107.363,44.463 106.5,43.5C 102.989,39.9944 101.989,35.9944 103.5,31.5C 104.75,31.4226 105.583,30.756 106,29.5C 106.717,30.0442 107.217,30.7109 107.5,31.5 Z"/>
<path style="opacity:0.976" fill="#313133" d="M 134.5,50.5 C 135.167,52.5 135.833,54.5 136.5,56.5C 136.5,57.8333 136.5,59.1667 136.5,60.5C 135.662,60.1583 135.328,59.4916 135.5,58.5C 134.89,57.609 134.557,56.609 134.5,55.5C 134.672,54.5084 134.338,53.8417 133.5,53.5C 133.5,53.1667 133.5,52.8333 133.5,52.5C 133.833,51.8333 134.167,51.1667 134.5,50.5 Z"/>

<path style="opacity:1" fill="#535355" d="M 133.5,52.5 C 133.5,52.8333 133.5,53.1667 133.5,53.5C 130.685,56.7755 127.019,58.1088 122.5,57.5C 118.3,57.8207 114.466,56.8207 111,54.5C 110.333,56.1667 110.333,57.8333 111,59.5C 112.959,66.0787 115.459,72.412 118.5,78.5C 118.53,79.4972 118.03,80.1639 117,80.5C 111.465,77.6378 105.632,76.4712 99.5,77C 107.324,79.1671 113.824,83.3338 119,89.5C 119.483,90.448 119.649,91.448 119.5,92.5C 119.784,94.4147 119.451,96.0813 118.5,97.5C 117.829,89.3077 113.496,83.8077 105.5,81C 102.833,80.3333 100.167,80.3333 97.5,81C 95.2833,82.7235 92.95,84.2235 90.5,85.5C 90.4142,84.5041 90.7476,83.6708 91.5,83C 93.7049,81.294 96.0383,79.794 98.5,78.5C 98.1373,77.8165 97.8039,77.1499 97.5,76.5C 98.9952,76.0113 100.329,75.3446 101.5,74.5C 106.579,74.9778 111.412,76.3112 116,78.5C 116.167,78.1667 116.333,77.8333 116.5,77.5C 113.216,69.5729 110.216,62.9062 107.5,57.5C 107.5,56.8333 107.5,56.1667 107.5,55.5C 108.321,52.3586 108.821,49.0252 109,45.5C 109.822,47.7885 110.489,50.1218 111,52.5C 118.499,57.7965 125.999,57.7965 133.5,52.5 Z"/>
<path style="opacity:1" fill="#f1f1f3" d="M 133.5,53.5 C 134.338,53.8417 134.672,54.5084 134.5,55.5C 132.106,63.3392 129.106,71.0059 125.5,78.5C 124.778,78.9175 124.278,79.5842 124,80.5C 122.426,79.0158 121.093,77.3492 120,75.5C 119.768,76.7375 119.268,77.7375 118.5,78.5C 115.459,72.412 112.959,66.0787 111,59.5C 110.333,57.8333 110.333,56.1667 111,54.5C 114.466,56.8207 118.3,57.8207 122.5,57.5C 127.019,58.1088 130.685,56.7755 133.5,53.5 Z"/>
<path style="opacity:0.243" fill="#cdcdcf" d="M 105.5,63.5 C 105.573,65.0269 104.906,66.0269 103.5,66.5C 103.427,64.9731 104.094,63.9731 105.5,63.5 Z"/>
trap

<g id="Back">
<path style="opacity:1" fill="#ededee" d="M 135.5,58.5 C 135.328,59.4916 135.662,60.1583 136.5,60.5C 136.372,62.6547 136.872,64.6547 138,66.5C 141.226,69.3247 144.393,71.9913 147.5,74.5C 145.5,74.5 143.5,74.5 141.5,74.5C 136.704,74.891 132.204,76.2244 128,78.5C 130.395,71.8188 132.895,65.1521 135.5,58.5 Z"/>
<path style="opacity:1" fill="#ebeced" d="M 107.5,57.5 C 110.216,62.9062 113.216,69.5729 116.5,77.5C 116.333,77.8333 116.167,78.1667 116,78.5C 111.412,76.3112 106.579,74.9778 101.5,74.5C 99.5,74.5 97.5,74.5 95.5,74.5C 99.2011,72.2177 102.701,69.551 106,66.5C 107.187,64.9556 107.52,63.2889 107,61.5C 106.722,62.4158 106.222,63.0825 105.5,63.5C 105.595,61.2143 106.262,59.2143 107.5,57.5 Z"/>
<path style="opacity:0.761" fill="#636466" d="M 95.5,74.5 C 94.6618,74.1583 94.3284,73.4916 94.5,72.5C 97.3197,70.2549 100.32,68.2549 103.5,66.5C 104.906,66.0269 105.573,65.0269 105.5,63.5C 106.222,63.0825 106.722,62.4158 107,61.5C 107.52,63.2889 107.187,64.9556 106,66.5C 102.701,69.551 99.2011,72.2177 95.5,74.5 Z"/>
<path style="opacity:0.82" fill="#656567" d="M 136.5,56.5 C 137.94,64.6096 142.607,69.9429 150.5,72.5C 149.5,73.1667 148.5,73.8333 147.5,74.5C 144.393,71.9913 141.226,69.3247 138,66.5C 136.872,64.6547 136.372,62.6547 136.5,60.5C 136.5,59.1667 136.5,57.8333 136.5,56.5 Z"/>


</g>

<path style="opacity:0.188" fill="#9f9fa1" d="M 150.5,72.5 C 155.654,73.0063 160.654,73.673 165.5,74.5C 161.154,74.6657 156.821,74.499 152.5,74C 151.584,73.7216 150.918,73.2216 150.5,72.5 Z"/>
shoulder

<g id="Shoulders">
    <path style="opacity:1" fill="#2f3032" d="M 93.5,72.5 C 93.8333,72.5 94.1667,72.5 94.5,72.5C 94.3284,73.4916 94.6618,74.1583 95.5,74.5C 97.5,74.5 99.5,74.5 101.5,74.5C 100.329,75.3446 98.9952,76.0113 97.5,76.5C 96.8333,76.5 96.1667,76.5 95.5,76.5C 90.3491,75.6733 85.0158,75.1733 79.5,75C 83.5,74.6667 87.5,74.3333 91.5,74C 92.4158,73.7216 93.0825,73.2216 93.5,72.5 Z"/>
    <path style="opacity:0.678" fill="#8f9192" d="M 93.5,72.5 C 93.0825,73.2216 92.4158,73.7216 91.5,74C 87.5,74.3333 83.5,74.6667 79.5,75C 85.0158,75.1733 90.3491,75.6733 95.5,76.5C 88.7446,76.2066 82.0779,76.5399 75.5,77.5C 74.791,76.596 73.791,76.2627 72.5,76.5C 74.2774,75.3995 76.2774,74.5662 78.5,74C 83.5195,73.5892 88.5195,73.0892 93.5,72.5 Z"/>
    <path style="opacity:1" fill="#2f2f31" d="M 150.5,72.5 C 150.918,73.2216 151.584,73.7216 152.5,74C 156.821,74.499 161.154,74.6657 165.5,74.5C 164.081,75.4511 162.415,75.7845 160.5,75.5C 156.154,75.3343 151.821,75.501 147.5,76C 146.956,76.7172 146.289,77.2172 145.5,77.5C 144.552,76.0221 143.219,75.0221 141.5,74.5C 143.5,74.5 145.5,74.5 147.5,74.5C 148.5,73.8333 149.5,73.1667 150.5,72.5 Z"/>
    <path style="opacity:0.098" fill="#c1c6c7" d="M 173.5,77.5 C 175.027,77.427 176.027,78.0937 176.5,79.5C 174.973,79.573 173.973,78.9063 173.5,77.5 Z"/>
    <path style="opacity:0.957" fill="#747577" d="M 72.5,76.5 C 73.791,76.2627 74.791,76.596 75.5,77.5C 66.6926,80.8398 62.3593,87.3398 62.5,97C 62.9987,100.49 63.332,103.99 63.5,107.5C 62.8333,108.5 62.1667,109.5 61.5,110.5C 59.2946,100.376 60.4613,90.7098 65,81.5C 67.1277,79.1923 69.6277,77.5256 72.5,76.5 Z"/>
    shoulder<path style="opacity:1" fill="#f0f1f2" d="M 160.5,75.5 C 170.605,75.9402 177.271,80.9402 180.5,90.5C 180.263,91.791 180.596,92.791 181.5,93.5C 181.608,98.8699 181.275,104.203 180.5,109.5C 175.967,107.156 171.3,104.989 166.5,103C 160.744,93.2266 153.744,84.7266 145.5,77.5C 146.289,77.2172 146.956,76.7172 147.5,76C 151.821,75.501 156.154,75.3343 160.5,75.5 Z"/>
    shoulder<path style="opacity:0.306" fill="#959698" d="M 181.5,87.5 C 183.039,90.8646 183.706,94.5313 183.5,98.5C 183.497,101.355 183.164,104.022 182.5,106.5C 182.861,100.746 182.528,96.4126 181.5,93.5C 180.596,92.791 180.263,91.791 180.5,90.5C 181.404,89.791 181.737,88.791 181.5,87.5 Z"/>
    shoulder<path style="opacity:0.725" fill="#636466" d="M 165.5,74.5 C 168.542,74.7329 171.208,75.7329 173.5,77.5C 173.973,78.9063 174.973,79.573 176.5,79.5C 179.182,81.5303 180.849,84.197 181.5,87.5C 181.737,88.791 181.404,89.791 180.5,90.5C 177.271,80.9402 170.605,75.9402 160.5,75.5C 162.415,75.7845 164.081,75.4511 165.5,74.5 Z"/>
    shoulder<path style="opacity:1" fill="#f1f2f4" d="M 95.5,76.5 C 96.1667,76.5 96.8333,76.5 97.5,76.5C 97.8039,77.1499 98.1373,77.8165 98.5,78.5C 96.0383,79.794 93.7049,81.294 91.5,83C 90.7476,83.6708 90.4142,84.5041 90.5,85.5C 85.6447,90.8681 81.3113,96.7014 77.5,103C 73.3122,105.012 69.1455,107.178 65,109.5C 63.9701,109.164 63.4701,108.497 63.5,107.5C 63.332,103.99 62.9987,100.49 62.5,97C 62.3593,87.3398 66.6926,80.8398 75.5,77.5C 82.0779,76.5399 88.7446,76.2066 95.5,76.5 Z"/>


</g>

<g id="Chest">
    <path style="opacity:1" fill="#f3f3f5" d="M 118.5,97.5 C 118.927,101.824 119.261,106.158 119.5,110.5C 118.7,112.741 117.034,113.741 114.5,113.5C 111.491,113.183 109.157,112.183 107.5,110.5C 105.945,110.722 104.611,111.389 103.5,112.5C 102.158,111.098 101.324,111.431 101,113.5C 99.9916,113.018 98.825,112.852 97.5,113C 99.8912,111.691 99.8912,110.691 97.5,110C 99.5,109.667 101.5,109.333 103.5,109C 100.247,108.389 97.2472,107.222 94.5,105.5C 93.8076,106.025 93.3076,106.692 93,107.5C 91.8678,104.912 91.7011,102.412 92.5,100C 92.2451,98.6739 91.5784,97.6739 90.5,97C 93.1502,93.7927 92.9835,93.2927 90,95.5C 89.3828,94.5509 89.5494,93.7175 90.5,93C 89.5509,92.3828 88.7175,92.5494 88,93.5C 87.5357,92.9056 87.369,92.2389 87.5,91.5C 88.5294,89.4832 89.5294,87.4832 90.5,85.5C 92.95,84.2235 95.2833,82.7235 97.5,81C 100.167,80.3333 102.833,80.3333 105.5,81C 113.496,83.8077 117.829,89.3077 118.5,97.5 Z"/>
    <path style="opacity:1" fill="#f1f2f3" d="M 87.5,91.5 C 87.369,92.2389 87.5357,92.9056 88,93.5C 88.7175,92.5494 89.5509,92.3828 90.5,93C 89.5494,93.7175 89.3828,94.5509 90,95.5C 92.9835,93.2927 93.1502,93.7927 90.5,97C 91.5784,97.6739 92.2451,98.6739 92.5,100C 91.7011,102.412 91.8678,104.912 93,107.5C 93.3076,106.692 93.8076,106.025 94.5,105.5C 97.2472,107.222 100.247,108.389 103.5,109C 101.5,109.333 99.5,109.667 97.5,110C 99.8912,110.691 99.8912,111.691 97.5,113C 98.825,112.852 99.9916,113.018 101,113.5C 101.324,111.431 102.158,111.098 103.5,112.5C 104.611,111.389 105.945,110.722 107.5,110.5C 109.157,112.183 111.491,113.183 114.5,113.5C 114.158,114.338 113.492,114.672 112.5,114.5C 106.528,115.474 100.528,115.641 94.5,115C 89.8345,113.334 85.5011,111.167 81.5,108.5C 80.5244,107.185 79.5244,105.852 78.5,104.5C 81.1681,99.8499 84.1681,95.5166 87.5,91.5 Z"/>
    <path style="opacity:1" fill="#747476" d="M 119.5,92.5 C 120.327,97.3322 120.993,102.332 121.5,107.5C 121.48,108.726 121.147,109.726 120.5,110.5C 120.167,110.5 119.833,110.5 119.5,110.5C 119.261,106.158 118.927,101.824 118.5,97.5C 119.451,96.0813 119.784,94.4147 119.5,92.5 Z"/>
    <path style="opacity:1" fill="#ededef" d="M 125.5,78.5 C 125.369,79.3764 125.702,80.0431 126.5,80.5C 132.09,77.1345 138.09,75.9678 144.5,77C 128.393,80.9278 121.06,91.0945 122.5,107.5C 122.59,109.228 122.923,110.894 123.5,112.5C 122.675,113.386 121.675,113.719 120.5,113.5C 120.5,112.5 120.5,111.5 120.5,110.5C 121.147,109.726 121.48,108.726 121.5,107.5C 120.993,102.332 120.327,97.3322 119.5,92.5C 119.649,91.448 119.483,90.448 119,89.5C 113.824,83.3338 107.324,79.1671 99.5,77C 105.632,76.4712 111.465,77.6378 117,80.5C 118.03,80.1639 118.53,79.4972 118.5,78.5C 119.268,77.7375 119.768,76.7375 120,75.5C 121.093,77.3492 122.426,79.0158 124,80.5C 124.278,79.5842 124.778,78.9175 125.5,78.5 Z"/>

        <path style="opacity:1" fill="#f2f2f4" d="M 138.5,80.5 C 141.978,80.1842 145.312,80.6842 148.5,82C 155.912,88.7155 161.412,96.5488 165,105.5C 152.931,116.389 139.598,118.389 125,111.5C 121.457,97.2607 125.957,86.9273 138.5,80.5 Z"/>

</g>

<g id="Biceps">

    bicep<path style="opacity:1" fill="#f2f3f5" d="M 181.5,112.5 C 181.423,113.75 180.756,114.583 179.5,115C 181.976,118.106 183.142,121.606 183,125.5C 182,123.5 181,121.5 180,119.5C 179,122.167 178,122.167 177,119.5C 175.965,121.891 175.798,124.224 176.5,126.5C 175.902,127.795 175.402,129.128 175,130.5C 174.444,128.405 173.944,128.238 173.5,130C 173.82,132.351 174.153,134.684 174.5,137C 172.348,139.082 171.681,138.916 172.5,136.5C 171.758,135.713 170.925,135.047 170,134.5C 169.667,132.167 169.333,129.833 169,127.5C 168.517,128.448 168.351,129.448 168.5,130.5C 167.5,130.5 166.5,130.5 165.5,130.5C 164.143,125.118 163.143,119.785 162.5,114.5C 161.784,109.436 163.951,106.436 169,105.5C 172.963,108.231 177.129,110.564 181.5,112.5 Z"/>
    bicep<path style="opacity:1" fill="#f2f3f4" d="M 81.5,108.5 C 81.9739,120.121 79.6406,131.121 74.5,141.5C 69.8101,144.512 64.8101,147.012 59.5,149C 58.2506,149.74 57.2506,149.573 56.5,148.5C 54.0272,135.837 55.6938,123.837 61.5,112.5C 66.3123,110.843 70.8123,108.51 75,105.5C 77.2789,106.391 79.4456,107.391 81.5,108.5 Z"/>
    bicep<path style="opacity:1" fill="#f1f2f4" d="M 181.5,112.5 C 181.833,112.5 182.167,112.5 182.5,112.5C 188.263,124.178 189.93,136.512 187.5,149.5C 182.438,148.035 177.438,146.368 172.5,144.5C 168.65,140.633 166.317,135.966 165.5,130.5C 166.5,130.5 167.5,130.5 168.5,130.5C 168.351,129.448 168.517,128.448 169,127.5C 169.333,129.833 169.667,132.167 170,134.5C 170.925,135.047 171.758,135.713 172.5,136.5C 171.681,138.916 172.348,139.082 174.5,137C 174.153,134.684 173.82,132.351 173.5,130C 173.944,128.238 174.444,128.405 175,130.5C 175.402,129.128 175.902,127.795 176.5,126.5C 175.798,124.224 175.965,121.891 177,119.5C 178,122.167 179,122.167 180,119.5C 181,121.5 182,123.5 183,125.5C 183.142,121.606 181.976,118.106 179.5,115C 180.756,114.583 181.423,113.75 181.5,112.5 Z"/>


</g>

<g id="Abs">
    ab<path style="opacity:1" fill="#f0f1f3" d="M 120.5,127.5 C 120.5,129.833 120.5,132.167 120.5,134.5C 119.167,134.5 117.833,134.5 116.5,134.5C 111.101,136.743 105.767,136.743 100.5,134.5C 99.5272,128.85 99.5272,123.184 100.5,117.5C 105.414,117.638 110.081,116.972 114.5,115.5C 116.435,114.85 118.435,114.517 120.5,114.5C 120.5,118.833 120.5,123.167 120.5,127.5 Z"/>
    ab<path style="opacity:1" fill="#eff0f2" d="M 123.5,134.5 C 122.51,128.355 122.177,122.022 122.5,115.5C 122.917,114.876 123.584,114.543 124.5,114.5C 129.759,116.148 135.092,117.481 140.5,118.5C 141.543,122.255 142.209,126.088 142.5,130C 142.896,133.767 141.23,135.767 137.5,136C 132.776,136.224 128.109,135.724 123.5,134.5 Z"/>
    ab<path style="opacity:1" fill="#f0f0f2" d="M 120.5,136.5 C 120.5,142.167 120.5,147.833 120.5,153.5C 117.034,154.031 113.534,154.365 110,154.5C 106.195,154.696 102.695,154.03 99.5,152.5C 99.1718,147.125 99.5052,141.792 100.5,136.5C 102.432,137.366 104.432,138.033 106.5,138.5C 111.079,137.184 115.746,136.517 120.5,136.5 Z"/>
    ab<path style="opacity:1" fill="#eeeff0" d="M 122.5,136.5 C 126.544,136.844 130.544,137.51 134.5,138.5C 137.178,137.825 139.844,137.158 142.5,136.5C 142.786,142.259 142.452,147.925 141.5,153.5C 135.499,154.789 129.499,154.789 123.5,153.5C 122.505,147.872 122.171,142.206 122.5,136.5 Z"/>
    ab<path style="opacity:1" fill="#ededef" d="M 99.5,154.5 C 106.364,155.781 113.197,155.781 120,154.5C 120.499,159.489 120.666,164.489 120.5,169.5C 114.332,170.636 108.332,169.802 102.5,167C 101.198,162.922 100.198,158.755 99.5,154.5 Z"/>
    ab<path style="opacity:1" fill="#ededef" d="M 140.5,155.5 C 141.418,159.083 141.084,162.75 139.5,166.5C 136.062,167.845 132.729,169.179 129.5,170.5C 127.167,170.5 124.833,170.5 122.5,170.5C 122.5,165.5 122.5,160.5 122.5,155.5C 128.5,155.5 134.5,155.5 140.5,155.5 Z"/>
    ab<path style="opacity:1" fill="#f0f0f2" d="M 120.5,171.5 C 120.5,185.5 120.5,199.5 120.5,213.5C 118.911,214.621 117.244,214.454 115.5,213C 112.853,210.199 110.853,207.032 109.5,203.5C 106.575,192.451 104.242,181.285 102.5,170C 108.364,171.155 114.364,171.655 120.5,171.5 Z"/>
    ab<path style="opacity:1" fill="#eff0f1" d="M 131.5,206.5 C 129.461,207.911 128.461,209.911 128.5,212.5C 126.598,214.151 124.598,214.484 122.5,213.5C 122.5,199.5 122.5,185.5 122.5,171.5C 124.833,171.5 127.167,171.5 129.5,171.5C 132.417,170.583 135.417,169.916 138.5,169.5C 137.574,182.128 135.241,194.461 131.5,206.5 Z"/>

</g>

<g id="Forearms">
    foreaarm<path style="opacity:1" fill="#f1f2f4" d="M 55.5,148.5 C 55.5,149.5 55.5,150.5 55.5,151.5C 60.4104,150.141 65.2438,148.474 70,146.5C 70.7648,146.57 71.2648,146.903 71.5,147.5C 70.2534,153.733 68.0868,159.733 65,165.5C 59.2944,170.71 53.461,175.71 47.5,180.5C 46.9094,179.849 46.2427,179.182 45.5,178.5C 46.9318,178.415 48.2651,177.415 49.5,175.5C 48.4855,174.319 47.3188,173.319 46,172.5C 44.041,174.118 42.041,175.784 40,177.5C 39.5,177.167 39,176.833 38.5,176.5C 40.8401,173.802 42.1734,170.969 42.5,168C 41.2676,164.61 40.4342,164.777 40,168.5C 39.79,166.942 39.29,165.609 38.5,164.5C 40.5029,155.492 44.8362,147.825 51.5,141.5C 52.4255,140.359 53.2588,140.359 54,141.5C 54.1862,144.036 54.6862,146.369 55.5,148.5 Z"/>
    foreaarm<path style="opacity:1" fill="#f2f2f4" d="M 38.5,164.5 C 39.29,165.609 39.79,166.942 40,168.5C 40.4342,164.777 41.2676,164.61 42.5,168C 42.1734,170.969 40.8401,173.802 38.5,176.5C 39,176.833 39.5,177.167 40,177.5C 42.041,175.784 44.041,174.118 46,172.5C 47.3188,173.319 48.4855,174.319 49.5,175.5C 48.2651,177.415 46.9318,178.415 45.5,178.5C 46.2427,179.182 46.9094,179.849 47.5,180.5C 43.4349,185.901 39.7682,191.567 36.5,197.5C 33.5,195.5 30.5,193.5 27.5,191.5C 29.0761,189.021 30.0761,186.354 30.5,183.5C 33.9305,177.557 36.5972,171.224 38.5,164.5 Z"/>
    ??foreaarm<path style="opacity:1" fill="#f1f2f4" d="M 190.5,139.5 C 195.961,144.14 200.128,149.807 203,156.5C 207.068,168.205 211.235,179.871 215.5,191.5C 213.002,194.344 210.002,196.344 206.5,197.5C 204.767,191.92 201.934,186.92 198,182.5C 191.058,176.38 184.391,170.046 178,163.5C 175.553,158.38 173.72,153.046 172.5,147.5C 173,147.167 173.5,146.833 174,146.5C 178.212,148.07 182.379,149.737 186.5,151.5C 187.647,151.182 188.481,150.516 189,149.5C 189.339,146.12 189.839,142.787 190.5,139.5 Z"/>
</g>

<g id="Quads">

    quad<path style="opacity:1" fill="#eeeef0" d="M 89.5,205.5 C 86.6754,211.998 82.3421,217.331 76.5,221.5C 75.8933,221.376 75.56,221.043 75.5,220.5C 76.404,219.791 76.7373,218.791 76.5,217.5C 77.7184,208.96 79.7184,200.627 82.5,192.5C 83.6772,190.321 84.6772,187.987 85.5,185.5C 86.3132,184.347 87.3132,184.347 88.5,185.5C 89.2811,186.729 89.7811,188.062 90,189.5C 90.3151,194.838 90.1484,200.172 89.5,205.5 Z"/>
    quad<path style="opacity:1" fill="#f2f2f4" d="M 152.5,204.5 C 147.762,217.777 144.096,231.444 141.5,245.5C 139.307,243.553 136.974,242.553 134.5,242.5C 133.436,238.808 132.27,235.142 131,231.5C 130.667,231.833 130.333,232.167 130,232.5C 129.646,228.646 129.146,224.812 128.5,221C 128.645,219.774 128.978,218.607 129.5,217.5C 129.03,216.537 128.363,216.537 127.5,217.5C 128.449,215.223 129.782,213.223 131.5,211.5C 137.412,203.084 144.245,195.417 152,188.5C 152.499,193.823 152.666,199.156 152.5,204.5 Z"/>
    quad<path style="opacity:1" fill="#f1f2f4" d="M 107.5,204.5 C 109.841,208.498 112.674,212.164 116,215.5C 116.608,217.154 117.108,218.821 117.5,220.5C 117.818,225.032 117.485,229.366 116.5,233.5C 116.666,229.486 116.499,225.486 116,221.5C 111.862,224.393 109.362,223.726 108.5,219.5C 107.086,220.624 105.586,221.624 104,222.5C 102.902,221.033 101.402,220.199 99.5,220C 100.711,219.107 100.711,218.274 99.5,217.5C 98.6376,218.766 97.9709,220.099 97.5,221.5C 92.6535,211.087 90.8201,200.087 92,188.5C 98.0694,193.068 103.236,198.401 107.5,204.5 Z"/>
    quad<path style="opacity:1" fill="#f1f2f4" d="M 156.5,208.5 C 156.068,207.29 155.401,206.29 154.5,205.5C 154.17,198.8 154.503,192.134 155.5,185.5C 156.609,184.41 157.609,184.41 158.5,185.5C 163.101,196.789 165.934,208.456 167,220.5C 162.947,216.95 159.447,212.95 156.5,208.5 Z"/>
    quad<path style="opacity:1" fill="#f2f2f4" d="M 155.5,209.5 C 157.167,212.824 159.334,215.824 162,218.5C 165.538,240.946 161.038,261.613 148.5,280.5C 147.003,272.31 145.503,263.977 144,255.5C 143.333,250.833 143.333,246.167 144,241.5C 146.35,229.568 149.517,217.901 153.5,206.5C 154.176,207.602 154.842,208.602 155.5,209.5 Z"/>
    quad<path style="opacity:1" fill="#f3f3f5" d="M 116.5,233.5 C 115.166,243.843 113.666,254.176 112,264.5C 111.054,269.459 109.554,274.125 107.5,278.5C 107.5,276.833 107.5,275.167 107.5,273.5C 106.336,266.856 105.336,260.19 104.5,253.5C 104.662,251.473 104.495,249.473 104,247.5C 103.617,246.944 103.117,246.611 102.5,246.5C 100.727,238.194 99.0599,229.86 97.5,221.5C 97.9709,220.099 98.6376,218.766 99.5,217.5C 100.711,218.274 100.711,219.107 99.5,220C 101.402,220.199 102.902,221.033 104,222.5C 105.586,221.624 107.086,220.624 108.5,219.5C 109.362,223.726 111.862,224.393 116,221.5C 116.499,225.486 116.666,229.486 116.5,233.5 Z"/>
    quad<path style="opacity:1" fill="#f2f2f4" d="M 89.5,205.5 C 91.3974,207.269 92.564,209.602 93,212.5C 96.4628,224.351 99.2961,236.351 101.5,248.5C 99.0975,259.386 97.4308,270.386 96.5,281.5C 83.1385,262.477 78.3052,241.477 82,218.5C 86.5853,215.325 89.0853,210.991 89.5,205.5 Z"/>
    quad<path style="opacity:1" fill="#f0f1f3" d="M 141.5,245.5 C 139.345,256.097 137.512,266.763 136,277.5C 134.333,271.833 132.667,266.167 131,260.5C 130.599,250.861 129.099,241.528 126.5,232.5C 126.221,227.405 126.555,222.405 127.5,217.5C 128.363,216.537 129.03,216.537 129.5,217.5C 128.978,218.607 128.645,219.774 128.5,221C 129.146,224.812 129.646,228.646 130,232.5C 130.333,232.167 130.667,231.833 131,231.5C 132.27,235.142 133.436,238.808 134.5,242.5C 136.974,242.553 139.307,243.553 141.5,245.5 Z"/>
    quad<path style="opacity:1" fill="#efeff1" d="M 80.5,270.5 C 79.0778,266.003 77.4111,261.67 75.5,257.5C 75.1667,256.167 74.8333,254.833 74.5,253.5C 74.5,249.167 74.5,244.833 74.5,240.5C 74.3343,236.154 74.501,231.821 75,227.5C 74.9056,224.499 76.2389,222.499 79,221.5C 79.3345,231.524 80.0012,241.524 81,251.5C 83.9804,259.291 86.8137,267.125 89.5,275C 89.2876,277.982 88.1209,280.482 86,282.5C 83.4912,278.806 81.6578,274.806 80.5,270.5 Z"/>
    quad<path style="opacity:1" fill="#eeeff1" d="M 169.5,239.5 C 169.788,246.563 169.288,253.563 168,260.5C 164.932,267.869 161.765,275.203 158.5,282.5C 155.958,280.752 154.624,278.252 154.5,275C 157.53,266.911 160.363,258.744 163,250.5C 163.992,240.855 164.825,231.188 165.5,221.5C 166.478,221.977 167.311,222.643 168,223.5C 169.191,228.767 169.691,234.101 169.5,239.5 Z"/>
    quad<path style="opacity:1" fill="#edeef0" d="M 101.5,255.5 C 102.167,256.167 102.833,256.833 103.5,257.5C 104.235,263.34 105.235,269.007 106.5,274.5C 106.5,278.833 106.5,283.167 106.5,287.5C 105.167,287.5 103.833,287.5 102.5,287.5C 101.855,286.188 100.855,285.188 99.5,284.5C 98.7303,274.766 99.3969,265.1 101.5,255.5 Z"/>
    quad<path style="opacity:1" fill="#ebecef" d="M 145.5,283.5 C 143.487,285.497 141.154,287.164 138.5,288.5C 137.516,285.572 137.183,282.572 137.5,279.5C 137.939,270.907 139.439,262.574 142,254.5C 144.255,264.029 145.421,273.696 145.5,283.5 Z"/>

</g>
<path style="opacity:1" fill="#505153" d="M 90.5,85.5 C 89.5294,87.4832 88.5294,89.4832 87.5,91.5C 84.1681,95.5166 81.1681,99.8499 78.5,104.5C 79.5244,105.852 80.5244,107.185 81.5,108.5C 79.4456,107.391 77.2789,106.391 75,105.5C 70.8123,108.51 66.3123,110.843 61.5,112.5C 61.5,111.833 61.5,111.167 61.5,110.5C 62.1667,109.5 62.8333,108.5 63.5,107.5C 63.4701,108.497 63.9701,109.164 65,109.5C 69.1455,107.178 73.3122,105.012 77.5,103C 81.3113,96.7014 85.6447,90.8681 90.5,85.5 Z"/>
<path style="opacity:0.133" fill="#cdcdd1" d="M 61.5,110.5 C 61.5,111.167 61.5,111.833 61.5,112.5C 60.8333,112.833 60.1667,113.167 59.5,113.5C 59.427,111.973 60.0937,110.973 61.5,110.5 Z"/>
<path style="opacity:1" fill="#4a4a4c" d="M 134.5,55.5 C 134.557,56.609 134.89,57.609 135.5,58.5C 132.895,65.1521 130.395,71.8188 128,78.5C 132.204,76.2244 136.704,74.891 141.5,74.5C 143.219,75.0221 144.552,76.0221 145.5,77.5C 153.744,84.7266 160.744,93.2266 166.5,103C 171.3,104.989 175.967,107.156 180.5,109.5C 181.275,104.203 181.608,98.8699 181.5,93.5C 182.528,96.4126 182.861,100.746 182.5,106.5C 182.5,107.833 182.5,109.167 182.5,110.5C 182.5,111.167 182.5,111.833 182.5,112.5C 182.167,112.5 181.833,112.5 181.5,112.5C 177.129,110.564 172.963,108.231 169,105.5C 163.951,106.436 161.784,109.436 162.5,114.5C 162.672,115.492 162.338,116.158 161.5,116.5C 161.5,114.833 161.5,113.167 161.5,111.5C 156.942,113.412 152.276,115.245 147.5,117C 145.866,117.494 144.199,117.66 142.5,117.5C 143.366,129.477 143.699,141.477 143.5,153.5C 142.833,153.5 142.167,153.5 141.5,153.5C 142.452,147.925 142.786,142.259 142.5,136.5C 139.844,137.158 137.178,137.825 134.5,138.5C 130.544,137.51 126.544,136.844 122.5,136.5C 122.833,135.833 123.167,135.167 123.5,134.5C 128.109,135.724 132.776,136.224 137.5,136C 141.23,135.767 142.896,133.767 142.5,130C 142.209,126.088 141.543,122.255 140.5,118.5C 135.092,117.481 129.759,116.148 124.5,114.5C 123.584,114.543 122.917,114.876 122.5,115.5C 121.833,119.5 121.167,123.5 120.5,127.5C 120.5,123.167 120.5,118.833 120.5,114.5C 118.435,114.517 116.435,114.85 114.5,115.5C 113.508,115.672 112.842,115.338 112.5,114.5C 113.492,114.672 114.158,114.338 114.5,113.5C 117.034,113.741 118.7,112.741 119.5,110.5C 119.833,110.5 120.167,110.5 120.5,110.5C 120.5,111.5 120.5,112.5 120.5,113.5C 121.675,113.719 122.675,113.386 123.5,112.5C 122.923,110.894 122.59,109.228 122.5,107.5C 121.06,91.0945 128.393,80.9278 144.5,77C 138.09,75.9678 132.09,77.1345 126.5,80.5C 125.702,80.0431 125.369,79.3764 125.5,78.5C 129.106,71.0059 132.106,63.3392 134.5,55.5 Z"/>
<path style="opacity:1" fill="#565659" d="M 81.5,108.5 C 85.5011,111.167 89.8345,113.334 94.5,115C 100.528,115.641 106.528,115.474 112.5,114.5C 112.842,115.338 113.508,115.672 114.5,115.5C 110.081,116.972 105.414,117.638 100.5,117.5C 99.5272,123.184 99.5272,128.85 100.5,134.5C 105.767,136.743 111.101,136.743 116.5,134.5C 117.833,135.167 119.167,135.833 120.5,136.5C 115.746,136.517 111.079,137.184 106.5,138.5C 104.432,138.033 102.432,137.366 100.5,136.5C 99.5052,141.792 99.1718,147.125 99.5,152.5C 99.1667,152.5 98.8333,152.5 98.5,152.5C 98.2304,140.796 98.5637,129.129 99.5,117.5C 93.8659,116.769 88.6992,114.769 84,111.5C 83.6667,111.833 83.3333,112.167 83,112.5C 82.3333,116.833 82.3333,121.167 83,125.5C 85.324,128.48 86.824,131.813 87.5,135.5C 87.5654,135.938 87.3988,136.272 87,136.5C 86.7216,135.584 86.2216,134.918 85.5,134.5C 85.1075,132.716 84.4408,131.05 83.5,129.5C 83.1414,127.515 82.308,126.849 81,127.5C 80.338,129.813 79.838,132.146 79.5,134.5C 78.76,138.414 76.9266,141.747 74,144.5C 73.6847,146.586 73.1847,148.586 72.5,150.5C 71.596,149.791 71.2627,148.791 71.5,147.5C 71.2648,146.903 70.7648,146.57 70,146.5C 65.2438,148.474 60.4104,150.141 55.5,151.5C 55.5,150.5 55.5,149.5 55.5,148.5C 55.8333,148.5 56.1667,148.5 56.5,148.5C 57.2506,149.573 58.2506,149.74 59.5,149C 64.8101,147.012 69.8101,144.512 74.5,141.5C 79.6406,131.121 81.9739,120.121 81.5,108.5 Z"/>

ab?<path style="opacity:1" fill="#ecedef" d="M 98.5,152.5 C 98.5,153.167 98.5,153.833 98.5,154.5C 98.5,154.833 98.5,155.167 98.5,155.5C 97.6708,147.677 97.1708,139.677 97,131.5C 96.6667,134.5 96.3333,137.5 96,140.5C 94.6667,138.5 93.3333,136.5 92,134.5C 92,136.5 92,138.5 92,140.5C 91.5814,139.328 90.9147,138.328 90,137.5C 89.8238,141.688 89.3238,145.688 88.5,149.5C 88.8195,144.637 88.4861,139.97 87.5,135.5C 86.824,131.813 85.324,128.48 83,125.5C 82.3333,121.167 82.3333,116.833 83,112.5C 83.3333,112.167 83.6667,111.833 84,111.5C 88.6992,114.769 93.8659,116.769 99.5,117.5C 98.5637,129.129 98.2304,140.796 98.5,152.5 Z"/>
<path style="opacity:0.886" fill="#717274" d="M 61.5,112.5 C 55.6938,123.837 54.0272,135.837 56.5,148.5C 56.1667,148.5 55.8333,148.5 55.5,148.5C 54.6862,146.369 54.1862,144.036 54,141.5C 53.2588,140.359 52.4255,140.359 51.5,141.5C 44.8362,147.825 40.5029,155.492 38.5,164.5C 36.5972,171.224 33.9305,177.557 30.5,183.5C 29.8333,184.167 29.1667,184.833 28.5,185.5C 32.6374,172.926 37.4708,160.593 43,148.5C 46.5296,144.308 50.0296,140.142 53.5,136C 53.1667,135.667 52.8333,135.333 52.5,135C 53.4185,129.822 54.5852,124.655 56,119.5C 56.941,117.273 58.1077,115.273 59.5,113.5C 60.1667,113.167 60.8333,112.833 61.5,112.5 Z"/>
<path style="opacity:1" fill="#6b6c6e" d="M 162.5,114.5 C 163.143,119.785 164.143,125.118 165.5,130.5C 166.317,135.966 168.65,140.633 172.5,144.5C 171.566,145.568 171.232,146.901 171.5,148.5C 167.807,143.101 165.14,137.101 163.5,130.5C 163.079,126.016 162.079,125.683 160.5,129.5C 158.478,134.094 157.478,138.927 157.5,144C 158.018,149.158 158.351,154.325 158.5,159.5C 157.833,159.5 157.5,159.833 157.5,160.5C 156.833,158.167 156.167,155.833 155.5,153.5C 155.5,149.833 155.5,146.167 155.5,142.5C 155.604,136.288 157.437,130.621 161,125.5C 161.498,122.518 161.665,119.518 161.5,116.5C 162.338,116.158 162.672,115.492 162.5,114.5 Z"/>
<path style="opacity:0.053" fill="#dddfdf" d="M 163.5,130.5 C 162.609,129.89 161.609,129.557 160.5,129.5C 162.079,125.683 163.079,126.016 163.5,130.5 Z"/>
<path style="opacity:0.014" fill="#e5e5e6" d="M 83.5,129.5 C 81.9263,130.984 80.593,132.651 79.5,134.5C 79.838,132.146 80.338,129.813 81,127.5C 82.308,126.849 83.1414,127.515 83.5,129.5 Z"/>
ab?<path style="opacity:1" fill="#f1f1f3" d="M 161.5,116.5 C 161.665,119.518 161.498,122.518 161,125.5C 157.437,130.621 155.604,136.288 155.5,142.5C 154.776,145.083 153.943,147.749 153,150.5C 152.242,148.231 152.409,146.064 153.5,144C 152.646,142.978 151.646,142.145 150.5,141.5C 149.685,143.276 148.518,143.943 147,143.5C 147.984,141.402 147.651,139.402 146,137.5C 145.787,145.876 145.121,154.21 144,162.5C 143.517,161.552 143.351,160.552 143.5,159.5C 143.5,158.833 143.5,158.167 143.5,157.5C 143.5,156.167 143.5,154.833 143.5,153.5C 143.699,141.477 143.366,129.477 142.5,117.5C 144.199,117.66 145.866,117.494 147.5,117C 152.276,115.245 156.942,113.412 161.5,111.5C 161.5,113.167 161.5,114.833 161.5,116.5 Z"/>
<path style="opacity:0.292" fill="#aeaeaf" d="M 86.5,140.5 C 87.8333,144.167 87.8333,147.833 86.5,151.5C 86.1943,148.055 86.1943,144.389 86.5,140.5 Z"/>
<path style="opacity:0.91" fill="#7b7d7e" d="M 85.5,134.5 C 86.2216,134.918 86.7216,135.584 87,136.5C 87.3988,136.272 87.5654,135.938 87.5,135.5C 88.4861,139.97 88.8195,144.637 88.5,149.5C 88.5,150.833 88.5,152.167 88.5,153.5C 87.8333,156.167 87.1667,158.833 86.5,161.5C 85.8333,162.833 85.1667,164.167 84.5,165.5C 84.7054,160.728 85.3721,156.062 86.5,151.5C 87.8333,147.833 87.8333,144.167 86.5,140.5C 86.1667,138.5 85.8333,136.5 85.5,134.5 Z"/>

<path style="opacity:1" fill="#f3f4f6" d="M 98.5,155.5 C 99.8225,162.122 100.823,168.789 101.5,175.5C 101.66,177.199 101.494,178.866 101,180.5C 100.444,178.405 99.9444,178.238 99.5,180C 100.494,182.918 99.9944,183.084 98,180.5C 97.5756,182.615 96.4089,183.448 94.5,183C 94.9574,182.586 95.2907,182.086 95.5,181.5C 94.5091,179.677 93.1757,178.177 91.5,177C 92.5742,176.261 93.2409,175.261 93.5,174C 92.7157,166.536 92.2157,159.036 92,151.5C 91.6667,153.5 91.3333,155.5 91,157.5C 89.2942,156.692 88.4609,155.359 88.5,153.5C 88.5,152.167 88.5,150.833 88.5,149.5C 89.3238,145.688 89.8238,141.688 90,137.5C 90.9147,138.328 91.5814,139.328 92,140.5C 92,138.5 92,136.5 92,134.5C 93.3333,136.5 94.6667,138.5 96,140.5C 96.3333,137.5 96.6667,134.5 97,131.5C 97.1708,139.677 97.6708,147.677 98.5,155.5 Z"/>
<path style="opacity:1" fill="#f2f3f4" d="M 155.5,142.5 C 155.5,146.167 155.5,149.833 155.5,153.5C 155.657,154.873 155.49,156.207 155,157.5C 149.907,155.035 149.573,156.369 154,161.5C 154.495,163.473 154.662,165.473 154.5,167.5C 152.876,167.36 151.71,168.027 151,169.5C 149.408,166.682 147.242,166.849 144.5,170C 145.5,170.333 146.5,170.667 147.5,171C 147.273,172.135 146.94,173.302 146.5,174.5C 142.627,173.756 140.96,171.423 141.5,167.5C 141.565,164.572 142.232,161.905 143.5,159.5C 143.351,160.552 143.517,161.552 144,162.5C 145.121,154.21 145.787,145.876 146,137.5C 147.651,139.402 147.984,141.402 147,143.5C 148.518,143.943 149.685,143.276 150.5,141.5C 151.646,142.145 152.646,142.978 153.5,144C 152.409,146.064 152.242,148.231 153,150.5C 153.943,147.749 154.776,145.083 155.5,142.5 Z"/>
<path style="opacity:1" fill="#efeff1" d="M 155.5,153.5 C 156.167,155.833 156.833,158.167 157.5,160.5C 157.785,164.998 158.118,169.498 158.5,174C 158.557,176.96 158.057,179.793 157,182.5C 146.956,189.543 138.623,198.21 132,208.5C 131.536,207.906 131.369,207.239 131.5,206.5C 134.379,202.705 136.213,198.371 137,193.5C 138.471,184.686 139.971,176.019 141.5,167.5C 140.96,171.423 142.627,173.756 146.5,174.5C 146.94,173.302 147.273,172.135 147.5,171C 146.5,170.667 145.5,170.333 144.5,170C 147.242,166.849 149.408,166.682 151,169.5C 151.71,168.027 152.876,167.36 154.5,167.5C 154.662,165.473 154.495,163.473 154,161.5C 149.573,156.369 149.907,155.035 155,157.5C 155.49,156.207 155.657,154.873 155.5,153.5 Z"/>
<path style="opacity:1" fill="#eff0f2" d="M 101.5,175.5 C 103.194,184.186 105.027,192.853 107,201.5C 101.294,194.126 94.6271,187.793 87,182.5C 85.4539,175.555 85.2872,168.555 86.5,161.5C 87.1667,158.833 87.8333,156.167 88.5,153.5C 88.4609,155.359 89.2942,156.692 91,157.5C 91.3333,155.5 91.6667,153.5 92,151.5C 92.2157,159.036 92.7157,166.536 93.5,174C 93.2409,175.261 92.5742,176.261 91.5,177C 93.1757,178.177 94.5091,179.677 95.5,181.5C 95.2907,182.086 94.9574,182.586 94.5,183C 96.4089,183.448 97.5756,182.615 98,180.5C 99.9944,183.084 100.494,182.918 99.5,180C 99.9444,178.238 100.444,178.405 101,180.5C 101.494,178.866 101.66,177.199 101.5,175.5 Z"/>
<path style="opacity:1" fill="#6c6c6e" d="M 140.5,155.5 C 140.56,154.957 140.893,154.624 141.5,154.5C 142.176,155.602 142.842,156.602 143.5,157.5C 143.5,158.167 143.5,158.833 143.5,159.5C 142.232,161.905 141.565,164.572 141.5,167.5C 139.971,176.019 138.471,184.686 137,193.5C 136.213,198.371 134.379,202.705 131.5,206.5C 135.241,194.461 137.574,182.128 138.5,169.5C 135.417,169.916 132.417,170.583 129.5,171.5C 129.5,171.167 129.5,170.833 129.5,170.5C 132.729,169.179 136.062,167.845 139.5,166.5C 141.084,162.75 141.418,159.083 140.5,155.5 Z"/>
<path style="opacity:1" fill="#5b5c5e" d="M 98.5,154.5 C 98.8333,154.5 99.1667,154.5 99.5,154.5C 100.198,158.755 101.198,162.922 102.5,167C 108.332,169.802 114.332,170.636 120.5,169.5C 120.5,170.167 120.5,170.833 120.5,171.5C 114.364,171.655 108.364,171.155 102.5,170C 104.242,181.285 106.575,192.451 109.5,203.5C 108.508,203.328 107.842,203.662 107.5,204.5C 103.236,198.401 98.0694,193.068 92,188.5C 90.8201,200.087 92.6535,211.087 97.5,221.5C 99.0599,229.86 100.727,238.194 102.5,246.5C 102.519,248.06 102.852,249.56 103.5,251C 102.293,252.3 101.626,253.8 101.5,255.5C 99.3969,265.1 98.7303,274.766 99.5,284.5C 100.855,285.188 101.855,286.188 102.5,287.5C 96.8813,285.378 93.048,281.378 91,275.5C 90.6401,277.608 89.9734,279.608 89,281.5C 87.8668,283.211 86.3668,283.711 84.5,283C 82.7535,280.341 81.4202,277.508 80.5,274.5C 79.3143,273.039 79.3143,271.705 80.5,270.5C 81.6578,274.806 83.4912,278.806 86,282.5C 88.1209,280.482 89.2876,277.982 89.5,275C 86.8137,267.125 83.9804,259.291 81,251.5C 80.0012,241.524 79.3345,231.524 79,221.5C 76.2389,222.499 74.9056,224.499 75,227.5C 74.501,231.821 74.3343,236.154 74.5,240.5C 73.5166,236.702 73.1832,232.702 73.5,228.5C 73.5,226.833 73.5,225.167 73.5,223.5C 74.1667,222.5 74.8333,221.5 75.5,220.5C 75.56,221.043 75.8933,221.376 76.5,221.5C 82.3421,217.331 86.6754,211.998 89.5,205.5C 90.1484,200.172 90.3151,194.838 90,189.5C 89.7811,188.062 89.2811,186.729 88.5,185.5C 87.3132,184.347 86.3132,184.347 85.5,185.5C 84.596,184.791 84.2627,183.791 84.5,182.5C 83.1667,176.833 83.1667,171.167 84.5,165.5C 85.1667,164.167 85.8333,162.833 86.5,161.5C 85.2872,168.555 85.4539,175.555 87,182.5C 94.6271,187.793 101.294,194.126 107,201.5C 105.027,192.853 103.194,184.186 101.5,175.5C 100.823,168.789 99.8225,162.122 98.5,155.5C 98.5,155.167 98.5,154.833 98.5,154.5 Z"/>
<path style="opacity:0.898" fill="#818284" d="M 84.5,182.5 C 84.2627,183.791 84.596,184.791 85.5,185.5C 84.6772,187.987 83.6772,190.321 82.5,192.5C 81.8333,192.833 81.1667,193.167 80.5,193.5C 81.6047,189.648 82.938,185.982 84.5,182.5 Z"/>
<path style="opacity:0.969" fill="#5d5e60" d="M 182.5,110.5 C 184.81,113.102 186.643,116.102 188,119.5C 189.488,125.441 190.655,131.441 191.5,137.5C 197.474,142.779 201.974,149.112 205,156.5C 209.467,168.9 214.134,181.233 219,193.5C 220.709,196.418 222.542,199.252 224.5,202C 231.193,204.872 236.86,209.039 241.5,214.5C 240.947,216.552 239.947,216.885 238.5,215.5C 234.797,210.805 230.13,207.305 224.5,205C 221.301,201.434 218.467,197.6 216,193.5C 213.022,195.311 210.522,197.644 208.5,200.5C 211.318,205.397 212.818,210.731 213,216.5C 214.229,220.621 215.729,224.621 217.5,228.5C 219.011,230.838 218.677,231.504 216.5,230.5C 212.272,218.542 208.106,206.542 204,194.5C 196.413,183.577 187.413,173.91 177,165.5C 174.008,160.189 172.175,154.522 171.5,148.5C 171.232,146.901 171.566,145.568 172.5,144.5C 177.438,146.368 182.438,148.035 187.5,149.5C 189.93,136.512 188.263,124.178 182.5,112.5C 182.5,111.833 182.5,111.167 182.5,110.5 Z"/>
<path style="opacity:0.459" fill="#a9abac" d="M 80.5,193.5 C 80.7406,195.898 80.0739,197.898 78.5,199.5C 78.595,197.214 79.2616,195.214 80.5,193.5 Z"/>
<path style="opacity:0.745" fill="#484a4b" d="M 82.5,192.5 C 79.7184,200.627 77.7184,208.96 76.5,217.5C 75.5489,216.081 75.2155,214.415 75.5,212.5C 75.298,210.05 75.6314,207.717 76.5,205.5C 78.0739,203.898 78.7406,201.898 78.5,199.5C 80.0739,197.898 80.7406,195.898 80.5,193.5C 81.1667,193.167 81.8333,192.833 82.5,192.5 Z"/>
<path style="opacity:0.173" fill="#cdcdce" d="M 22.5,196.5 C 21.4638,200.87 18.7971,203.536 14.5,204.5C 17.5,202.167 20.1667,199.5 22.5,196.5 Z"/>
<path style="opacity:0.408" fill="#b0b3b3" d="M 78.5,199.5 C 78.7406,201.898 78.0739,203.898 76.5,205.5C 76.595,203.214 77.2616,201.214 78.5,199.5 Z"/>
<path style="opacity:0.561" fill="#656668" d="M 71.5,147.5 C 71.2627,148.791 71.596,149.791 72.5,150.5C 71.5628,155.81 69.7295,160.81 67,165.5C 57.6848,173.15 49.3514,181.817 42,191.5C 39.5879,196.659 36.9212,201.659 34,206.5C 32.6824,216.293 29.5157,225.293 24.5,233.5C 24.5,232.833 24.5,232.167 24.5,231.5C 28.0959,222.869 30.5959,213.869 32,204.5C 35.4768,201.422 35.3101,198.589 31.5,196C 29.99,195.15 28.49,194.317 27,193.5C 25.5879,194.686 24.4212,196.019 23.5,197.5C 23.5,196.833 23.1667,196.5 22.5,196.5C 24.264,192.634 26.264,188.967 28.5,185.5C 29.1667,184.833 29.8333,184.167 30.5,183.5C 30.0761,186.354 29.0761,189.021 27.5,191.5C 30.5,193.5 33.5,195.5 36.5,197.5C 39.7682,191.567 43.4349,185.901 47.5,180.5C 53.461,175.71 59.2944,170.71 65,165.5C 68.0868,159.733 70.2534,153.733 71.5,147.5 Z"/>
<path style="opacity:1" fill="#333335" d="M 122.5,115.5 C 122.177,122.022 122.51,128.355 123.5,134.5C 123.167,135.167 122.833,135.833 122.5,136.5C 122.171,142.206 122.505,147.872 123.5,153.5C 129.499,154.789 135.499,154.789 141.5,153.5C 142.167,153.5 142.833,153.5 143.5,153.5C 143.5,154.833 143.5,156.167 143.5,157.5C 142.842,156.602 142.176,155.602 141.5,154.5C 140.893,154.624 140.56,154.957 140.5,155.5C 134.5,155.5 128.5,155.5 122.5,155.5C 122.5,160.5 122.5,165.5 122.5,170.5C 124.833,170.5 127.167,170.5 129.5,170.5C 129.5,170.833 129.5,171.167 129.5,171.5C 127.167,171.5 124.833,171.5 122.5,171.5C 122.5,185.5 122.5,199.5 122.5,213.5C 121.833,213.5 121.167,213.5 120.5,213.5C 120.5,199.5 120.5,185.5 120.5,171.5C 120.5,170.833 120.5,170.167 120.5,169.5C 120.666,164.489 120.499,159.489 120,154.5C 113.197,155.781 106.364,155.781 99.5,154.5C 99.1667,154.5 98.8333,154.5 98.5,154.5C 98.5,153.833 98.5,153.167 98.5,152.5C 98.8333,152.5 99.1667,152.5 99.5,152.5C 102.695,154.03 106.195,154.696 110,154.5C 113.534,154.365 117.034,154.031 120.5,153.5C 120.5,147.833 120.5,142.167 120.5,136.5C 119.167,135.833 117.833,135.167 116.5,134.5C 117.833,134.5 119.167,134.5 120.5,134.5C 120.5,132.167 120.5,129.833 120.5,127.5C 121.167,123.5 121.833,119.5 122.5,115.5 Z"/>
<path style="opacity:0.31" fill="#bbbdc4" d="M 12.5,205.5 C 12.0269,206.906 11.0269,207.573 9.5,207.5C 9.97306,206.094 10.9731,205.427 12.5,205.5 Z"/>
<path style="opacity:0.918" fill="#3d4041" d="M 22.5,196.5 C 23.1667,196.5 23.5,196.833 23.5,197.5C 21.2693,203.557 16.936,207.39 10.5,209C 8.62976,211.04 6.62976,212.873 4.5,214.5C 3.84851,215.091 3.18185,215.757 2.5,216.5C 1.70245,216.043 1.36912,215.376 1.5,214.5C 2.26231,212.738 3.59565,211.738 5.5,211.5C 7.16667,210.5 8.5,209.167 9.5,207.5C 11.0269,207.573 12.0269,206.906 12.5,205.5C 12.8417,204.662 13.5084,204.328 14.5,204.5C 18.7971,203.536 21.4638,200.87 22.5,196.5 Z"/>
<path style="opacity:0.184" fill="#d2d4d4" d="M 9.5,207.5 C 8.5,209.167 7.16667,210.5 5.5,211.5C 5.83333,209.167 7.16667,207.833 9.5,207.5 Z"/>
<path style="opacity:1" fill="#f1f1f3" d="M 24.5,231.5 C 23.3501,232.85 22.6834,232.684 22.5,231C 23.3091,229.216 23.9757,227.383 24.5,225.5C 24.2528,224.287 23.5862,223.62 22.5,223.5C 21.1516,222.814 19.985,221.814 19,220.5C 18.2801,222.255 17.1134,223.089 15.5,223C 16.2567,221.488 17.2567,220.154 18.5,219C 17.0039,218.493 15.8373,218.993 15,220.5C 14.3292,219.748 13.4959,219.414 12.5,219.5C 12.7989,217.396 12.4656,215.396 11.5,213.5C 9.67702,214.747 7.67702,215.414 5.5,215.5C 4.83333,215.5 4.5,215.167 4.5,214.5C 6.62976,212.873 8.62976,211.04 10.5,209C 16.936,207.39 21.2693,203.557 23.5,197.5C 24.4212,196.019 25.5879,194.686 27,193.5C 28.49,194.317 29.99,195.15 31.5,196C 35.3101,198.589 35.4768,201.422 32,204.5C 30.5959,213.869 28.0959,222.869 24.5,231.5 Z"/>
<path style="opacity:1" fill="#ecedef" d="M 238.5,215.5 C 238.167,215.5 237.833,215.5 237.5,215.5C 235.323,215.414 233.323,214.747 231.5,213.5C 230.359,215.421 230.192,217.421 231,219.5C 234.765,223.03 236.932,227.363 237.5,232.5C 235.248,229.068 232.748,225.734 230,222.5C 229.678,224.689 230.178,226.689 231.5,228.5C 231.167,228.5 230.833,228.5 230.5,228.5C 230.167,227.167 229.833,227.167 229.5,228.5C 228.115,227.426 226.949,226.093 226,224.5C 225.517,225.448 225.351,226.448 225.5,227.5C 224.662,227.842 224.328,228.508 224.5,229.5C 223.263,228.035 222.263,226.368 221.5,224.5C 220.791,223.596 219.791,223.263 218.5,223.5C 218.784,225.415 218.451,227.081 217.5,228.5C 215.729,224.621 214.229,220.621 213,216.5C 212.818,210.731 211.318,205.397 208.5,200.5C 210.522,197.644 213.022,195.311 216,193.5C 218.467,197.6 221.301,201.434 224.5,205C 230.13,207.305 234.797,210.805 238.5,215.5 Z"/>
<path style="opacity:1" fill="#4e4f51" d="M 109.5,203.5 C 110.853,207.032 112.853,210.199 115.5,213C 117.244,214.454 118.911,214.621 120.5,213.5C 121.167,213.5 121.833,213.5 122.5,213.5C 124.598,214.484 126.598,214.151 128.5,212.5C 129.151,211.909 129.818,211.243 130.5,210.5C 131.107,210.624 131.44,210.957 131.5,211.5C 129.782,213.223 128.449,215.223 127.5,217.5C 126.555,222.405 126.221,227.405 126.5,232.5C 126.737,233.791 126.404,234.791 125.5,235.5C 124.705,231.215 124.372,226.881 124.5,222.5C 124.472,220.418 125.139,218.584 126.5,217C 123.854,216.503 121.187,216.336 118.5,216.5C 118.5,217.5 118.5,218.5 118.5,219.5C 118.5,220.167 118.167,220.5 117.5,220.5C 117.108,218.821 116.608,217.154 116,215.5C 112.674,212.164 109.841,208.498 107.5,204.5C 107.842,203.662 108.508,203.328 109.5,203.5 Z"/>
<path style="opacity:0.596" fill="#636466" d="M 158.5,159.5 C 160.116,166.493 160.449,173.659 159.5,181C 165.455,196.318 169.121,212.151 170.5,228.5C 170.815,232.371 170.482,236.038 169.5,239.5C 169.691,234.101 169.191,228.767 168,223.5C 167.311,222.643 166.478,221.977 165.5,221.5C 164.825,231.188 163.992,240.855 163,250.5C 160.363,258.744 157.53,266.911 154.5,275C 154.624,278.252 155.958,280.752 158.5,282.5C 159.167,282.5 159.5,282.833 159.5,283.5C 158.022,283.762 156.689,283.429 155.5,282.5C 154.752,280.668 153.752,279.001 152.5,277.5C 149.446,282.887 145.113,286.887 139.5,289.5C 138.927,295.815 140.261,301.815 143.5,307.5C 144.086,307.291 144.586,306.957 145,306.5C 145.333,302.5 145.667,298.5 146,294.5C 146.333,297.833 146.667,301.167 147,304.5C 148.488,306.82 150.321,306.987 152.5,305C 153.977,303.188 155.31,301.355 156.5,299.5C 156.5,299.833 156.5,300.167 156.5,300.5C 154.896,306.642 150.896,309.309 144.5,308.5C 142.544,314.412 141.877,320.745 142.5,327.5C 142.588,317.257 140.754,307.257 137,297.5C 136.17,292.192 135.67,286.859 135.5,281.5C 135.5,280.167 136.167,279.5 137.5,279.5C 137.183,282.572 137.516,285.572 138.5,288.5C 141.154,287.164 143.487,285.497 145.5,283.5C 146.5,282.5 147.5,281.5 148.5,280.5C 161.038,261.613 165.538,240.946 162,218.5C 159.334,215.824 157.167,212.824 155.5,209.5C 155.5,208.833 155.833,208.5 156.5,208.5C 159.447,212.95 162.947,216.95 167,220.5C 165.934,208.456 163.101,196.789 158.5,185.5C 157.609,184.41 156.609,184.41 155.5,185.5C 154.503,192.134 154.17,198.8 154.5,205.5C 153.508,205.672 152.842,205.338 152.5,204.5C 152.666,199.156 152.499,193.823 152,188.5C 144.245,195.417 137.412,203.084 131.5,211.5C 131.44,210.957 131.107,210.624 130.5,210.5C 129.818,211.243 129.151,211.909 128.5,212.5C 128.461,209.911 129.461,207.911 131.5,206.5C 131.369,207.239 131.536,207.906 132,208.5C 138.623,198.21 146.956,189.543 157,182.5C 158.057,179.793 158.557,176.96 158.5,174C 158.118,169.498 157.785,164.998 157.5,160.5C 157.5,159.833 157.833,159.5 158.5,159.5 Z"/>
<path style="opacity:0.969" fill="#404143" d="M 12.5,219.5 C 11.5,220.167 10.5,220.833 9.5,221.5C 9.5,220.833 9.5,220.167 9.5,219.5C 10.404,218.791 10.7373,217.791 10.5,216.5C 8.58533,216.784 6.91866,216.451 5.5,215.5C 7.67702,215.414 9.67702,214.747 11.5,213.5C 12.4656,215.396 12.7989,217.396 12.5,219.5 Z"/>
<path style="opacity:0.522" fill="#919293" d="M 1.5,214.5 C 1.36912,215.376 1.70245,216.043 2.5,216.5C 3.18185,215.757 3.84851,215.091 4.5,214.5C 4.5,215.167 4.83333,215.5 5.5,215.5C 6.91866,216.451 8.58533,216.784 10.5,216.5C 10.7373,217.791 10.404,218.791 9.5,219.5C 9.38002,218.414 8.71335,217.747 7.5,217.5C 5.87149,218.423 4.37149,218.757 3,218.5C 0.789698,217.51 0.289698,216.176 1.5,214.5 Z"/>
<path style="opacity:0.514" fill="#8d8e90" d="M 241.5,214.5 C 242.776,215.386 242.776,216.386 241.5,217.5C 239.744,218.407 237.911,218.407 236,217.5C 234.624,217.684 233.791,218.351 233.5,219.5C 232.596,218.791 232.263,217.791 232.5,216.5C 234.415,216.784 236.081,216.451 237.5,215.5C 237.833,215.5 238.167,215.5 238.5,215.5C 239.947,216.885 240.947,216.552 241.5,214.5 Z"/>
<path style="opacity:0.961" fill="#808083" d="M 75.5,212.5 C 75.2155,214.415 75.5489,216.081 76.5,217.5C 76.7373,218.791 76.404,219.791 75.5,220.5C 74.8333,221.5 74.1667,222.5 73.5,223.5C 73.6459,219.613 74.3126,215.946 75.5,212.5 Z"/>
<path style="opacity:0.147" fill="#f7f8f8" d="M 124.5,222.5 C 123.518,221.859 122.518,221.193 121.5,220.5C 120.818,221.243 120.151,221.909 119.5,222.5C 119.737,221.209 119.404,220.209 118.5,219.5C 118.5,218.5 118.5,217.5 118.5,216.5C 121.187,216.336 123.854,216.503 126.5,217C 125.139,218.584 124.472,220.418 124.5,222.5 Z"/>
<path style="opacity:0.173" fill="#bdbdc0" d="M 9.5,219.5 C 9.5,220.167 9.5,220.833 9.5,221.5C 8.83333,221.833 8.16667,222.167 7.5,222.5C 7.42702,220.973 8.09368,219.973 9.5,219.5 Z"/>
<path style="opacity:0.973" fill="#dcdcdd" d="M 22.5,223.5 C 20.0645,227.262 17.8978,231.262 16,235.5C 14.5391,236.883 13.7058,236.549 13.5,234.5C 15.956,231.633 17.1227,228.299 17,224.5C 16.2917,225.381 15.4584,226.047 14.5,226.5C 14.5,225.833 14.1667,225.5 13.5,225.5C 14.6256,224.142 14.6256,222.808 13.5,221.5C 11.7224,223.264 10.3891,225.264 9.5,227.5C 8.26315,228.965 7.26315,230.632 6.5,232.5C 5.90326,232.265 5.56993,231.765 5.5,231C 6.44981,227.609 7.78314,224.442 9.5,221.5C 10.5,220.833 11.5,220.167 12.5,219.5C 13.4959,219.414 14.3292,219.748 15,220.5C 15.8373,218.993 17.0039,218.493 18.5,219C 17.2567,220.154 16.2567,221.488 15.5,223C 17.1134,223.089 18.2801,222.255 19,220.5C 19.985,221.814 21.1516,222.814 22.5,223.5 Z M 13.5,225.5 C 14.1667,225.5 14.5,225.833 14.5,226.5C 13.5592,228.05 12.8925,229.716 12.5,231.5C 12.1667,231.5 11.8333,231.5 11.5,231.5C 11.5,230.5 11.5,229.5 11.5,228.5C 12.4013,227.71 13.0679,226.71 13.5,225.5 Z"/>
<path style="opacity:0.58" fill="#4e4f51" d="M 237.5,215.5 C 236.081,216.451 234.415,216.784 232.5,216.5C 232.263,217.791 232.596,218.791 233.5,219.5C 237.842,223.799 239.509,228.799 238.5,234.5C 238.672,233.508 238.338,232.842 237.5,232.5C 236.932,227.363 234.765,223.03 231,219.5C 230.192,217.421 230.359,215.421 231.5,213.5C 233.323,214.747 235.323,215.414 237.5,215.5 Z"/>
<path style="opacity:0.845" fill="#57585a" d="M 13.5,225.5 C 13.0679,226.71 12.4013,227.71 11.5,228.5C 11.5912,226.302 10.9245,225.969 9.5,227.5C 10.3891,225.264 11.7224,223.264 13.5,221.5C 14.6256,222.808 14.6256,224.142 13.5,225.5 Z"/>
<path style="opacity:0.663" fill="#535457" d="M 9.5,221.5 C 7.78314,224.442 6.44981,227.609 5.5,231C 5.56993,231.765 5.90326,232.265 6.5,232.5C 5.83333,233.167 5.16667,233.833 4.5,234.5C 3.046,230.02 4.046,226.02 7.5,222.5C 8.16667,222.167 8.83333,221.833 9.5,221.5 Z"/>
<path style="opacity:1" fill="#a0a1a2" d="M 221.5,224.5 C 220.351,224.791 219.684,225.624 219.5,227C 219.773,229.151 220.439,231.151 221.5,233C 220.584,233.278 219.918,233.778 219.5,234.5C 217.738,233.738 216.738,232.404 216.5,230.5C 218.677,231.504 219.011,230.838 217.5,228.5C 218.451,227.081 218.784,225.415 218.5,223.5C 219.791,223.263 220.791,223.596 221.5,224.5 Z"/>
<path style="opacity:0.945" fill="#303032" d="M 13.5,234.5 C 12.596,233.791 12.2627,232.791 12.5,231.5C 12.8925,229.716 13.5592,228.05 14.5,226.5C 15.4584,226.047 16.2917,225.381 17,224.5C 17.1227,228.299 15.956,231.633 13.5,234.5 Z"/>
<path style="opacity:1" fill="#313234" d="M 237.5,232.5 C 238.338,232.842 238.672,233.508 238.5,234.5C 237.5,234.5 236.5,234.5 235.5,234.5C 235.5,235.5 235.5,236.5 235.5,237.5C 234.791,238.404 233.791,238.737 232.5,238.5C 233.167,237.833 233.833,237.167 234.5,236.5C 234.204,234.597 233.537,232.93 232.5,231.5C 231.89,230.609 231.557,229.609 231.5,228.5C 230.178,226.689 229.678,224.689 230,222.5C 232.748,225.734 235.248,229.068 237.5,232.5 Z"/>
<path style="opacity:0.898" fill="#212123" d="M 11.5,228.5 C 9.73292,230.792 8.73292,233.458 8.5,236.5C 7.57982,237.067 7.24649,236.401 7.5,234.5C 6.5,234.5 5.5,234.5 4.5,234.5C 5.16667,233.833 5.83333,233.167 6.5,232.5C 7.26315,230.632 8.26315,228.965 9.5,227.5C 10.9245,225.969 11.5912,226.302 11.5,228.5 Z"/>
<path style="opacity:1" fill="#737376" d="M 152.5,204.5 C 152.842,205.338 153.508,205.672 154.5,205.5C 155.401,206.29 156.068,207.29 156.5,208.5C 155.833,208.5 155.5,208.833 155.5,209.5C 154.842,208.602 154.176,207.602 153.5,206.5C 149.517,217.901 146.35,229.568 144,241.5C 143.333,246.167 143.333,250.833 144,255.5C 145.503,263.977 147.003,272.31 148.5,280.5C 147.5,281.5 146.5,282.5 145.5,283.5C 145.421,273.696 144.255,264.029 142,254.5C 139.439,262.574 137.939,270.907 137.5,279.5C 136.167,279.5 135.5,280.167 135.5,281.5C 133.38,276.396 131.546,271.063 130,265.5C 128.638,255.468 127.138,245.468 125.5,235.5C 126.404,234.791 126.737,233.791 126.5,232.5C 129.099,241.528 130.599,250.861 131,260.5C 132.667,266.167 134.333,271.833 136,277.5C 137.512,266.763 139.345,256.097 141.5,245.5C 144.096,231.444 147.762,217.777 152.5,204.5 Z"/>
<path style="opacity:0.027" fill="#c0c7c8" d="M 11.5,228.5 C 11.5,229.5 11.5,230.5 11.5,231.5C 10.1667,232.167 10.1667,232.833 11.5,233.5C 11.1436,235.19 10.1436,236.19 8.5,236.5C 8.73292,233.458 9.73292,230.792 11.5,228.5 Z"/>
<path style="opacity:0.58" fill="#e0e0e2" d="M 20.5,235.5 C 19.391,235.557 18.391,235.89 17.5,236.5C 18.8845,230.992 19.8845,230.659 20.5,235.5 Z"/>
<path style="opacity:0.518" fill="#4e4f51" d="M 22.5,223.5 C 23.5862,223.62 24.2528,224.287 24.5,225.5C 23.9757,227.383 23.3091,229.216 22.5,231C 22.6834,232.684 23.3501,232.85 24.5,231.5C 24.5,232.167 24.5,232.833 24.5,233.5C 23.713,235.104 22.3797,235.771 20.5,235.5C 19.8845,230.659 18.8845,230.992 17.5,236.5C 17.0269,237.906 16.0269,238.573 14.5,238.5C 12.9272,236.164 11.5939,236.164 10.5,238.5C 9.68677,239.653 8.68677,239.653 7.5,238.5C 6.61135,236.993 5.61135,235.66 4.5,234.5C 5.5,234.5 6.5,234.5 7.5,234.5C 7.24649,236.401 7.57982,237.067 8.5,236.5C 10.1436,236.19 11.1436,235.19 11.5,233.5C 11.5,232.833 11.5,232.167 11.5,231.5C 11.8333,231.5 12.1667,231.5 12.5,231.5C 12.2627,232.791 12.596,233.791 13.5,234.5C 13.7058,236.549 14.5391,236.883 16,235.5C 17.8978,231.262 20.0645,227.262 22.5,223.5 Z"/>
<path style="opacity:0.129" fill="#d0d1d0" d="M 226.5,229.5 C 227.537,230.93 228.204,232.597 228.5,234.5C 228.5,235.167 228.5,235.833 228.5,236.5C 226.75,235.341 225.75,233.674 225.5,231.5C 226.338,231.158 226.672,230.492 226.5,229.5 Z"/>
<path style="opacity:1" fill="#242525" d="M 229.5,228.5 C 230.026,231.354 231.026,234.021 232.5,236.5C 231.504,236.414 230.671,236.748 230,237.5C 229.768,236.263 229.268,235.263 228.5,234.5C 228.204,232.597 227.537,230.93 226.5,229.5C 225.662,229.158 225.328,228.492 225.5,227.5C 225.351,226.448 225.517,225.448 226,224.5C 226.949,226.093 228.115,227.426 229.5,228.5 Z"/>
<path style="opacity:0.11" fill="#c5c7c9" d="M 229.5,228.5 C 229.833,228.5 230.167,228.5 230.5,228.5C 230.285,230.179 230.952,231.179 232.5,231.5C 233.537,232.93 234.204,234.597 234.5,236.5C 233.833,236.5 233.167,236.5 232.5,236.5C 231.026,234.021 230.026,231.354 229.5,228.5 Z"/>
<path style="opacity:0.451" fill="#414242" d="M 221.5,224.5 C 222.263,226.368 223.263,228.035 224.5,229.5C 224.833,230.167 225.167,230.833 225.5,231.5C 225.75,233.674 226.75,235.341 228.5,236.5C 228.158,237.338 227.492,237.672 226.5,237.5C 225.5,237.167 224.833,236.5 224.5,235.5C 221.939,226.339 221.273,226.339 222.5,235.5C 222.565,235.938 222.399,236.272 222,236.5C 221.005,235.934 220.172,235.267 219.5,234.5C 219.918,233.778 220.584,233.278 221.5,233C 220.439,231.151 219.773,229.151 219.5,227C 219.684,225.624 220.351,224.791 221.5,224.5 Z"/>
<path style="opacity:0.463" fill="#c3c4c5" d="M 224.5,235.5 C 223.833,235.5 223.167,235.5 222.5,235.5C 221.273,226.339 221.939,226.339 224.5,235.5 Z"/>
<path style="opacity:0.651" fill="#757677" d="M 228.5,234.5 C 229.268,235.263 229.768,236.263 230,237.5C 230.671,236.748 231.504,236.414 232.5,236.5C 233.167,236.5 233.833,236.5 234.5,236.5C 233.833,237.167 233.167,237.833 232.5,238.5C 230.265,238.795 228.265,238.461 226.5,237.5C 227.492,237.672 228.158,237.338 228.5,236.5C 228.5,235.833 228.5,235.167 228.5,234.5 Z"/>
<path style="opacity:0.059" fill="#bcbebe" d="M 238.5,234.5 C 237.5,235.5 236.5,236.5 235.5,237.5C 235.5,236.5 235.5,235.5 235.5,234.5C 236.5,234.5 237.5,234.5 238.5,234.5 Z"/>
<path style="opacity:0.039" fill="#d7d8d8" d="M 14.5,238.5 C 13.3684,239.354 12.035,239.354 10.5,238.5C 11.5939,236.164 12.9272,236.164 14.5,238.5 Z"/>
<path style="opacity:0.599" fill="#848587" d="M 73.5,228.5 C 73.1832,232.702 73.5166,236.702 74.5,240.5C 74.5,244.833 74.5,249.167 74.5,253.5C 73.441,255.726 73.6077,258.059 75,260.5C 75.4828,259.552 75.6495,258.552 75.5,257.5C 77.4111,261.67 79.0778,266.003 80.5,270.5C 79.3143,271.705 79.3143,273.039 80.5,274.5C 79.8333,274.5 79.5,274.833 79.5,275.5C 78.678,273.611 77.8447,271.611 77,269.5C 76.5172,270.448 76.3505,271.448 76.5,272.5C 71.526,258.078 70.526,243.411 73.5,228.5 Z"/>
<path style="opacity:1" fill="#b4b4b6" d="M 102.5,246.5 C 103.117,246.611 103.617,246.944 104,247.5C 104.495,249.473 104.662,251.473 104.5,253.5C 103.566,254.568 103.232,255.901 103.5,257.5C 102.833,256.833 102.167,256.167 101.5,255.5C 101.626,253.8 102.293,252.3 103.5,251C 102.852,249.56 102.519,248.06 102.5,246.5 Z"/>
<path style="opacity:0.749" fill="#202123" d="M 74.5,253.5 C 74.8333,254.833 75.1667,256.167 75.5,257.5C 75.6495,258.552 75.4828,259.552 75,260.5C 73.6077,258.059 73.441,255.726 74.5,253.5 Z"/>
<path style="opacity:1" fill="#6b6b6e" d="M 104.5,253.5 C 105.336,260.19 106.336,266.856 107.5,273.5C 106.833,273.5 106.5,273.833 106.5,274.5C 105.235,269.007 104.235,263.34 103.5,257.5C 103.232,255.901 103.566,254.568 104.5,253.5 Z"/>
<path style="opacity:0.514" fill="#707073" d="M 118.5,219.5 C 119.404,220.209 119.737,221.209 119.5,222.5C 118.705,235.568 117.205,248.568 115,261.5C 113.298,268.765 111.131,275.765 108.5,282.5C 108.567,281.041 108.234,279.708 107.5,278.5C 109.554,274.125 111.054,269.459 112,264.5C 113.666,254.176 115.166,243.843 116.5,233.5C 117.485,229.366 117.818,225.032 117.5,220.5C 118.167,220.5 118.5,220.167 118.5,219.5 Z"/>
<path style="opacity:0.976" fill="#75777a" d="M 170.5,228.5 C 173.318,242.544 172.651,256.544 168.5,270.5C 167.778,270.918 167.278,271.584 167,272.5C 166.833,272 166.667,271.5 166.5,271C 167.409,269.211 167.576,267.377 167,265.5C 165.925,268.894 164.758,272.228 163.5,275.5C 162.533,278.434 161.2,281.1 159.5,283.5C 159.5,282.833 159.167,282.5 158.5,282.5C 161.765,275.203 164.932,267.869 168,260.5C 169.288,253.563 169.788,246.563 169.5,239.5C 170.482,236.038 170.815,232.371 170.5,228.5 Z"/>
<path style="opacity:0.98" fill="#707173" d="M 79.5,275.5 C 80.6547,282.149 80.6547,288.816 79.5,295.5C 78.5233,292.713 78.19,289.713 78.5,286.5C 77.6709,281.869 77.0042,277.202 76.5,272.5C 76.3505,271.448 76.5172,270.448 77,269.5C 77.8447,271.611 78.678,273.611 79.5,275.5 Z"/>
<path style="opacity:1" fill="#c0c1c3" d="M 168.5,270.5 C 168.198,273.373 167.531,276.039 166.5,278.5C 166.66,276.801 166.494,275.134 166,273.5C 165.768,274.737 165.268,275.737 164.5,276.5C 164.5,275.833 164.167,275.5 163.5,275.5C 164.758,272.228 165.925,268.894 167,265.5C 167.576,267.377 167.409,269.211 166.5,271C 166.667,271.5 166.833,272 167,272.5C 167.278,271.584 167.778,270.918 168.5,270.5 Z"/>
<path style="opacity:0.827" fill="#343537" d="M 107.5,273.5 C 107.5,275.167 107.5,276.833 107.5,278.5C 108.234,279.708 108.567,281.041 108.5,282.5C 107.683,284.969 107.183,287.635 107,290.5C 106.617,289.944 106.117,289.611 105.5,289.5C 103.973,289.573 102.973,288.906 102.5,287.5C 103.833,287.5 105.167,287.5 106.5,287.5C 106.5,283.167 106.5,278.833 106.5,274.5C 106.5,273.833 106.833,273.5 107.5,273.5 Z"/>
<path style="opacity:1" fill="#eeeff0" d="M 80.5,274.5 C 81.4202,277.508 82.7535,280.341 84.5,283C 86.3668,283.711 87.8668,283.211 89,281.5C 89.9734,279.608 90.6401,277.608 91,275.5C 93.048,281.378 96.8813,285.378 102.5,287.5C 102.973,288.906 103.973,289.573 105.5,289.5C 105.442,294.394 104.442,299.061 102.5,303.5C 102.475,306.179 101.142,307.512 98.5,307.5C 98.6657,303.154 98.499,298.821 98,294.5C 97.6667,297.833 97.3333,301.167 97,304.5C 96.6121,305.428 95.9454,306.095 95,306.5C 91.8533,303.607 88.6866,300.607 85.5,297.5C 86.8897,295.831 87.2231,294.164 86.5,292.5C 84.73,296.37 82.23,299.703 79,302.5C 78.5172,301.552 78.3505,300.552 78.5,299.5C 79.4345,298.432 79.7678,297.099 79.5,295.5C 80.6547,288.816 80.6547,282.149 79.5,275.5C 79.5,274.833 79.8333,274.5 80.5,274.5 Z"/>
<path style="opacity:1" fill="#eff0f2" d="M 163.5,275.5 C 164.167,275.5 164.5,275.833 164.5,276.5C 164.036,279.136 163.703,281.803 163.5,284.5C 164.336,290.511 164.836,296.511 165,302.5C 161.764,299.781 159.431,296.447 158,292.5C 157.405,293.899 157.572,295.232 158.5,296.5C 157.807,297.518 157.141,298.518 156.5,299.5C 155.31,301.355 153.977,303.188 152.5,305C 150.321,306.987 148.488,306.82 147,304.5C 146.667,301.167 146.333,297.833 146,294.5C 145.667,298.5 145.333,302.5 145,306.5C 144.586,306.957 144.086,307.291 143.5,307.5C 140.261,301.815 138.927,295.815 139.5,289.5C 145.113,286.887 149.446,282.887 152.5,277.5C 153.752,279.001 154.752,280.668 155.5,282.5C 156.689,283.429 158.022,283.762 159.5,283.5C 161.2,281.1 162.533,278.434 163.5,275.5 Z"/>
<path style="opacity:0.741" fill="#a2a2a5" d="M 78.5,286.5 C 78.19,289.713 78.5233,292.713 79.5,295.5C 79.7678,297.099 79.4345,298.432 78.5,299.5C 78.631,298.761 78.4643,298.094 78,297.5C 77.8138,300.036 77.3138,302.369 76.5,304.5C 76.6516,298.301 77.3182,292.301 78.5,286.5 Z"/>
<path style="opacity:0.925" fill="#86878a" d="M 108.5,282.5 C 109.174,290.792 107.507,298.458 103.5,305.5C 103.672,304.508 103.338,303.842 102.5,303.5C 104.442,299.061 105.442,294.394 105.5,289.5C 106.117,289.611 106.617,289.944 107,290.5C 107.183,287.635 107.683,284.969 108.5,282.5 Z"/>
<path style="opacity:0.278" fill="#b8b8ba" d="M 166.5,294.5 C 167.521,298.98 168.187,303.647 168.5,308.5C 166.789,304.119 166.123,299.453 166.5,294.5 Z"/>
<path style="opacity:0.875" fill="#4c4c4e" d="M 102.5,303.5 C 103.338,303.842 103.672,304.508 103.5,305.5C 103.774,310.263 103.441,314.93 102.5,319.5C 101.691,317.708 101.191,315.708 101,313.5C 100.283,314.044 99.7828,314.711 99.5,315.5C 98.1049,319.29 96.4383,322.957 94.5,326.5C 94.1667,326.5 93.8333,326.5 93.5,326.5C 95.2884,320.924 97.6218,315.59 100.5,310.5C 100.291,309.914 99.9574,309.414 99.5,309C 96.7679,308.587 94.1013,307.92 91.5,307C 89.8989,303.933 87.7322,301.433 85,299.5C 79.7643,301.882 77.2643,305.882 77.5,311.5C 76.7784,311.918 76.2784,312.584 76,313.5C 75.5065,311.866 75.3398,310.199 75.5,308.5C 75.2322,306.901 75.5655,305.568 76.5,304.5C 77.3138,302.369 77.8138,300.036 78,297.5C 78.4643,298.094 78.631,298.761 78.5,299.5C 78.3505,300.552 78.5172,301.552 79,302.5C 82.23,299.703 84.73,296.37 86.5,292.5C 87.2231,294.164 86.8897,295.831 85.5,297.5C 88.6866,300.607 91.8533,303.607 95,306.5C 95.9454,306.095 96.6121,305.428 97,304.5C 97.3333,301.167 97.6667,297.833 98,294.5C 98.499,298.821 98.6657,303.154 98.5,307.5C 101.142,307.512 102.475,306.179 102.5,303.5 Z"/>
<path style="opacity:0.871" fill="#5b5c5e" d="M 166.5,278.5 C 166.5,283.833 166.5,289.167 166.5,294.5C 166.123,299.453 166.789,304.119 168.5,308.5C 169.461,310.265 169.795,312.265 169.5,314.5C 169.657,315.873 169.49,317.207 169,318.5C 168.667,318.167 168.333,317.833 168,317.5C 167.5,323.825 167.334,330.158 167.5,336.5C 167.5,339.167 167.5,341.833 167.5,344.5C 166.539,342.735 166.205,340.735 166.5,338.5C 166.667,327.828 166.5,317.161 166,306.5C 164.047,301.962 160.88,299.962 156.5,300.5C 156.5,300.167 156.5,299.833 156.5,299.5C 157.141,298.518 157.807,297.518 158.5,296.5C 157.572,295.232 157.405,293.899 158,292.5C 159.431,296.447 161.764,299.781 165,302.5C 164.836,296.511 164.336,290.511 163.5,284.5C 163.703,281.803 164.036,279.136 164.5,276.5C 165.268,275.737 165.768,274.737 166,273.5C 166.494,275.134 166.66,276.801 166.5,278.5 Z"/>
<path style="opacity:1" fill="#f1f1f3" d="M 166.5,338.5 C 164.806,352.486 162.306,366.486 159,380.5C 158.605,368.817 157.939,357.151 157,345.5C 155.435,339.642 153.602,333.976 151.5,328.5C 149.401,322.297 146.734,316.297 143.5,310.5C 143.863,309.817 144.196,309.15 144.5,308.5C 150.896,309.309 154.896,306.642 156.5,300.5C 160.88,299.962 164.047,301.962 166,306.5C 166.5,317.161 166.667,327.828 166.5,338.5 Z"/>
<path style="opacity:1" fill="#eff0f2" d="M 93.5,326.5 C 91.2554,329.754 89.7554,333.42 89,337.5C 87.1879,344.726 86.3545,352.059 86.5,359.5C 85.8333,365.5 85.1667,371.5 84.5,377.5C 83.2433,370.066 81.5767,362.732 79.5,355.5C 77.813,340.894 77.1463,326.227 77.5,311.5C 77.2643,305.882 79.7643,301.882 85,299.5C 87.7322,301.433 89.8989,303.933 91.5,307C 94.1013,307.92 96.7679,308.587 99.5,309C 99.9574,309.414 100.291,309.914 100.5,310.5C 97.6218,315.59 95.2884,320.924 93.5,326.5 Z"/>
<path style="opacity:0.996" fill="#97999a" d="M 102.5,319.5 C 102.817,323.702 102.483,327.702 101.5,331.5C 101.81,328.287 101.477,325.287 100.5,322.5C 100.802,319.941 100.468,317.607 99.5,315.5C 99.7828,314.711 100.283,314.044 101,313.5C 101.191,315.708 101.691,317.708 102.5,319.5 Z"/>
<path style="opacity:1" fill="#424244" d="M 144.5,308.5 C 144.196,309.15 143.863,309.817 143.5,310.5C 146.734,316.297 149.401,322.297 151.5,328.5C 151.672,329.492 151.338,330.158 150.5,330.5C 149.182,324.858 147.015,319.525 144,314.5C 143.7,320.504 143.866,326.504 144.5,332.5C 144.657,333.873 144.49,335.207 144,336.5C 143.814,333.964 143.314,331.631 142.5,329.5C 142.5,328.833 142.5,328.167 142.5,327.5C 141.877,320.745 142.544,314.412 144.5,308.5 Z"/>
<path style="opacity:0.624" fill="#606264" d="M 170.5,319.5 C 171.785,322.589 172.451,325.922 172.5,329.5C 172.784,331.415 172.451,333.081 171.5,334.5C 170.704,329.853 170.037,325.186 169.5,320.5C 169.5,319.833 169.833,319.5 170.5,319.5 Z"/>
<path style="opacity:1" fill="#a5a6a8" d="M 169.5,314.5 C 170.451,315.919 170.784,317.585 170.5,319.5C 169.833,319.5 169.5,319.833 169.5,320.5C 168.833,325.833 168.167,331.167 167.5,336.5C 167.334,330.158 167.5,323.825 168,317.5C 168.333,317.833 168.667,318.167 169,318.5C 169.49,317.207 169.657,315.873 169.5,314.5 Z"/>
<path style="opacity:1" fill="#5e5f61" d="M 93.5,326.5 C 93.8333,326.5 94.1667,326.5 94.5,326.5C 89.6401,340.361 87.3068,354.694 87.5,369.5C 86.5206,366.375 86.1872,363.042 86.5,359.5C 86.3545,352.059 87.1879,344.726 89,337.5C 89.7554,333.42 91.2554,329.754 93.5,326.5 Z"/>
<path style="opacity:1" fill="#6b6c6e" d="M 75.5,308.5 C 75.3398,310.199 75.5065,311.866 76,313.5C 76.2784,312.584 76.7784,311.918 77.5,311.5C 77.1463,326.227 77.813,340.894 79.5,355.5C 78.6618,355.842 78.3284,356.508 78.5,357.5C 76.8769,343.705 76.0436,329.705 76,315.5C 74.781,322.363 73.281,329.03 71.5,335.5C 70.7227,336.882 70.056,338.882 69.5,341.5C 70.7371,330.248 72.7371,319.248 75.5,308.5 Z"/>
<path style="opacity:0.416" fill="#a6a7a9" d="M 142.5,329.5 C 143.314,331.631 143.814,333.964 144,336.5C 144.49,335.207 144.657,333.873 144.5,332.5C 145.451,333.919 145.784,335.585 145.5,337.5C 144.539,339.265 144.205,341.265 144.5,343.5C 143.028,339.081 142.362,334.414 142.5,329.5 Z"/>

<g id ="Calves">
    calf<path style="opacity:1" fill="#efeff1" d="M 150.5,330.5 C 155.79,343.487 157.457,356.82 155.5,370.5C 155.5,370.167 155.5,369.833 155.5,369.5C 154.397,365.503 152.731,361.836 150.5,358.5C 148.052,351.706 146.385,344.706 145.5,337.5C 145.784,335.585 145.451,333.919 144.5,332.5C 143.866,326.504 143.7,320.504 144,314.5C 147.015,319.525 149.182,324.858 150.5,330.5 Z"/>
    calf<path style="opacity:1" fill="#eff0f2" d="M 99.5,315.5 C 100.468,317.607 100.802,319.941 100.5,322.5C 99.3054,339.612 95.1387,355.946 88,371.5C 87.5357,370.906 87.369,370.239 87.5,369.5C 87.3068,354.694 89.6401,340.361 94.5,326.5C 96.4383,322.957 98.1049,319.29 99.5,315.5 Z"/>

</g>

<path style="opacity:0.773" fill="#515254" d="M 173.5,335.5 C 174.796,342.82 174.796,350.154 173.5,357.5C 172.71,358.609 172.21,359.942 172,361.5C 171.536,360.906 171.369,360.239 171.5,359.5C 171.5,358.5 171.5,357.5 171.5,356.5C 172.167,349.5 172.833,342.5 173.5,335.5 Z"/>
<path style="opacity:1" fill="#6c6c6e" d="M 151.5,328.5 C 153.602,333.976 155.435,339.642 157,345.5C 157.939,357.151 158.605,368.817 159,380.5C 162.306,366.486 164.806,352.486 166.5,338.5C 166.205,340.735 166.539,342.735 167.5,344.5C 165.298,357.513 162.964,370.513 160.5,383.5C 159.5,383.5 158.5,383.5 157.5,383.5C 157.784,385.415 157.451,387.081 156.5,388.5C 156.746,382.441 156.413,376.441 155.5,370.5C 157.457,356.82 155.79,343.487 150.5,330.5C 151.338,330.158 151.672,329.492 151.5,328.5 Z"/>
<path style="opacity:1" fill="#a3a5a7" d="M 172.5,329.5 C 173.461,331.265 173.795,333.265 173.5,335.5C 172.833,342.5 172.167,349.5 171.5,356.5C 171.5,349.167 171.5,341.833 171.5,334.5C 172.451,333.081 172.784,331.415 172.5,329.5 Z"/>
<path style="opacity:0.941" fill="#4a4a4c" d="M 71.5,335.5 C 71.5,340.833 71.5,346.167 71.5,351.5C 71.631,352.239 71.4643,352.906 71,353.5C 70.7216,352.584 70.2216,351.918 69.5,351.5C 69.0164,348.049 69.0164,344.716 69.5,341.5C 70.056,338.882 70.7227,336.882 71.5,335.5 Z"/>
<path style="opacity:0.827" fill="#77797b" d="M 100.5,322.5 C 101.477,325.287 101.81,328.287 101.5,331.5C 101.515,335.56 101.015,339.56 100,343.5C 97.0619,353.648 93.7286,363.648 90,373.5C 89.1535,382.815 89.9869,391.982 92.5,401C 92.0463,403.03 91.3796,404.863 90.5,406.5C 90.7373,405.209 90.404,404.209 89.5,403.5C 89.5698,398.391 88.9031,393.391 87.5,388.5C 87.5,386.5 87.5,384.5 87.5,382.5C 85.901,382.768 84.5676,382.434 83.5,381.5C 84.5,381.5 85.5,381.5 86.5,381.5C 86.4621,379.364 85.7954,378.031 84.5,377.5C 85.1667,371.5 85.8333,365.5 86.5,359.5C 86.1872,363.042 86.5206,366.375 87.5,369.5C 87.369,370.239 87.5357,370.906 88,371.5C 95.1387,355.946 99.3054,339.612 100.5,322.5 Z"/>
<path style="opacity:0.845" fill="#5c5d5f" d="M 145.5,337.5 C 146.385,344.706 148.052,351.706 150.5,358.5C 150.5,359.167 150.167,359.5 149.5,359.5C 146.654,354.624 144.987,349.291 144.5,343.5C 144.205,341.265 144.539,339.265 145.5,337.5 Z"/>
<path style="opacity:0.933" fill="#717375" d="M 69.5,351.5 C 70.2216,351.918 70.7216,352.584 71,353.5C 71.4643,352.906 71.631,352.239 71.5,351.5C 74.1181,361.931 76.1181,372.598 77.5,383.5C 76.8333,384.833 76.1667,386.167 75.5,387.5C 74.1446,375.39 72.1446,363.39 69.5,351.5 Z"/>
<path style="opacity:0.561" fill="#8a8c8e" d="M 173.5,357.5 C 173.354,361.387 172.687,365.054 171.5,368.5C 171.784,366.585 171.451,364.919 170.5,363.5C 170.232,361.901 170.566,360.568 171.5,359.5C 171.369,360.239 171.536,360.906 172,361.5C 172.21,359.942 172.71,358.609 173.5,357.5 Z"/>
<path style="opacity:0.561" fill="#8a8c8e" d="M 173.5,357.5 C 173.354,361.387 172.687,365.054 171.5,368.5C 171.784,366.585 171.451,364.919 170.5,363.5C 170.232,361.901 170.566,360.568 171.5,359.5C 171.369,360.239 171.536,360.906 172,361.5C 172.21,359.942 172.71,358.609 173.5,357.5 Z"/>
<path style="opacity:0.918" fill="#808083" d="M 150.5,358.5 C 152.731,361.836 154.397,365.503 155.5,369.5C 154.566,370.568 154.232,371.901 154.5,373.5C 152.846,368.874 151.179,364.207 149.5,359.5C 150.167,359.5 150.5,359.167 150.5,358.5 Z"/>
<path style="opacity:0.529" fill="#3d4041" d="M 170.5,363.5 C 171.451,364.919 171.784,366.585 171.5,368.5C 171.5,368.833 171.5,369.167 171.5,369.5C 170.732,370.263 170.232,371.263 170,372.5C 169.517,371.552 169.351,370.552 169.5,369.5C 169.517,367.435 169.85,365.435 170.5,363.5 Z"/>
<path style="opacity:1" fill="#4f5052" d="M 79.5,355.5 C 81.5767,362.732 83.2433,370.066 84.5,377.5C 85.7954,378.031 86.4621,379.364 86.5,381.5C 85.5,381.5 84.5,381.5 83.5,381.5C 82.4653,373.362 80.7986,365.362 78.5,357.5C 78.3284,356.508 78.6618,355.842 79.5,355.5 Z"/>
<path style="opacity:0.822" fill="#595a5d" d="M 155.5,369.5 C 155.5,369.833 155.5,370.167 155.5,370.5C 156.413,376.441 156.746,382.441 156.5,388.5C 156.313,390.564 155.813,392.564 155,394.5C 154.51,393.207 154.343,391.873 154.5,390.5C 154.5,384.833 154.5,379.167 154.5,373.5C 154.232,371.901 154.566,370.568 155.5,369.5 Z"/>
<path style="opacity:0.859" fill="#636466" d="M 169.5,369.5 C 169.351,370.552 169.517,371.552 170,372.5C 170.232,371.263 170.732,370.263 171.5,369.5C 170.356,375.185 169.356,380.685 168.5,386C 171.53,392.591 173.864,399.424 175.5,406.5C 174.833,405.833 174.167,405.167 173.5,404.5C 171.873,401.37 170.54,398.037 169.5,394.5C 167.755,391.815 166.755,388.815 166.5,385.5C 167.013,379.943 168.013,374.609 169.5,369.5 Z"/>
<path style="opacity:0.988" fill="#3b3c3e" d="M 77.5,383.5 C 77.8076,385.924 77.4742,388.257 76.5,390.5C 74.9617,392.243 73.9617,394.243 73.5,396.5C 72.6618,396.158 72.3284,395.492 72.5,394.5C 72.9348,391.843 73.9348,389.509 75.5,387.5C 76.1667,386.167 76.8333,384.833 77.5,383.5 Z"/>
<path style="opacity:0.988" fill="#3b3c3e" d="M 77.5,383.5 C 77.8076,385.924 77.4742,388.257 76.5,390.5C 74.9617,392.243 73.9617,394.243 73.5,396.5C 72.6618,396.158 72.3284,395.492 72.5,394.5C 72.9348,391.843 73.9348,389.509 75.5,387.5C 76.1667,386.167 76.8333,384.833 77.5,383.5 Z"/>
<path style="opacity:1" fill="#efeff1" d="M 78.5,357.5 C 80.7986,365.362 82.4653,373.362 83.5,381.5C 84.5676,382.434 85.901,382.768 87.5,382.5C 87.5,384.5 87.5,386.5 87.5,388.5C 86.3556,390.1 85.1889,391.767 84,393.5C 83.0853,392.672 82.4186,391.672 82,390.5C 82.5697,392.693 82.2363,394.693 81,396.5C 80.5724,391.502 79.7391,391.335 78.5,396C 78.8333,396.333 79.1667,396.667 79.5,397C 77.6951,398.441 75.6951,398.608 73.5,397.5C 73.5,397.167 73.5,396.833 73.5,396.5C 73.9617,394.243 74.9617,392.243 76.5,390.5C 77.4742,388.257 77.8076,385.924 77.5,383.5C 76.1181,372.598 74.1181,361.931 71.5,351.5C 71.5,346.167 71.5,340.833 71.5,335.5C 73.281,329.03 74.781,322.363 76,315.5C 76.0436,329.705 76.8769,343.705 78.5,357.5 Z"/>
<path style="opacity:1" fill="#eeeff1" d="M 169.5,320.5 C 170.037,325.186 170.704,329.853 171.5,334.5C 171.5,341.833 171.5,349.167 171.5,356.5C 171.5,357.5 171.5,358.5 171.5,359.5C 170.566,360.568 170.232,361.901 170.5,363.5C 169.85,365.435 169.517,367.435 169.5,369.5C 168.013,374.609 167.013,379.943 166.5,385.5C 166.755,388.815 167.755,391.815 169.5,394.5C 166.833,393.833 164.167,393.167 161.5,392.5C 162.167,395.833 162.833,399.167 163.5,402.5C 164.552,402.351 165.552,402.517 166.5,403C 165.684,404.923 165.017,406.923 164.5,409C 162.383,410.313 160.883,412.147 160,414.5C 158.992,409.459 158.492,409.792 158.5,415.5C 156.749,408.961 155.249,402.295 154,395.5C 153.722,396.416 153.222,397.082 152.5,397.5C 152.721,394.933 153.388,392.599 154.5,390.5C 154.343,391.873 154.51,393.207 155,394.5C 155.813,392.564 156.313,390.564 156.5,388.5C 157.451,387.081 157.784,385.415 157.5,383.5C 158.5,383.5 159.5,383.5 160.5,383.5C 162.964,370.513 165.298,357.513 167.5,344.5C 167.5,341.833 167.5,339.167 167.5,336.5C 168.167,331.167 168.833,325.833 169.5,320.5 Z"/>
<path style="opacity:0.529" fill="#707174" d="M 72.5,394.5 C 72.3284,395.492 72.6618,396.158 73.5,396.5C 73.5,396.833 73.5,397.167 73.5,397.5C 73.573,399.027 72.9063,400.027 71.5,400.5C 70.8333,400.833 70.1667,401.167 69.5,401.5C 69.9348,398.843 70.9348,396.509 72.5,394.5 Z"/>
<path style="opacity:0.725" fill="#2e2f31" d="M 173.5,404.5 C 174.167,405.167 174.833,405.833 175.5,406.5C 175.5,407.167 175.5,407.833 175.5,408.5C 173.896,407.713 173.229,406.38 173.5,404.5 Z"/>
<path style="opacity:0.278" fill="#c7c9cc" d="M 90.5,406.5 C 90.1249,408.698 89.4582,410.698 88.5,412.5C 88.0535,409.99 88.7202,407.99 90.5,406.5 Z"/>
<path style="opacity:0.188" fill="#bbbcbd" d="M 175.5,406.5 C 176.906,406.973 177.573,407.973 177.5,409.5C 176.833,409.167 176.167,408.833 175.5,408.5C 175.5,407.833 175.5,407.167 175.5,406.5 Z"/>
<path style="opacity:0.231" fill="#c4c5c8" d="M 154.5,407.5 C 156.265,410.123 156.932,413.123 156.5,416.5C 155.525,413.689 154.858,410.689 154.5,407.5 Z"/>
<path style="opacity:0.173" fill="#c1c2c2" d="M 177.5,409.5 C 178.906,409.973 179.573,410.973 179.5,412.5C 178.094,412.027 177.427,411.027 177.5,409.5 Z"/>
<path style="opacity:1" fill="#f1f2f4" d="M 87.5,388.5 C 88.9031,393.391 89.5698,398.391 89.5,403.5C 87.5626,409.95 85.2292,416.284 82.5,422.5C 82.1667,422.5 81.8333,422.5 81.5,422.5C 75.5057,422.849 69.6724,422.182 64,420.5C 63.3417,416.454 64.675,413.121 68,410.5C 70.0347,407.439 71.2014,404.105 71.5,400.5C 72.9063,400.027 73.573,399.027 73.5,397.5C 75.6951,398.608 77.6951,398.441 79.5,397C 79.1667,396.667 78.8333,396.333 78.5,396C 79.7391,391.335 80.5724,391.502 81,396.5C 82.2363,394.693 82.5697,392.693 82,390.5C 82.4186,391.672 83.0853,392.672 84,393.5C 85.1889,391.767 86.3556,390.1 87.5,388.5 Z"/>
<path style="opacity:1" fill="#f1f2f5" d="M 169.5,394.5 C 170.54,398.037 171.873,401.37 173.5,404.5C 173.229,406.38 173.896,407.713 175.5,408.5C 177.148,411.823 178.815,415.156 180.5,418.5C 179.927,421.085 178.261,422.085 175.5,421.5C 172.941,421.198 170.607,421.532 168.5,422.5C 162.357,424.01 159.024,421.677 158.5,415.5C 158.492,409.792 158.992,409.459 160,414.5C 160.883,412.147 162.383,410.313 164.5,409C 165.017,406.923 165.684,404.923 166.5,403C 165.552,402.517 164.552,402.351 163.5,402.5C 162.833,399.167 162.167,395.833 161.5,392.5C 164.167,393.167 166.833,393.833 169.5,394.5 Z"/>
<path style="opacity:0.545" fill="#5b5b5e" d="M 175.5,408.5 C 176.167,408.833 176.833,409.167 177.5,409.5C 177.427,411.027 178.094,412.027 179.5,412.5C 181.32,414.129 182.653,416.129 183.5,418.5C 183.246,420.417 182.246,421.751 180.5,422.5C 178.585,422.784 176.919,422.451 175.5,421.5C 178.261,422.085 179.927,421.085 180.5,418.5C 178.815,415.156 177.148,411.823 175.5,408.5 Z"/>
<path style="opacity:0.718" fill="#56575b" d="M 89.5,403.5 C 90.404,404.209 90.7373,405.209 90.5,406.5C 88.7202,407.99 88.0535,409.99 88.5,412.5C 88.7592,417.41 87.0925,421.41 83.5,424.5C 83.6716,423.508 83.3382,422.842 82.5,422.5C 85.2292,416.284 87.5626,409.95 89.5,403.5 Z"/>
<path style="opacity:1" fill="#828287" d="M 168.5,422.5 C 170.607,421.532 172.941,421.198 175.5,421.5C 176.919,422.451 178.585,422.784 180.5,422.5C 176.733,423.795 172.733,424.461 168.5,424.5C 169.609,423.71 170.942,423.21 172.5,423C 171.207,422.51 169.873,422.343 168.5,422.5 Z"/>
<path style="opacity:0.973" fill="#484a4d" d="M 158.5,415.5 C 159.024,421.677 162.357,424.01 168.5,422.5C 169.873,422.343 171.207,422.51 172.5,423C 170.942,423.21 169.609,423.71 168.5,424.5C 161.681,425.773 157.681,423.106 156.5,416.5C 156.932,413.123 156.265,410.123 154.5,407.5C 153.778,407.082 153.278,406.416 153,405.5C 152.503,402.854 152.336,400.187 152.5,397.5C 153.222,397.082 153.722,396.416 154,395.5C 155.249,402.295 156.749,408.961 158.5,415.5 Z"/>
<path style="opacity:0.71" fill="#4c4d4f" d="M 71.5,400.5 C 71.2014,404.105 70.0347,407.439 68,410.5C 64.675,413.121 63.3417,416.454 64,420.5C 69.6724,422.182 75.5057,422.849 81.5,422.5C 78.6946,423.319 75.6946,423.819 72.5,424C 75.8168,424.498 79.1501,424.665 82.5,424.5C 78.6888,425.645 74.6888,425.812 70.5,425C 63.1464,424.991 60.313,421.491 62,414.5C 65.5362,410.761 68.0362,406.427 69.5,401.5C 70.1667,401.167 70.8333,400.833 71.5,400.5 Z"/>
<path style="opacity:0.941" fill="#0f0f11" d="M 81.5,422.5 C 81.8333,422.5 82.1667,422.5 82.5,422.5C 83.3382,422.842 83.6716,423.508 83.5,424.5C 83.1667,424.5 82.8333,424.5 82.5,424.5C 79.1501,424.665 75.8168,424.498 72.5,424C 75.6946,423.819 78.6946,423.319 81.5,422.5 Z"/>
</svg>
