<?xml version="1.0" encoding="UTF-8"?>
<!DOCTYPE svg PUBLIC "-//W3C//DTD SVG 1.1//EN" "http://www.w3.org/Graphics/SVG/1.1/DTD/svg11.dtd">
<svg xmlns="http://www.w3.org/2000/svg" version="1.1" width="246px" height="428px" style="shape-rendering:geometricPrecision; text-rendering:geometricPrecision; image-rendering:optimizeQuality; fill-rule:evenodd; clip-rule:evenodd" xmlns:xlink="http://www.w3.org/1999/xlink">
<path style="opacity:0.996" fill="#5f6062" d="M 118.5,-0.5 C 121.167,-0.5 123.833,-0.5 126.5,-0.5C 130.42,0.462464 133.753,2.46246 136.5,5.5C 136.427,7.02694 137.094,8.02694 138.5,8.5C 139.793,9.84203 140.626,11.5087 141,13.5C 143.813,24.7474 142.647,35.414 137.5,45.5C 137.672,44.5084 137.338,43.8417 136.5,43.5C 137.622,41.9482 138.122,40.2816 138,38.5C 135.787,41.0946 133.953,43.9279 132.5,47C 133.044,48.585 133.711,50.085 134.5,51.5C 134.5,51.8333 134.5,52.1667 134.5,52.5C 133.035,51.5943 132.035,50.261 131.5,48.5C 130.311,47.5713 128.978,47.238 127.5,47.5C 127.5,47.1667 127.5,46.8333 127.5,46.5C 136.243,41.8334 140.243,34.3334 139.5,24C 139.327,5.16287 130.327,-1.17046 112.5,5C 110.291,6.87337 108.458,9.04003 107,11.5C 105.485,18.7675 105.152,26.1008 106,33.5C 108.029,37.5796 110.529,41.2463 113.5,44.5C 112.833,44.5 112.5,44.8333 112.5,45.5C 111.542,45.0472 110.708,44.3805 110,43.5C 109.506,45.1341 109.34,46.8008 109.5,48.5C 109.285,50.1788 109.952,51.1788 111.5,51.5C 110.557,54.1092 108.89,56.1092 106.5,57.5C 106.5,56.8333 106.5,56.1667 106.5,55.5C 107.117,55.3893 107.617,55.056 108,54.5C 108.805,51.3035 108.638,48.3035 107.5,45.5C 101.492,33.475 100.992,21.1416 106,8.5C 109.346,4.10243 113.512,1.10243 118.5,-0.5 Z"/>
<path style="opacity:1" fill="#f1f2f4" d="M 127.5,46.5 C 122.533,47.038 117.866,46.3713 113.5,44.5C 110.529,41.2463 108.029,37.5796 106,33.5C 105.152,26.1008 105.485,18.7675 107,11.5C 108.458,9.04003 110.291,6.87337 112.5,5C 130.327,-1.17046 139.327,5.16287 139.5,24C 140.243,34.3334 136.243,41.8334 127.5,46.5 Z"/>

<path style="opacity:0.176" fill="#b3b3b6" d="M 136.5,5.5 C 137.906,5.97306 138.573,6.97306 138.5,8.5C 137.094,8.02694 136.427,7.02694 136.5,5.5 Z"/>
<path style="opacity:1" fill="#dbdcde" d="M 136.5,43.5 C 135.833,46.1667 135.167,48.8333 134.5,51.5C 133.711,50.085 133.044,48.585 132.5,47C 133.953,43.9279 135.787,41.0946 138,38.5C 138.122,40.2816 137.622,41.9482 136.5,43.5 Z"/>
<path style="opacity:1" fill="#e1e1e3" d="M 112.5,45.5 C 112.769,47.4286 112.269,49.0953 111,50.5C 110.722,49.5842 110.222,48.9175 109.5,48.5C 109.34,46.8008 109.506,45.1341 110,43.5C 110.708,44.3805 111.542,45.0472 112.5,45.5 Z"/>
<path style="opacity:1" fill="#7a7a7c" d="M 112.5,45.5 C 113.74,46.6588 115.074,47.6588 116.5,48.5C 114.336,48.7215 112.67,49.7215 111.5,51.5C 109.952,51.1788 109.285,50.1788 109.5,48.5C 110.222,48.9175 110.722,49.5842 111,50.5C 112.269,49.0953 112.769,47.4286 112.5,45.5 Z"/>
<path style="opacity:1" fill="#272729" d="M 112.5,45.5 C 112.5,44.8333 112.833,44.5 113.5,44.5C 117.866,46.3713 122.533,47.038 127.5,46.5C 127.5,46.8333 127.5,47.1667 127.5,47.5C 126.041,47.4326 124.708,47.7659 123.5,48.5C 122.833,48.5 122.167,48.5 121.5,48.5C 119.833,48.5 118.167,48.5 116.5,48.5C 115.074,47.6588 113.74,46.6588 112.5,45.5 Z"/>

<g id="Traps">
    back<path style="opacity:1" fill="#efeff1" d="M 116.5,48.5 C 118.167,48.5 119.833,48.5 121.5,48.5C 121.789,52.1064 121.456,55.6064 120.5,59C 113.896,61.3203 107.229,62.9869 100.5,64C 102.706,61.9633 104.706,59.7966 106.5,57.5C 108.89,56.1092 110.557,54.1092 111.5,51.5C 112.67,49.7215 114.336,48.7215 116.5,48.5 Z"/>
    back<path style="opacity:1" fill="#eff0f2" d="M 127.5,47.5 C 128.978,47.238 130.311,47.5713 131.5,48.5C 132.035,50.261 133.035,51.5943 134.5,52.5C 134.738,54.4044 135.738,55.7377 137.5,56.5C 138.927,59.7636 141.261,62.2636 144.5,64C 144,64.1667 143.5,64.3333 143,64.5C 136.615,62.3148 130.115,60.6481 123.5,59.5C 123.5,55.8333 123.5,52.1667 123.5,48.5C 124.708,47.7659 126.041,47.4326 127.5,47.5 Z"/>
    back<path style="opacity:1" fill="#f2f2f4" d="M 146.5,66.5 C 147.478,66.811 148.145,67.4777 148.5,68.5C 145.006,73.1594 142.339,78.1594 140.5,83.5C 139.669,80.3271 139.669,77.3271 140.5,74.5C 139.412,70.6137 138.579,70.6137 138,74.5C 135.545,72.5718 135.378,70.7385 137.5,69C 136.874,68.2496 136.374,67.4162 136,66.5C 135.077,67.7588 134.243,69.0921 133.5,70.5C 131.632,70.9461 129.799,71.2795 128,71.5C 127.503,74.146 127.336,76.8127 127.5,79.5C 122.156,79.334 116.823,79.5006 111.5,80C 110.687,81.3139 109.687,82.4805 108.5,83.5C 109.313,84.8139 110.313,85.9805 111.5,87C 111.239,91.7395 111.239,96.4061 111.5,101C 111.056,102.762 110.556,102.595 110,100.5C 109.833,101 109.667,101.5 109.5,102C 111.04,104.083 112.04,106.416 112.5,109C 112.138,110.434 111.472,111.601 110.5,112.5C 105.995,106.675 104.329,100.008 105.5,92.5C 104.993,87.7774 104.16,83.1107 103,78.5C 100.535,74.5627 98.3678,70.5627 96.5,66.5C 96.8333,66.5 97.1667,66.5 97.5,66.5C 105.923,64.9154 114.256,62.9154 122.5,60.5C 130.463,62.7113 138.463,64.7113 146.5,66.5 Z"/>
    back<path style="opacity:1" fill="#f2f3f5" d="M 140.5,83.5 C 140.5,84.5 140.5,85.5 140.5,86.5C 139.566,87.5676 139.232,88.901 139.5,90.5C 139.5,91.1667 139.5,91.8333 139.5,92.5C 138.674,96.9819 138.174,101.649 138,106.5C 132.806,115.563 127.64,124.563 122.5,133.5C 118.262,126.698 114.262,119.698 110.5,112.5C 111.472,111.601 112.138,110.434 112.5,109C 112.04,106.416 111.04,104.083 109.5,102C 109.667,101.5 109.833,101 110,100.5C 110.556,102.595 111.056,102.762 111.5,101C 111.239,96.4061 111.239,91.7395 111.5,87C 110.313,85.9805 109.313,84.8139 108.5,83.5C 109.687,82.4805 110.687,81.3139 111.5,80C 116.823,79.5006 122.156,79.334 127.5,79.5C 127.336,76.8127 127.503,74.146 128,71.5C 129.799,71.2795 131.632,70.9461 133.5,70.5C 134.243,69.0921 135.077,67.7588 136,66.5C 136.374,67.4162 136.874,68.2496 137.5,69C 135.378,70.7385 135.545,72.5718 138,74.5C 138.579,70.6137 139.412,70.6137 140.5,74.5C 139.669,77.3271 139.669,80.3271 140.5,83.5 Z"/>
    back<path style="opacity:1" fill="#f1f1f3" d="M 104.5,95.5 C 104.808,97.924 104.474,100.257 103.5,102.5C 98.3656,105.069 93.0323,107.069 87.5,108.5C 84.8887,108.444 82.722,107.444 81,105.5C 79.2415,102.392 78.4081,99.059 78.5,95.5C 77.5531,90.7775 78.8864,86.9442 82.5,84C 88.8218,82.0083 93.6551,78.1749 97,72.5C 99.4416,75.0482 101.108,78.0482 102,81.5C 102.902,86.2943 103.735,90.961 104.5,95.5 Z"/>
    back<path style="opacity:1" fill="#f0f1f3" d="M 139.5,90.5 C 139.232,88.901 139.566,87.5676 140.5,86.5C 140.351,87.552 140.517,88.552 141,89.5C 141.783,83.1418 144.116,77.4751 148,72.5C 152.504,78.3354 158.171,82.6688 165,85.5C 166.827,91.4493 166.827,97.4493 165,103.5C 161.688,108.702 157.188,109.869 151.5,107C 148.029,104.928 144.362,103.428 140.5,102.5C 140.817,98.2984 140.483,94.2984 139.5,90.5 Z"/>

</g>

<path style="opacity:0.114" fill="#d3d5d6" d="M 107.5,45.5 C 108.638,48.3035 108.805,51.3035 108,54.5C 107.617,55.056 107.117,55.3893 106.5,55.5C 107.324,52.2356 107.658,48.9023 107.5,45.5 Z"/>
<path style="opacity:0.955" fill="#414244" d="M 136.5,43.5 C 137.338,43.8417 137.672,44.5084 137.5,45.5C 137.5,48.5 137.5,51.5 137.5,54.5C 137.5,55.1667 137.5,55.8333 137.5,56.5C 135.738,55.7377 134.738,54.4044 134.5,52.5C 134.5,52.1667 134.5,51.8333 134.5,51.5C 135.167,48.8333 135.833,46.1667 136.5,43.5 Z"/>
<path style="opacity:1" fill="#68686a" d="M 121.5,48.5 C 122.167,48.5 122.833,48.5 123.5,48.5C 123.5,52.1667 123.5,55.8333 123.5,59.5C 130.115,60.6481 136.615,62.3148 143,64.5C 143.5,64.3333 144,64.1667 144.5,64C 141.261,62.2636 138.927,59.7636 137.5,56.5C 137.5,55.8333 137.5,55.1667 137.5,54.5C 140.833,57.5 144.167,60.5 147.5,63.5C 146.596,64.209 146.263,65.209 146.5,66.5C 138.463,64.7113 130.463,62.7113 122.5,60.5C 114.256,62.9154 105.923,64.9154 97.5,66.5C 97.631,65.7611 97.4643,65.0944 97,64.5C 96.3292,65.2524 95.4959,65.5858 94.5,65.5C 94.5,65.1667 94.5,64.8333 94.5,64.5C 99.0657,62.2695 103.066,59.2695 106.5,55.5C 106.5,56.1667 106.5,56.8333 106.5,57.5C 104.706,59.7966 102.706,61.9633 100.5,64C 107.229,62.9869 113.896,61.3203 120.5,59C 121.456,55.6064 121.789,52.1064 121.5,48.5 Z"/>
<path style="opacity:0.337" fill="#b8babc" d="M 94.5,64.5 C 94.5,64.8333 94.5,65.1667 94.5,65.5C 90.2648,66.436 85.9315,66.7693 81.5,66.5C 85.6565,65.5511 89.9898,64.8844 94.5,64.5 Z"/>
<path style="opacity:0.898" fill="#222526" d="M 97.5,66.5 C 97.1667,66.5 96.8333,66.5 96.5,66.5C 95.6618,66.8417 95.3284,67.5084 95.5,68.5C 90.5452,67.2798 85.5452,67.2798 80.5,68.5C 79.7611,68.631 79.0944,68.4643 78.5,68C 79.7375,67.7679 80.7375,67.2679 81.5,66.5C 85.9315,66.7693 90.2648,66.436 94.5,65.5C 95.4959,65.5858 96.3292,65.2524 97,64.5C 97.4643,65.0944 97.631,65.7611 97.5,66.5 Z"/>
<path style="opacity:1" fill="#505052" d="M 96.5,66.5 C 98.3678,70.5627 100.535,74.5627 103,78.5C 104.16,83.1107 104.993,87.7774 105.5,92.5C 104.596,93.209 104.263,94.209 104.5,95.5C 103.735,90.961 102.902,86.2943 102,81.5C 101.108,78.0482 99.4416,75.0482 97,72.5C 93.6551,78.1749 88.8218,82.0083 82.5,84C 78.8864,86.9442 77.5531,90.7775 78.5,95.5C 78.1667,95.5 77.8333,95.5 77.5,95.5C 70.4675,96.1798 64.8008,99.1798 60.5,104.5C 60.1667,103.833 59.8333,103.167 59.5,102.5C 60.4916,102.672 61.1583,102.338 61.5,101.5C 65.3821,97.7228 70.0488,95.2228 75.5,94C 76.2066,91.4803 77.04,88.9803 78,86.5C 82.4906,82.9213 87.1573,79.5879 92,76.5C 93.1217,74.3762 94.6217,72.5429 96.5,71C 95.7476,70.3292 95.4142,69.4959 95.5,68.5C 95.3284,67.5084 95.6618,66.8417 96.5,66.5 Z"/>

<g id="Shoulders">
    shoulder<path style="opacity:1" fill="#f0f1f3" d="M 95.5,68.5 C 95.4142,69.4959 95.7476,70.3292 96.5,71C 94.6217,72.5429 93.1217,74.3762 92,76.5C 87.1573,79.5879 82.4906,82.9213 78,86.5C 77.04,88.9803 76.2066,91.4803 75.5,94C 70.0488,95.2228 65.3821,97.7228 61.5,101.5C 60.5166,97.7016 60.1832,93.7016 60.5,89.5C 60.5,88.5 60.5,87.5 60.5,86.5C 63.6492,76.6881 70.3159,70.6881 80.5,68.5C 85.5452,67.2798 90.5452,67.2798 95.5,68.5 Z"/>
    shoulder<path style="opacity:1" fill="#f0f0f2" d="M 150.5,67.5 C 161.56,66.7199 171.394,69.7199 180,76.5C 185.137,84.4227 186.803,93.0894 185,102.5C 181.118,97.3085 175.952,94.3085 169.5,93.5C 168.772,90.7875 167.939,88.1209 167,85.5C 163.919,82.7069 160.419,80.5403 156.5,79C 153.833,76.3333 151.167,73.6667 148.5,71C 149.823,70.1841 150.489,69.0174 150.5,67.5 Z"/>

</g>

<path style="opacity:0.737" fill="#727376" d="M 81.5,66.5 C 80.7375,67.2679 79.7375,67.7679 78.5,68C 79.0944,68.4643 79.7611,68.631 80.5,68.5C 70.3159,70.6881 63.6492,76.6881 60.5,86.5C 60.5654,86.0618 60.3988,85.7284 60,85.5C 59.7679,86.7375 59.2679,87.7375 58.5,88.5C 60.8601,75.8096 68.5268,68.4763 81.5,66.5 Z"/>
<path style="opacity:1" fill="#4f5052" d="M 147.5,63.5 C 157.212,64.0627 166.545,66.2294 175.5,70C 180.445,72.9456 183.945,77.1122 186,82.5C 187.164,90.7825 187.831,99.1158 188,107.5C 192.342,115.358 195.175,123.692 196.5,132.5C 196.633,135.925 195.967,136.258 194.5,133.5C 192.905,122.315 189.072,111.982 183,102.5C 178.907,98.5588 174.073,96.2255 168.5,95.5C 167.99,98.5394 167.323,101.539 166.5,104.5C 164.563,119.843 168.896,133.343 179.5,145C 181.387,145.78 183.054,145.613 184.5,144.5C 185.167,143.167 185.833,141.833 186.5,140.5C 186.975,143.082 186.308,145.082 184.5,146.5C 183.167,146.5 181.833,146.5 180.5,146.5C 180.784,148.415 180.451,150.081 179.5,151.5C 178.852,149.914 178.352,148.247 178,146.5C 171.831,139.163 167.498,130.83 165,121.5C 164.488,126.904 163.655,132.238 162.5,137.5C 161.596,136.791 161.263,135.791 161.5,134.5C 162.202,125.435 163.036,116.435 164,107.5C 157.067,110.544 150.567,109.71 144.5,105C 142.866,104.506 141.199,104.34 139.5,104.5C 139.5,100.5 139.5,96.5 139.5,92.5C 139.5,91.8333 139.5,91.1667 139.5,90.5C 140.483,94.2984 140.817,98.2984 140.5,102.5C 144.362,103.428 148.029,104.928 151.5,107C 157.188,109.869 161.688,108.702 165,103.5C 166.827,97.4493 166.827,91.4493 165,85.5C 158.171,82.6688 152.504,78.3354 148,72.5C 144.116,77.4751 141.783,83.1418 141,89.5C 140.517,88.552 140.351,87.552 140.5,86.5C 140.5,85.5 140.5,84.5 140.5,83.5C 142.339,78.1594 145.006,73.1594 148.5,68.5C 148.145,67.4777 147.478,66.811 146.5,66.5C 146.263,65.209 146.596,64.209 147.5,63.5 Z"/>
<!-- shoulder<path style="opacity:1" fill="#f0f0f2" d="M 150.5,67.5 C 161.56,66.7199 171.394,69.7199 180,76.5C 185.137,84.4227 186.803,93.0894 185,102.5C 181.118,97.3085 175.952,94.3085 169.5,93.5C 168.772,90.7875 167.939,88.1209 167,85.5C 163.919,82.7069 160.419,80.5403 156.5,79C 153.833,76.3333 151.167,73.6667 148.5,71C 149.823,70.1841 150.489,69.0174 150.5,67.5 Z"/> -->
<path style="opacity:1" fill="#8e8f91" d="M 60.5,89.5 C 60.1832,93.7016 60.5166,97.7016 61.5,101.5C 61.1583,102.338 60.4916,102.672 59.5,102.5C 59.1818,97.9677 59.5151,93.6344 60.5,89.5 Z"/>
<path style="opacity:0.865" fill="#464749" d="M 60.5,86.5 C 60.5,87.5 60.5,88.5 60.5,89.5C 59.5151,93.6344 59.1818,97.9677 59.5,102.5C 59.8333,103.167 60.1667,103.833 60.5,104.5C 59.7368,106.368 58.7368,108.035 57.5,109.5C 57.5,108.5 57.5,107.5 57.5,106.5C 57.1771,100.31 57.5104,94.31 58.5,88.5C 59.2679,87.7375 59.7679,86.7375 60,85.5C 60.3988,85.7284 60.5654,86.0618 60.5,86.5 Z"/>

<g id="Triceps">
    tricep<path style="opacity:1" fill="#f0f1f3" d="M 194.5,133.5 C 194.584,137.503 193.584,141.169 191.5,144.5C 190.749,143.624 190.249,142.624 190,141.5C 189.667,137.167 189.333,132.833 189,128.5C 188.391,124.717 186.224,123.05 182.5,123.5C 181.347,122.687 181.347,121.687 182.5,120.5C 181.726,119.289 180.893,119.289 180,120.5C 176.351,117.215 173.684,113.215 172,108.5C 171.667,109.5 171.333,110.5 171,111.5C 170.667,109.833 170.333,108.167 170,106.5C 169.755,108.663 168.755,110.33 167,111.5C 166.503,109.19 166.337,106.857 166.5,104.5C 167.323,101.539 167.99,98.5394 168.5,95.5C 174.073,96.2255 178.907,98.5588 183,102.5C 189.072,111.982 192.905,122.315 194.5,133.5 Z"/>
    tricep<path style="opacity:1" fill="#f1f2f4" d="M 77.5,95.5 C 78.1765,101.866 79.1765,108.199 80.5,114.5C 78.4032,119.96 76.5699,125.627 75,131.5C 72.785,136.1 69.9517,140.266 66.5,144C 64.5273,144.495 62.5273,144.662 60.5,144.5C 61.0734,139.105 62.0734,133.772 63.5,128.5C 62.9845,123.502 60.8178,122.502 57,125.5C 55.641,131.754 54.8076,138.087 54.5,144.5C 53.2502,144.423 52.4169,143.756 52,142.5C 51.0653,140.091 50.5653,137.591 50.5,135C 52.1265,126.29 54.4598,117.79 57.5,109.5C 58.7368,108.035 59.7368,106.368 60.5,104.5C 64.8008,99.1798 70.4675,96.1798 77.5,95.5 Z"/>
    tricep<path style="opacity:1" fill="#f0f0f2" d="M 166.5,104.5 C 166.337,106.857 166.503,109.19 167,111.5C 168.755,110.33 169.755,108.663 170,106.5C 170.333,108.167 170.667,109.833 171,111.5C 171.333,110.5 171.667,109.5 172,108.5C 173.684,113.215 176.351,117.215 180,120.5C 180.893,119.289 181.726,119.289 182.5,120.5C 181.347,121.687 181.347,122.687 182.5,123.5C 182.106,124.967 181.773,126.467 181.5,128C 183.655,133.295 184.655,138.795 184.5,144.5C 183.054,145.613 181.387,145.78 179.5,145C 168.896,133.343 164.563,119.843 166.5,104.5 Z"/>
</g>

<g id="Lats">
    lat<path style="opacity:1" fill="#f2f2f4" d="M 139.5,104.5 C 141.199,104.34 142.866,104.506 144.5,105C 150.567,109.71 157.067,110.544 164,107.5C 163.036,116.435 162.202,125.435 161.5,134.5C 160.629,137.003 159.963,139.67 159.5,142.5C 158.833,143.833 158.167,145.167 157.5,146.5C 156.662,146.842 156.328,147.508 156.5,148.5C 154.1,150.296 152.433,152.63 151.5,155.5C 149.292,156.894 147.792,158.894 147,161.5C 146.333,164.833 145.667,168.167 145,171.5C 140.523,164.932 138.523,157.598 139,149.5C 138,147.167 137,144.833 136,142.5C 132.326,139.598 128.826,136.598 125.5,133.5C 129.358,124.812 133.858,116.478 139,108.5C 139.49,107.207 139.657,105.873 139.5,104.5 Z"/>
    lat<path style="opacity:1" fill="#f1f2f3" d="M 115.5,137.5 C 114.063,134.562 112.063,132.062 109.5,130C 112,129.167 112.167,128 110,126.5C 109.163,128.007 107.996,128.507 106.5,128C 105.305,126.61 105.305,125.11 106.5,123.5C 105.155,124.347 104.155,125.513 103.5,127C 100.518,127.498 97.5184,127.665 94.5,127.5C 93.9707,132.822 93.4707,138.156 93,143.5C 92.2472,138.625 92.4138,133.792 93.5,129C 92.7963,125.872 92.2963,122.706 92,119.5C 92.1088,127.352 91.2754,135.185 89.5,143C 89.9504,144.285 90.6171,145.452 91.5,146.5C 90.7573,147.182 90.0906,147.849 89.5,148.5C 86.3846,144.72 84.718,140.387 84.5,135.5C 84.8016,132.941 84.4682,130.607 83.5,128.5C 83.7847,125.171 83.1181,122.171 81.5,119.5C 81.5,119.167 81.5,118.833 81.5,118.5C 81.1796,115.102 81.513,111.768 82.5,108.5C 84.3115,109.739 86.3115,110.406 88.5,110.5C 92.868,109.483 96.868,107.65 100.5,105C 101.833,104.333 103.167,104.333 104.5,105C 109.819,114.635 115.152,124.302 120.5,134C 119.154,135.669 117.487,136.836 115.5,137.5 Z"/>
    lat<path style="opacity:1" fill="#f2f2f4" d="M 115.5,137.5 C 107.261,142.427 104.094,149.761 106,159.5C 105.34,164.484 103.34,168.817 100,172.5C 99.4961,163.162 95.9961,155.162 89.5,148.5C 90.0906,147.849 90.7573,147.182 91.5,146.5C 90.6171,145.452 89.9504,144.285 89.5,143C 91.2754,135.185 92.1088,127.352 92,119.5C 92.2963,122.706 92.7963,125.872 93.5,129C 92.4138,133.792 92.2472,138.625 93,143.5C 93.4707,138.156 93.9707,132.822 94.5,127.5C 97.5184,127.665 100.518,127.498 103.5,127C 104.155,125.513 105.155,124.347 106.5,123.5C 105.305,125.11 105.305,126.61 106.5,128C 107.996,128.507 109.163,128.007 110,126.5C 112.167,128 112,129.167 109.5,130C 112.063,132.062 114.063,134.562 115.5,137.5 Z"/>
</g>

<path style="opacity:0.086" fill="#d5d5d6" d="M 81.5,119.5 C 81.5,121.5 81.5,123.5 81.5,125.5C 80.8333,124.833 80.1667,124.167 79.5,123.5C 79.2291,121.62 79.8958,120.287 81.5,119.5 Z"/>
<path style="opacity:0.471" fill="#515254" d="M 81.5,119.5 C 83.1181,122.171 83.7847,125.171 83.5,128.5C 83.6602,130.199 83.4935,131.866 83,133.5C 82.8019,131.618 82.3019,129.952 81.5,128.5C 81.5,127.5 81.5,126.5 81.5,125.5C 81.5,123.5 81.5,121.5 81.5,119.5 Z"/>
<path style="opacity:0.918" fill="#909294" d="M 81.5,128.5 C 82.3019,129.952 82.8019,131.618 83,133.5C 83.4935,131.866 83.6602,130.199 83.5,128.5C 84.4682,130.607 84.8016,132.941 84.5,135.5C 83.5386,137.265 83.2053,139.265 83.5,141.5C 82.2911,137.382 81.6245,133.049 81.5,128.5 Z"/>
<path style="opacity:0.851" fill="#76777a" d="M 161.5,134.5 C 161.263,135.791 161.596,136.791 162.5,137.5C 162.435,140.428 161.768,143.095 160.5,145.5C 160.737,144.209 160.404,143.209 159.5,142.5C 159.963,139.67 160.629,137.003 161.5,134.5 Z"/>
<path style="opacity:0.322" fill="#959698" d="M 83.5,142.5 C 85.1628,144.438 85.8294,146.772 85.5,149.5C 84.3882,147.401 83.7215,145.067 83.5,142.5 Z"/>
////<path style="opacity:0.886" fill="#19181a" d="M 159.5,142.5 C 160.404,143.209 160.737,144.209 160.5,145.5C 159.849,146.091 159.182,146.757 158.5,147.5C 157.893,147.376 157.56,147.043 157.5,146.5C 158.167,145.167 158.833,143.833 159.5,142.5 Z"/>
back lower<path style="opacity:1" fill="#f2f2f4" d="M 120.5,136.5 C 122.942,136.119 123.609,136.786 122.5,138.5C 123.5,139.333 124.5,140.167 125.5,141C 124.289,141.893 124.289,142.726 125.5,143.5C 127.382,142.907 129.215,142.24 131,141.5C 131.77,147.66 132.937,153.66 134.5,159.5C 134.423,161.299 133.923,162.966 133,164.5C 132.667,163.833 132.333,163.167 132,162.5C 131.239,165.909 129.739,168.909 127.5,171.5C 128.641,172.425 128.641,173.259 127.5,174C 128.308,174.308 128.975,174.808 129.5,175.5C 126.433,176.473 125.433,178.306 126.5,181C 126,181.5 125.5,182 125,182.5C 124.577,181.044 123.744,180.544 122.5,181C 123.487,183.552 122.487,185.052 119.5,185.5C 116.316,181.657 112.316,178.99 107.5,177.5C 105.562,175.837 103.228,175.171 100.5,175.5C 103.167,171.499 105.334,167.166 107,162.5C 104.982,150.196 109.482,141.529 120.5,136.5 Z"/>
<path style="opacity:1" fill="#424345" d="M 105.5,92.5 C 104.329,100.008 105.995,106.675 110.5,112.5C 114.262,119.698 118.262,126.698 122.5,133.5C 123.167,134.167 123.833,134.833 124.5,135.5C 122.901,135.232 121.568,135.566 120.5,136.5C 109.482,141.529 104.982,150.196 107,162.5C 105.334,167.166 103.167,171.499 100.5,175.5C 98.901,175.768 97.5676,175.434 96.5,174.5C 97.8347,169.926 97.668,165.26 96,160.5C 93.578,156.656 90.9113,152.99 88,149.5C 87.5357,150.094 87.369,150.761 87.5,151.5C 87.5654,151.938 87.3988,152.272 87,152.5C 86.7679,151.263 86.2679,150.263 85.5,149.5C 85.8294,146.772 85.1628,144.438 83.5,142.5C 83.5,142.167 83.5,141.833 83.5,141.5C 83.2053,139.265 83.5386,137.265 84.5,135.5C 84.718,140.387 86.3846,144.72 89.5,148.5C 95.9961,155.162 99.4961,163.162 100,172.5C 103.34,168.817 105.34,164.484 106,159.5C 104.094,149.761 107.261,142.427 115.5,137.5C 117.487,136.836 119.154,135.669 120.5,134C 115.152,124.302 109.819,114.635 104.5,105C 103.167,104.333 101.833,104.333 100.5,105C 96.868,107.65 92.868,109.483 88.5,110.5C 86.3115,110.406 84.3115,109.739 82.5,108.5C 81.513,111.768 81.1796,115.102 81.5,118.5C 80.5655,117.432 80.2322,116.099 80.5,114.5C 79.1765,108.199 78.1765,101.866 77.5,95.5C 77.8333,95.5 78.1667,95.5 78.5,95.5C 78.4081,99.059 79.2415,102.392 81,105.5C 82.722,107.444 84.8887,108.444 87.5,108.5C 93.0323,107.069 98.3656,105.069 103.5,102.5C 104.474,100.257 104.808,97.924 104.5,95.5C 104.263,94.209 104.596,93.209 105.5,92.5 Z"/>
<path style="opacity:0.424" fill="#919293" d="M 85.5,149.5 C 86.2679,150.263 86.7679,151.263 87,152.5C 87.3988,152.272 87.5654,151.938 87.5,151.5C 88.3382,151.842 88.6716,152.508 88.5,153.5C 87.8333,156.833 87.1667,160.167 86.5,163.5C 86.4599,158.807 86.1266,154.141 85.5,149.5 Z"/>


<g id="Forearms">
    forearm<path style="opacity:1" fill="#f1f2f4" d="M 211.5,172.5 C 209.891,172.094 208.557,172.094 207.5,172.5C 208.685,173.853 210.019,175.02 211.5,176C 210.124,178.543 208.957,178.709 208,176.5C 207.667,176.833 207.333,177.167 207,177.5C 206.667,176.167 206.333,174.833 206,173.5C 206.235,177.068 206.235,180.402 206,183.5C 203.345,180.421 202.845,177.254 204.5,174C 204.167,173.833 203.833,173.667 203.5,173.5C 202.686,175.766 202.186,178.1 202,180.5C 201.333,173.833 200.667,173.833 200,180.5C 197.549,178.495 195.549,175.495 194,171.5C 193.722,172.416 193.222,173.082 192.5,173.5C 185.558,166.276 181.891,157.609 181.5,147.5C 182.791,147.737 183.791,147.404 184.5,146.5C 186.308,145.082 186.975,143.082 186.5,140.5C 185.402,136.368 184.402,132.202 183.5,128C 183.833,126.833 184.167,125.667 184.5,124.5C 185.086,124.709 185.586,125.043 186,125.5C 186.977,132.211 188.31,138.878 190,145.5C 190.718,146.451 191.551,146.617 192.5,146C 193.85,144.282 195.017,142.448 196,140.5C 203.579,149.992 208.746,160.658 211.5,172.5 Z"/>
    forearm<path style="opacity:1" fill="#f0f1f3" d="M 60.5,161.5 C 59.9553,163.593 59.122,165.593 58,167.5C 49.0836,178.59 41.5836,190.59 35.5,203.5C 31.878,204.659 28.2113,204.825 24.5,204C 23.9781,203.439 23.6448,202.772 23.5,202C 27.3672,190.797 31.0339,179.63 34.5,168.5C 34.4614,169.756 34.9614,170.756 36,171.5C 37,170.167 38,170.167 39,171.5C 39.6667,172.833 40.3333,174.167 41,175.5C 41.49,167.398 44.3233,166.065 49.5,171.5C 53.5115,169.811 55.1782,166.811 54.5,162.5C 56.5,162.167 58.5,161.833 60.5,161.5 Z"/>
    forearm<path style="opacity:1" fill="#f0f1f3" d="M 211.5,172.5 C 214.797,182.053 218.13,191.72 221.5,201.5C 217.752,204.059 213.752,204.726 209.5,203.5C 204.639,192.99 198.972,182.99 192.5,173.5C 193.222,173.082 193.722,172.416 194,171.5C 195.549,175.495 197.549,178.495 200,180.5C 200.667,173.833 201.333,173.833 202,180.5C 202.186,178.1 202.686,175.766 203.5,173.5C 203.833,173.667 204.167,173.833 204.5,174C 202.845,177.254 203.345,180.421 206,183.5C 206.235,180.402 206.235,177.068 206,173.5C 206.333,174.833 206.667,176.167 207,177.5C 207.333,177.167 207.667,176.833 208,176.5C 208.957,178.709 210.124,178.543 211.5,176C 210.019,175.02 208.685,173.853 207.5,172.5C 208.557,172.094 209.891,172.094 211.5,172.5 Z"/>
    forearm<path style="opacity:1" fill="#f1f2f4" d="M 60.5,161.5 C 58.5,161.833 56.5,162.167 54.5,162.5C 55.1782,166.811 53.5115,169.811 49.5,171.5C 44.3233,166.065 41.49,167.398 41,175.5C 40.3333,174.167 39.6667,172.833 39,171.5C 38,170.167 37,170.167 36,171.5C 34.9614,170.756 34.4614,169.756 34.5,168.5C 38.0165,158.466 42.8499,149.133 49,140.5C 49.6833,143.424 51.1833,145.758 53.5,147.5C 54.3857,146.675 54.719,145.675 54.5,144.5C 55.9265,142.852 56.7599,140.852 57,138.5C 57.3333,134.833 57.6667,131.167 58,127.5C 58.4419,125.321 59.4419,124.655 61,125.5C 60.3284,132.175 59.6618,138.842 59,145.5C 60.8254,146.103 62.6587,146.77 64.5,147.5C 63.9899,152.43 62.6565,157.096 60.5,161.5 Z"/>
</g>

<g id="Glutes">
    hip <path style="opacity:1" fill="#e8e9ea" d="M 92.5,185.5 C 91.2058,186.29 90.0391,187.29 89,188.5C 86.9708,194.615 84.6375,200.615 82,206.5C 81,207.5 80,208.5 79,209.5C 78.8333,209.167 78.6667,208.833 78.5,208.5C 79.9459,206.382 80.6126,204.049 80.5,201.5C 84.3332,194.046 86.6665,186.046 87.5,177.5C 91.5065,176.387 95.5065,176.387 99.5,177.5C 97.0638,180.257 94.7304,182.923 92.5,185.5 Z"/>
    hip<path style="opacity:1" fill="#edeeef" d="M 165.5,205.5 C 165.5,206.167 165.5,206.833 165.5,207.5C 165.565,207.938 165.399,208.272 165,208.5C 160.652,202.461 157.652,195.794 156,188.5C 152.869,184.367 149.369,180.534 145.5,177C 149.817,176.379 153.984,176.879 158,178.5C 160.186,187.601 162.686,196.601 165.5,205.5 Z"/>
    glute<path style="opacity:1" fill="#f2f2f4" d="M 104.5,177.5 C 105.5,177.5 106.5,177.5 107.5,177.5C 110.688,179.69 113.855,182.024 117,184.5C 119.038,187.243 120.538,190.243 121.5,193.5C 120.711,193.783 120.044,194.283 119.5,195C 120.726,200.601 120.226,200.768 118,195.5C 117.314,199.716 116.147,203.716 114.5,207.5C 111.5,207.5 108.5,207.5 105.5,207.5C 105.807,201.907 105.473,196.407 104.5,191C 106.689,190.323 107.022,189.156 105.5,187.5C 106.64,185.527 107.973,183.693 109.5,182C 106.411,183.228 103.745,182.561 101.5,180C 102.571,179.148 103.571,178.315 104.5,177.5 Z"/>
    glute<path style="opacity:1" fill="#f3f4f6" d="M 135.5,179.5 C 137.542,180.861 139.208,182.028 140.5,183C 140.333,183.5 140.167,184 140,184.5C 138.365,183.151 136.865,183.318 135.5,185C 138.379,185.957 140.879,185.457 143,183.5C 146.953,184.899 147.453,187.066 144.5,190C 146.333,190.5 147.5,191.667 148,193.5C 149.043,189.774 149.543,190.107 149.5,194.5C 148.71,195.609 148.21,196.942 148,198.5C 147.377,194.068 146.377,193.735 145,197.5C 144.667,196.5 144.333,195.5 144,194.5C 143.501,198.821 143.334,203.154 143.5,207.5C 140.167,207.5 136.833,207.5 133.5,207.5C 133.664,210.187 133.497,212.854 133,215.5C 132.465,217.271 131.631,217.604 130.5,216.5C 128.609,210.991 127.443,205.325 127,199.5C 126.369,203.857 126.535,208.191 127.5,212.5C 127.122,214.135 126.456,215.635 125.5,217C 126.998,220.862 126.331,221.362 123.5,218.5C 123.334,209.827 123.5,201.16 124,192.5C 124.533,189.495 125.7,186.828 127.5,184.5C 130.167,182.833 132.833,181.167 135.5,179.5 Z"/>
    glute<path style="opacity:1" fill="#f2f3f5" d="M 104.5,177.5 C 103.571,178.315 102.571,179.148 101.5,180C 103.745,182.561 106.411,183.228 109.5,182C 107.973,183.693 106.64,185.527 105.5,187.5C 107.022,189.156 106.689,190.323 104.5,191C 105.473,196.407 105.807,201.907 105.5,207.5C 108.5,207.5 111.5,207.5 114.5,207.5C 116.147,203.716 117.314,199.716 118,195.5C 120.226,200.768 120.726,200.601 119.5,195C 120.044,194.283 120.711,193.783 121.5,193.5C 121.5,202.5 121.5,211.5 121.5,220.5C 119.38,223.985 118.046,227.818 117.5,232C 113.637,233.354 109.637,233.854 105.5,233.5C 87.0757,234.244 79.5757,225.578 83,207.5C 86.0944,200.022 89.2611,192.688 92.5,185.5C 95.9186,183.588 98.9186,181.088 101.5,178C 102.448,177.517 103.448,177.351 104.5,177.5 Z"/>
    glute<path style="opacity:1" fill="#f2f3f5" d="M 149.5,194.5 C 150.29,195.609 150.79,196.942 151,198.5C 151.308,197.692 151.808,197.025 152.5,196.5C 153.351,199.459 154.018,202.459 154.5,205.5C 154.167,208.01 153.167,210.177 151.5,212C 152.191,213.067 152.691,214.234 153,215.5C 153.29,213.956 153.956,212.623 155,211.5C 155.657,216.225 156.157,220.725 156.5,225C 155.929,226.205 155.262,227.372 154.5,228.5C 153.914,228.291 153.414,227.957 153,227.5C 150.971,229.033 149.138,230.699 147.5,232.5C 141.855,233.134 136.189,233.468 130.5,233.5C 130.158,232.662 129.492,232.328 128.5,232.5C 127.883,232.389 127.383,232.056 127,231.5C 126.71,229.08 126.21,226.746 125.5,224.5C 125.34,222.847 124.674,221.514 123.5,220.5C 123.5,219.833 123.5,219.167 123.5,218.5C 126.331,221.362 126.998,220.862 125.5,217C 126.456,215.635 127.122,214.135 127.5,212.5C 126.535,208.191 126.369,203.857 127,199.5C 127.443,205.325 128.609,210.991 130.5,216.5C 131.631,217.604 132.465,217.271 133,215.5C 133.497,212.854 133.664,210.187 133.5,207.5C 136.833,207.5 140.167,207.5 143.5,207.5C 143.334,203.154 143.501,198.821 144,194.5C 144.333,195.5 144.667,196.5 145,197.5C 146.377,193.735 147.377,194.068 148,198.5C 148.21,196.942 148.71,195.609 149.5,194.5 Z"/>
    glute<path style="opacity:1" fill="#f0f0f2" d="M 162.5,217.5 C 161.877,226.79 156.877,231.79 147.5,232.5C 149.138,230.699 150.971,229.033 153,227.5C 153.414,227.957 153.914,228.291 154.5,228.5C 155.262,227.372 155.929,226.205 156.5,225C 156.157,220.725 155.657,216.225 155,211.5C 153.956,212.623 153.29,213.956 153,215.5C 152.691,214.234 152.191,213.067 151.5,212C 153.167,210.177 154.167,208.01 154.5,205.5C 154.018,202.459 153.351,199.459 152.5,196.5C 151.808,197.025 151.308,197.692 151,198.5C 150.79,196.942 150.29,195.609 149.5,194.5C 149.543,190.107 149.043,189.774 148,193.5C 147.5,191.667 146.333,190.5 144.5,190C 147.453,187.066 146.953,184.899 143,183.5C 140.879,185.457 138.379,185.957 135.5,185C 136.865,183.318 138.365,183.151 140,184.5C 140.167,184 140.333,183.5 140.5,183C 139.208,182.028 137.542,180.861 135.5,179.5C 137.54,178.058 139.873,177.058 142.5,176.5C 146.797,179.965 150.63,183.965 154,188.5C 155.825,195.154 158.492,201.488 162,207.5C 162.498,210.817 162.665,214.15 162.5,217.5 Z"/>
</g>

<path style="opacity:0.894" fill="#606163" d="M 57.5,106.5 C 57.5,107.5 57.5,108.5 57.5,109.5C 54.4598,117.79 52.1265,126.29 50.5,135C 50.5653,137.591 51.0653,140.091 52,142.5C 52.4169,143.756 53.2502,144.423 54.5,144.5C 54.8076,138.087 55.641,131.754 57,125.5C 60.8178,122.502 62.9845,123.502 63.5,128.5C 62.0734,133.772 61.0734,139.105 60.5,144.5C 62.5273,144.662 64.5273,144.495 66.5,144C 69.9517,140.266 72.785,136.1 75,131.5C 76.5699,125.627 78.4032,119.96 80.5,114.5C 80.2322,116.099 80.5655,117.432 81.5,118.5C 81.5,118.833 81.5,119.167 81.5,119.5C 79.8958,120.287 79.2291,121.62 79.5,123.5C 77.4253,132.317 73.2586,139.984 67,146.5C 66.1635,153.509 64.1635,160.175 61,166.5C 50.6575,179.014 42.4909,192.847 36.5,208C 37.941,213.486 39.2743,218.986 40.5,224.5C 39.4687,222.537 38.4687,221.203 37.5,220.5C 36.0099,216.058 35.0099,211.391 34.5,206.5C 29.9683,206.682 25.635,206.182 21.5,205C 15.4427,211.393 9.10934,217.393 2.5,223C 5.4381,222.589 8.10477,221.422 10.5,219.5C 9.13937,221.527 7.47271,223.194 5.5,224.5C 2.66925,226.182 1.16925,225.515 1,222.5C 1.7083,221.619 2.54163,220.953 3.5,220.5C 5.16667,219.5 6.5,218.167 7.5,216.5C 8.16667,215.167 9.16667,214.167 10.5,213.5C 12.1667,212.5 13.5,211.167 14.5,209.5C 16.7903,206.038 19.2903,202.705 22,199.5C 27.1713,177.306 35.838,156.639 48,137.5C 49.2861,126.483 52.4528,116.149 57.5,106.5 Z"/>
lower back<path style="opacity:1" fill="#efeff1" d="M 120.5,136.5 C 121.568,135.566 122.901,135.232 124.5,135.5C 128.201,137.782 131.701,140.449 135,143.5C 135.862,145.087 136.529,146.754 137,148.5C 137.403,153.867 138.07,159.201 139,164.5C 140.881,168.262 142.714,171.929 144.5,175.5C 137.152,175.67 131.485,178.67 127.5,184.5C 125.521,185.812 123.855,187.479 122.5,189.5C 121.016,188.533 120.016,187.2 119.5,185.5C 122.487,185.052 123.487,183.552 122.5,181C 123.744,180.544 124.577,181.044 125,182.5C 125.5,182 126,181.5 126.5,181C 125.433,178.306 126.433,176.473 129.5,175.5C 128.975,174.808 128.308,174.308 127.5,174C 128.641,173.259 128.641,172.425 127.5,171.5C 129.739,168.909 131.239,165.909 132,162.5C 132.333,163.167 132.667,163.833 133,164.5C 133.923,162.966 134.423,161.299 134.5,159.5C 132.937,153.66 131.77,147.66 131,141.5C 129.215,142.24 127.382,142.907 125.5,143.5C 124.289,142.726 124.289,141.893 125.5,141C 124.5,140.167 123.5,139.333 122.5,138.5C 123.609,136.786 122.942,136.119 120.5,136.5 Z"/>
lower back side<path style="opacity:1" fill="#f0f1f2" d="M 96.5,174.5 C 93.8015,174.466 91.3015,175.133 89,176.5C 88.5003,168.841 88.3336,161.174 88.5,153.5C 88.6716,152.508 88.3382,151.842 87.5,151.5C 87.369,150.761 87.5357,150.094 88,149.5C 90.9113,152.99 93.578,156.656 96,160.5C 97.668,165.26 97.8347,169.926 96.5,174.5 Z"/>
<path style="opacity:0.812" fill="#5e5f61" d="M 88.5,153.5 C 88.3336,161.174 88.5003,168.841 89,176.5C 91.3015,175.133 93.8015,174.466 96.5,174.5C 97.5676,175.434 98.901,175.768 100.5,175.5C 103.228,175.171 105.562,175.837 107.5,177.5C 106.5,177.5 105.5,177.5 104.5,177.5C 103.448,177.351 102.448,177.517 101.5,178C 98.9186,181.088 95.9186,183.588 92.5,185.5C 94.7304,182.923 97.0638,180.257 99.5,177.5C 95.5065,176.387 91.5065,176.387 87.5,177.5C 86.6665,186.046 84.3332,194.046 80.5,201.5C 79.8333,201.833 79.1667,202.167 78.5,202.5C 83.5434,189.992 86.21,176.992 86.5,163.5C 87.1667,160.167 87.8333,156.833 88.5,153.5 Z"/>
<path style="opacity:1" fill="#5a5a5c" d="M 139.5,92.5 C 139.5,96.5 139.5,100.5 139.5,104.5C 139.657,105.873 139.49,107.207 139,108.5C 133.858,116.478 129.358,124.812 125.5,133.5C 128.826,136.598 132.326,139.598 136,142.5C 137,144.833 138,147.167 139,149.5C 138.523,157.598 140.523,164.932 145,171.5C 145.667,168.167 146.333,164.833 147,161.5C 147.792,158.894 149.292,156.894 151.5,155.5C 148.142,161.328 146.809,167.661 147.5,174.5C 150.553,174.911 153.553,175.577 156.5,176.5C 156.6,167.016 156.6,157.683 156.5,148.5C 156.328,147.508 156.662,146.842 157.5,146.5C 157.56,147.043 157.893,147.376 158.5,147.5C 159.182,146.757 159.849,146.091 160.5,145.5C 158.647,156.087 158.48,166.754 160,177.5C 162.347,187.224 164.847,196.89 167.5,206.5C 166.833,206.167 166.167,205.833 165.5,205.5C 162.686,196.601 160.186,187.601 158,178.5C 153.984,176.879 149.817,176.379 145.5,177C 149.369,180.534 152.869,184.367 156,188.5C 157.652,195.794 160.652,202.461 165,208.5C 165.399,208.272 165.565,207.938 165.5,207.5C 166.686,208.705 166.686,210.039 165.5,211.5C 164.662,211.842 164.328,212.508 164.5,213.5C 163.833,214.833 163.167,216.167 162.5,217.5C 162.665,214.15 162.498,210.817 162,207.5C 158.492,201.488 155.825,195.154 154,188.5C 150.63,183.965 146.797,179.965 142.5,176.5C 139.873,177.058 137.54,178.058 135.5,179.5C 132.833,181.167 130.167,182.833 127.5,184.5C 131.485,178.67 137.152,175.67 144.5,175.5C 142.714,171.929 140.881,168.262 139,164.5C 138.07,159.201 137.403,153.867 137,148.5C 136.529,146.754 135.862,145.087 135,143.5C 131.701,140.449 128.201,137.782 124.5,135.5C 123.833,134.833 123.167,134.167 122.5,133.5C 127.64,124.563 132.806,115.563 138,106.5C 138.174,101.649 138.674,96.9819 139.5,92.5 Z"/>
lower back side<path style="opacity:1" fill="#f0f1f3" d="M 156.5,148.5 C 156.6,157.683 156.6,167.016 156.5,176.5C 153.553,175.577 150.553,174.911 147.5,174.5C 146.809,167.661 148.142,161.328 151.5,155.5C 154.323,154.008 155.99,151.674 156.5,148.5 Z"/>
<path style="opacity:1" fill="#606062" d="M 156.5,148.5 C 155.99,151.674 154.323,154.008 151.5,155.5C 152.433,152.63 154.1,150.296 156.5,148.5 Z"/>
<path style="opacity:1" fill="#505153" d="M 107.5,177.5 C 112.316,178.99 116.316,181.657 119.5,185.5C 120.016,187.2 121.016,188.533 122.5,189.5C 123.855,187.479 125.521,185.812 127.5,184.5C 125.7,186.828 124.533,189.495 124,192.5C 123.5,201.16 123.334,209.827 123.5,218.5C 123.5,219.167 123.5,219.833 123.5,220.5C 122.833,220.5 122.167,220.5 121.5,220.5C 121.5,211.5 121.5,202.5 121.5,193.5C 120.538,190.243 119.038,187.243 117,184.5C 113.855,182.024 110.688,179.69 107.5,177.5 Z"/>
<path style="opacity:0.173" fill="#d0d1d2" d="M 14.5,209.5 C 13.5,211.167 12.1667,212.5 10.5,213.5C 10.8333,211.167 12.1667,209.833 14.5,209.5 Z"/>
<path style="opacity:0.992" fill="#3c3d3f" d="M 92.5,185.5 C 89.2611,192.688 86.0944,200.022 83,207.5C 79.5757,225.578 87.0757,234.244 105.5,233.5C 107.5,234.167 109.5,234.833 111.5,235.5C 111.167,235.5 110.833,235.5 110.5,235.5C 107.833,235.5 105.167,235.5 102.5,235.5C 102.216,237.415 102.549,239.081 103.5,240.5C 103.5,240.833 103.5,241.167 103.5,241.5C 103.806,244.385 103.473,247.052 102.5,249.5C 102.276,245.821 101.942,242.154 101.5,238.5C 101.158,237.662 100.492,237.328 99.5,237.5C 99.5,236.5 99.5,235.5 99.5,234.5C 85.6614,233.155 79.1614,225.489 80,211.5C 77.5036,214.314 76.1702,217.647 76,221.5C 75.5001,233.495 75.3335,245.495 75.5,257.5C 75.1667,257.5 74.8333,257.5 74.5,257.5C 74.5,245.167 74.5,232.833 74.5,220.5C 75.2085,214.335 76.5419,208.335 78.5,202.5C 79.1667,202.167 79.8333,201.833 80.5,201.5C 80.6126,204.049 79.9459,206.382 78.5,208.5C 78.6667,208.833 78.8333,209.167 79,209.5C 80,208.5 81,207.5 82,206.5C 84.6375,200.615 86.9708,194.615 89,188.5C 90.0391,187.29 91.2058,186.29 92.5,185.5 Z"/>
<path style="opacity:0.953" fill="#242526" d="M 165.5,205.5 C 166.167,205.833 166.833,206.167 167.5,206.5C 167.5,207.167 167.5,207.833 167.5,208.5C 168.103,211.041 168.103,213.374 167.5,215.5C 166.833,214.167 166.167,212.833 165.5,211.5C 166.686,210.039 166.686,208.705 165.5,207.5C 165.5,206.833 165.5,206.167 165.5,205.5 Z"/>
palm<path style="opacity:1" fill="#ecedef" d="M 37.5,220.5 C 38.0396,223.865 38.7063,227.198 39.5,230.5C 36.7589,228.7 35.2589,226.034 35,222.5C 33.7367,220.203 31.9034,219.37 29.5,220C 25.8282,225.68 23.3282,231.847 22,238.5C 21.5831,239.756 20.7498,240.423 19.5,240.5C 21.3037,235.294 22.137,229.961 22,224.5C 18.3336,229.162 15.1669,234.162 12.5,239.5C 11.7691,237.599 11.7691,235.599 12.5,233.5C 14.9812,229.871 16.9812,225.871 18.5,221.5C 17.8333,220.167 17.1667,220.167 16.5,221.5C 13.8222,226.188 10.6556,230.521 7,234.5C 6.33333,233.5 6.33333,232.5 7,231.5C 10.0214,227.456 12.5214,223.123 14.5,218.5C 13.0127,216.191 11.6794,216.524 10.5,219.5C 8.10477,221.422 5.4381,222.589 2.5,223C 9.10934,217.393 15.4427,211.393 21.5,205C 25.635,206.182 29.9683,206.682 34.5,206.5C 35.0099,211.391 36.0099,216.058 37.5,220.5 Z"/>
<path style="opacity:0.522" fill="#7c7d7f" d="M 167.5,208.5 C 169.373,212.515 170.373,216.849 170.5,221.5C 169.833,233.833 169.167,246.167 168.5,258.5C 168.8,244.118 168.466,229.785 167.5,215.5C 168.103,213.374 168.103,211.041 167.5,208.5 Z"/>
palm<path style="opacity:1" fill="#ebecee" d="M 234.5,219.5 C 233.335,217.584 231.668,216.751 229.5,217C 232.113,221.051 234.613,225.218 237,229.5C 237.667,230.5 237.667,231.5 237,232.5C 233.667,228.5 230.333,224.5 227,220.5C 227.494,223.836 228.328,227.169 229.5,230.5C 228.833,230.5 228.5,230.833 228.5,231.5C 226.14,229.287 224.306,226.621 223,223.5C 222.465,228.092 222.965,232.592 224.5,237C 224.167,237.833 223.833,238.667 223.5,239.5C 221.587,234.264 219.754,228.931 218,223.5C 216.959,221.415 215.459,219.748 213.5,218.5C 210.518,221.783 208.018,225.449 206,229.5C 207.31,221.908 208.476,214.241 209.5,206.5C 214.242,205.642 218.909,204.809 223.5,204C 229.134,210.636 235.134,216.969 241.5,223C 239.123,222.173 236.789,221.006 234.5,219.5 Z"/>
<path style="opacity:0.231" fill="#b5b6b7" d="M 7.5,216.5 C 6.5,218.167 5.16667,219.5 3.5,220.5C 3.83333,218.167 5.16667,216.833 7.5,216.5 Z"/>

<path style="opacity:1" fill="#6c6d6f" d="M 121.5,220.5 C 122.167,220.5 122.833,220.5 123.5,220.5C 124.674,221.514 125.34,222.847 125.5,224.5C 124.662,224.842 124.328,225.508 124.5,226.5C 123.106,222.622 121.939,222.955 121,227.5C 120.501,231.486 120.334,235.486 120.5,239.5C 119.698,240.952 119.198,242.618 119,244.5C 118.825,240.789 118.325,237.122 117.5,233.5C 116.893,233.624 116.56,233.957 116.5,234.5C 114.958,235.301 113.292,235.634 111.5,235.5C 109.5,234.833 107.5,234.167 105.5,233.5C 109.637,233.854 113.637,233.354 117.5,232C 118.046,227.818 119.38,223.985 121.5,220.5 Z"/>
<path style="opacity:0.435" fill="#6b6c6f" d="M 39.5,230.5 C 40.5181,229.708 40.8514,228.041 40.5,225.5C 42.4574,228.091 42.4574,230.591 40.5,233C 39.5,233.667 38.5,233.667 37.5,233C 34.8974,229.961 33.2308,226.461 32.5,222.5C 31.9984,221.479 31.3317,221.312 30.5,222C 27.5169,227.092 25.6836,232.592 25,238.5C 24.5017,240.544 23.335,241.878 21.5,242.5C 20.8333,241.833 20.1667,241.167 19.5,240.5C 20.7498,240.423 21.5831,239.756 22,238.5C 23.3282,231.847 25.8282,225.68 29.5,220C 31.9034,219.37 33.7367,220.203 35,222.5C 35.2589,226.034 36.7589,228.7 39.5,230.5 Z"/>
<path style="opacity:0.663" fill="#313436" d="M 40.5,224.5 C 40.5,224.833 40.5,225.167 40.5,225.5C 40.8514,228.041 40.5181,229.708 39.5,230.5C 38.7063,227.198 38.0396,223.865 37.5,220.5C 38.4687,221.203 39.4687,222.537 40.5,224.5 Z"/>
<path style="opacity:0.072" fill="#e3e3e5" d="M 10.5,219.5 C 11.3764,219.369 12.0431,219.702 12.5,220.5C 11.0569,223.077 9.39022,225.41 7.5,227.5C 7.57298,225.973 6.90632,224.973 5.5,224.5C 7.47271,223.194 9.13937,221.527 10.5,219.5 Z"/>
<path style="opacity:1" fill="#e3e4e6" d="M 234.5,221.5 C 236.154,222.75 237.821,224.084 239.5,225.5C 239.443,226.609 239.11,227.609 238.5,228.5C 236.917,226.337 235.584,224.004 234.5,221.5 Z"/>
<path style="opacity:0.741" fill="#c0c1c3" d="M 236.5,234.5 C 236.204,236.403 235.537,238.07 234.5,239.5C 234.946,236.99 234.28,234.99 232.5,233.5C 231.65,231.506 231.15,229.506 231,227.5C 232.666,229.996 234.5,232.329 236.5,234.5 Z"/>
<path style="opacity:0.573" fill="#494a4f" d="M 12.5,233.5 C 13.0283,232.153 13.195,230.819 13,229.5C 11.5945,232.409 9.42781,234.409 6.5,235.5C 5.41383,235.38 4.74716,234.713 4.5,233.5C 5.001,231.164 6.001,229.164 7.5,227.5C 9.39022,225.41 11.0569,223.077 12.5,220.5C 12.0431,219.702 11.3764,219.369 10.5,219.5C 11.6794,216.524 13.0127,216.191 14.5,218.5C 12.5214,223.123 10.0214,227.456 7,231.5C 6.33333,232.5 6.33333,233.5 7,234.5C 10.6556,230.521 13.8222,226.188 16.5,221.5C 17.1667,220.167 17.8333,220.167 18.5,221.5C 16.9812,225.871 14.9812,229.871 12.5,233.5 Z"/>
<path style="opacity:0.373" fill="#434446" d="M 234.5,219.5 C 232.067,219.786 232.067,220.452 234.5,221.5C 235.584,224.004 236.917,226.337 238.5,228.5C 239.341,230.379 239.675,232.379 239.5,234.5C 238.5,234.5 237.5,234.5 236.5,234.5C 234.5,232.329 232.666,229.996 231,227.5C 231.15,229.506 231.65,231.506 232.5,233.5C 231.272,232.694 230.272,231.694 229.5,230.5C 228.328,227.169 227.494,223.836 227,220.5C 230.333,224.5 233.667,228.5 237,232.5C 237.667,231.5 237.667,230.5 237,229.5C 234.613,225.218 232.113,221.051 229.5,217C 231.668,216.751 233.335,217.584 234.5,219.5 Z"/>
<path style="opacity:0.073" fill="#e7e9eb" d="M 12.5,233.5 C 11.1103,234.899 10.1103,236.566 9.5,238.5C 7.85637,238.19 6.85637,237.19 6.5,235.5C 9.42781,234.409 11.5945,232.409 13,229.5C 13.195,230.819 13.0283,232.153 12.5,233.5 Z"/>
<path style="opacity:0.082" fill="#ceced2" d="M 110.5,235.5 C 108.393,236.468 106.059,236.802 103.5,236.5C 103.5,237.833 103.5,239.167 103.5,240.5C 102.549,239.081 102.216,237.415 102.5,235.5C 105.167,235.5 107.833,235.5 110.5,235.5 Z"/>


<g id="Hamstrings">
    hamstring<path style="opacity:1" fill="#f3f4f6" d="M 165.5,211.5 C 166.167,212.833 166.833,214.167 167.5,215.5C 168.466,229.785 168.8,244.118 168.5,258.5C 168.5,259.167 168.5,259.833 168.5,260.5C 167.065,259.21 166.065,257.544 165.5,255.5C 164.833,257.833 164.167,260.167 163.5,262.5C 159.426,261.099 158.426,258.932 160.5,256C 160.155,253.27 159.989,250.437 160,247.5C 159.167,244.5 158.333,241.5 157.5,238.5C 154.788,237.788 153.121,236.121 152.5,233.5C 161.039,229.783 165.039,223.117 164.5,213.5C 164.328,212.508 164.662,211.842 165.5,211.5 Z"/>
    hamstring<path style="opacity:1" fill="#f2f2f4" d="M 129.5,234.5 C 134.112,235.623 138.778,235.623 143.5,234.5C 141.847,242.073 140.847,249.74 140.5,257.5C 139.258,263.025 138.091,268.692 137,274.5C 134.041,267.107 131.207,259.773 128.5,252.5C 127.908,249.873 127.575,247.206 127.5,244.5C 126.931,240.671 127.598,237.337 129.5,234.5 Z"/>
    hamstring<path style="opacity:1" fill="#eeeff1" d="M 99.5,237.5 C 96.6268,245.453 93.9601,253.453 91.5,261.5C 91.6309,260.624 91.2975,259.957 90.5,259.5C 89.7022,261.078 89.2022,262.744 89,264.5C 87.6667,259.167 86.3333,259.167 85,264.5C 85.6025,258.492 85.4358,252.159 84.5,245.5C 83.7022,247.078 83.2022,248.744 83,250.5C 80.5033,246.817 78.8366,242.817 78,238.5C 77.8283,245.346 77.3283,252.013 76.5,258.5C 76.5,257.833 76.1667,257.5 75.5,257.5C 75.3335,245.495 75.5001,233.495 76,221.5C 76.1702,217.647 77.5036,214.314 80,211.5C 79.1614,225.489 85.6614,233.155 99.5,234.5C 99.5,235.5 99.5,236.5 99.5,237.5 Z"/>
    hamstring<path style="opacity:1" fill="#f0f0f2" d="M 91.5,261.5 C 92.3677,270.689 90.701,279.355 86.5,287.5C 84.4131,288.585 83.0798,290.251 82.5,292.5C 79.8996,293.919 77.3996,295.585 75,297.5C 74.6667,296.5 74.3333,295.5 74,294.5C 73.7679,295.737 73.2679,296.737 72.5,297.5C 72.5651,294.572 73.2318,291.905 74.5,289.5C 74.3433,290.873 74.51,292.207 75,293.5C 77.7014,281.937 78.2014,270.27 76.5,258.5C 77.3283,252.013 77.8283,245.346 78,238.5C 78.8366,242.817 80.5033,246.817 83,250.5C 83.2022,248.744 83.7022,247.078 84.5,245.5C 85.4358,252.159 85.6025,258.492 85,264.5C 86.3333,259.167 87.6667,259.167 89,264.5C 89.2022,262.744 89.7022,261.078 90.5,259.5C 91.2975,259.957 91.6309,260.624 91.5,261.5 Z"/>
    hamstring<path style="opacity:1" fill="#f1f2f4" d="M 152.5,233.5 C 153.121,236.121 154.788,237.788 157.5,238.5C 158.333,241.5 159.167,244.5 160,247.5C 159.989,250.437 160.155,253.27 160.5,256C 158.426,258.932 159.426,261.099 163.5,262.5C 164.167,260.167 164.833,257.833 165.5,255.5C 166.065,257.544 167.065,259.21 168.5,260.5C 167.462,268.806 167.295,277.139 168,285.5C 168.39,288.104 169.224,290.438 170.5,292.5C 170.702,296.845 169.369,297.512 166.5,294.5C 161.325,291.15 157.825,286.483 156,280.5C 154.209,265.078 150.709,250.078 145.5,235.5C 147.608,234.056 149.941,233.39 152.5,233.5 Z"/>
    hamstring<path style="opacity:1" fill="#f1f1f3" d="M 145.5,307.5 C 142.073,298.124 139.739,288.457 138.5,278.5C 138.5,277.833 138.5,277.167 138.5,276.5C 139.601,270.982 140.601,265.315 141.5,259.5C 142.345,252.785 143.511,246.119 145,239.5C 149.656,252.443 152.656,265.777 154,279.5C 158.07,286.331 159.403,293.665 158,301.5C 155.064,306.373 152.397,311.373 150,316.5C 148.487,313.473 146.987,310.473 145.5,307.5 Z"/>
    hamstring<path style="opacity:1" fill="#f1f1f3" d="M 101.5,238.5 C 101.942,242.154 102.276,245.821 102.5,249.5C 102.532,254.391 103.199,259.057 104.5,263.5C 104.909,267.876 105.575,272.21 106.5,276.5C 106.016,285.74 104.349,294.74 101.5,303.5C 99.6202,307.97 97.4536,312.303 95,316.5C 93.5818,311.99 91.4151,307.99 88.5,304.5C 88.4431,303.391 88.1098,302.391 87.5,301.5C 87.3341,296.489 87.5007,291.489 88,286.5C 89.7248,283.326 91.0581,279.993 92,276.5C 92.2228,262.822 95.3894,250.155 101.5,238.5 Z"/>
</g>

<path style="opacity:1" fill="#e6e6e8" d="M 229.5,230.5 C 230.272,231.694 231.272,232.694 232.5,233.5C 232.657,234.873 232.49,236.207 232,237.5C 230.053,235.937 228.886,233.937 228.5,231.5C 229.167,231.5 229.5,231.167 229.5,230.5 Z"/>
<path style="opacity:0.886" fill="#4d4e51" d="M 19.5,240.5 C 20.1667,241.167 20.8333,241.833 21.5,242.5C 20.5,243.833 19.5,243.833 18.5,242.5C 18.591,238.044 19.091,233.71 20,229.5C 17.9617,232.243 16.4617,235.243 15.5,238.5C 15.5,238.833 15.5,239.167 15.5,239.5C 14.8333,239.5 14.5,239.833 14.5,240.5C 14.2172,241.289 13.7172,241.956 13,242.5C 11.9887,241.663 10.8221,241.33 9.5,241.5C 9.5,240.5 9.5,239.5 9.5,238.5C 10.1103,236.566 11.1103,234.899 12.5,233.5C 11.7691,235.599 11.7691,237.599 12.5,239.5C 15.1669,234.162 18.3336,229.162 22,224.5C 22.137,229.961 21.3037,235.294 19.5,240.5 Z"/>
<path style="opacity:0.018" fill="#e4e5e7" d="M 18.5,242.5 C 17.3951,241.4 16.0618,240.733 14.5,240.5C 14.5,239.833 14.8333,239.5 15.5,239.5C 16.8333,239.167 16.8333,238.833 15.5,238.5C 16.4617,235.243 17.9617,232.243 20,229.5C 19.091,233.71 18.591,238.044 18.5,242.5 Z"/>
<path style="opacity:0.788" fill="#58595b" d="M 182.5,123.5 C 186.224,123.05 188.391,124.717 189,128.5C 189.333,132.833 189.667,137.167 190,141.5C 190.249,142.624 190.749,143.624 191.5,144.5C 193.584,141.169 194.584,137.503 194.5,133.5C 195.967,136.258 196.633,135.925 196.5,132.5C 197.801,133.884 197.801,135.384 196.5,137C 208.525,154.375 216.692,173.541 221,194.5C 222.333,197.167 223.667,199.833 225,202.5C 231.712,209.376 238.212,216.376 244.5,223.5C 243.15,224.95 241.484,225.617 239.5,225.5C 237.821,224.084 236.154,222.75 234.5,221.5C 232.067,220.452 232.067,219.786 234.5,219.5C 236.789,221.006 239.123,222.173 241.5,223C 235.134,216.969 229.134,210.636 223.5,204C 218.909,204.809 214.242,205.642 209.5,206.5C 208.476,214.241 207.31,221.908 206,229.5C 208.018,225.449 210.518,221.783 213.5,218.5C 215.459,219.748 216.959,221.415 218,223.5C 219.754,228.931 221.587,234.264 223.5,239.5C 223.833,238.667 224.167,237.833 224.5,237C 222.965,232.592 222.465,228.092 223,223.5C 224.306,226.621 226.14,229.287 228.5,231.5C 228.886,233.937 230.053,235.937 232,237.5C 232.49,236.207 232.657,234.873 232.5,233.5C 234.28,234.99 234.946,236.99 234.5,239.5C 231.804,240.569 229.804,239.569 228.5,236.5C 227.609,234.391 226.442,232.391 225,230.5C 225.482,233.76 225.482,237.093 225,240.5C 224.329,241.252 223.496,241.586 222.5,241.5C 221.883,241.389 221.383,241.056 221,240.5C 219.163,234.481 217.33,228.481 215.5,222.5C 214.998,220.915 213.998,220.415 212.5,221C 211.418,222.33 210.751,223.83 210.5,225.5C 210.5,226.167 210.833,226.5 211.5,226.5C 209.867,229.797 207.2,231.464 203.5,231.5C 204.214,225.095 205.381,218.761 207,212.5C 207.667,209.5 207.667,206.5 207,203.5C 200.599,190.36 192.932,178.027 184,166.5C 181.787,161.696 180.287,156.696 179.5,151.5C 180.451,150.081 180.784,148.415 180.5,146.5C 181.833,146.5 183.167,146.5 184.5,146.5C 183.791,147.404 182.791,147.737 181.5,147.5C 181.891,157.609 185.558,166.276 192.5,173.5C 198.972,182.99 204.639,192.99 209.5,203.5C 213.752,204.726 217.752,204.059 221.5,201.5C 218.13,191.72 214.797,182.053 211.5,172.5C 208.746,160.658 203.579,149.992 196,140.5C 195.017,142.448 193.85,144.282 192.5,146C 191.551,146.617 190.718,146.451 190,145.5C 188.31,138.878 186.977,132.211 186,125.5C 185.586,125.043 185.086,124.709 184.5,124.5C 184.167,125.667 183.833,126.833 183.5,128C 184.402,132.202 185.402,136.368 186.5,140.5C 185.833,141.833 185.167,143.167 184.5,144.5C 184.655,138.795 183.655,133.295 181.5,128C 181.773,126.467 182.106,124.967 182.5,123.5 Z"/>
<path style="opacity:0.046" fill="#ebebed" d="M 215.5,222.5 C 214.761,222.369 214.094,222.536 213.5,223C 212.915,224.302 212.249,225.469 211.5,226.5C 210.833,226.5 210.5,226.167 210.5,225.5C 210.751,223.83 211.418,222.33 212.5,221C 213.998,220.415 214.998,220.915 215.5,222.5 Z"/>
<path style="opacity:1" fill="#919294" d="M 128.5,232.5 C 129.492,232.328 130.158,232.662 130.5,233.5C 129.833,233.5 129.5,233.833 129.5,234.5C 127.598,237.337 126.931,240.671 127.5,244.5C 126.839,242.866 126.506,241.033 126.5,239C 126.658,236.551 127.325,234.384 128.5,232.5 Z"/>
<path style="opacity:0.11" fill="#c2c4c8" d="M 228.5,236.5 C 227.252,238.299 226.252,240.133 225.5,242C 224.251,242.74 223.251,242.573 222.5,241.5C 223.496,241.586 224.329,241.252 225,240.5C 225.482,237.093 225.482,233.76 225,230.5C 226.442,232.391 227.609,234.391 228.5,236.5 Z"/>
<path style="opacity:0.567" fill="#929395" d="M 74.5,220.5 C 74.5,232.833 74.5,245.167 74.5,257.5C 74.5,258.167 74.5,258.833 74.5,259.5C 72.3176,246.532 72.3176,233.532 74.5,220.5 Z"/>
<path style="opacity:0.588" fill="#a9a9ab" d="M 120.5,239.5 C 120.656,243.764 119.989,247.764 118.5,251.5C 118.657,250.127 118.49,248.793 118,247.5C 117.768,248.737 117.268,249.737 116.5,250.5C 117.578,245.107 117.578,239.774 116.5,234.5C 116.56,233.957 116.893,233.624 117.5,233.5C 118.325,237.122 118.825,240.789 119,244.5C 119.198,242.618 119.698,240.952 120.5,239.5 Z"/>
<path style="opacity:0.565" fill="#909093" d="M 103.5,241.5 C 105.016,249.297 106.016,257.297 106.5,265.5C 105.698,264.048 105.198,262.382 105,260.5C 104.517,261.448 104.351,262.448 104.5,263.5C 103.199,259.057 102.532,254.391 102.5,249.5C 103.473,247.052 103.806,244.385 103.5,241.5 Z"/>
<path style="opacity:0.545" fill="#646467" d="M 125.5,224.5 C 126.21,226.746 126.71,229.08 127,231.5C 127.383,232.056 127.883,232.389 128.5,232.5C 127.325,234.384 126.658,236.551 126.5,239C 126.506,241.033 126.839,242.866 127.5,244.5C 127.575,247.206 127.908,249.873 128.5,252.5C 128.062,253.506 127.396,253.506 126.5,252.5C 124.803,243.966 124.136,235.3 124.5,226.5C 124.328,225.508 124.662,224.842 125.5,224.5 Z"/>
<path style="opacity:0.008" fill="#f0f0f0" d="M 113.5,259.5 C 113.598,261.553 112.931,263.22 111.5,264.5C 111.402,262.447 112.069,260.78 113.5,259.5 Z"/>
<path style="opacity:0.651" fill="#67676a" d="M 126.5,252.5 C 127.396,253.506 128.062,253.506 128.5,252.5C 131.207,259.773 134.041,267.107 137,274.5C 138.091,268.692 139.258,263.025 140.5,257.5C 140.328,258.492 140.662,259.158 141.5,259.5C 140.601,265.315 139.601,270.982 138.5,276.5C 138.44,275.957 138.107,275.624 137.5,275.5C 136.571,276.689 136.238,278.022 136.5,279.5C 132.925,270.665 129.591,261.665 126.5,252.5 Z"/>
<path style="opacity:0.588" fill="#666769" d="M 118.5,251.5 C 118.414,252.496 118.748,253.329 119.5,254C 115.865,260.492 112.531,267.992 109.5,276.5C 109.672,275.508 109.338,274.842 108.5,274.5C 108.971,272.421 109.637,270.421 110.5,268.5C 110.833,267.167 111.167,265.833 111.5,264.5C 112.931,263.22 113.598,261.553 113.5,259.5C 114.655,256.543 115.655,253.543 116.5,250.5C 117.268,249.737 117.768,248.737 118,247.5C 118.49,248.793 118.657,250.127 118.5,251.5 Z"/>
<path style="opacity:1" fill="#e1e1e5" d="M 106.5,266.5 C 107.268,267.263 107.768,268.263 108,269.5C 108.671,268.748 109.504,268.414 110.5,268.5C 109.637,270.421 108.971,272.421 108.5,274.5C 106.96,272.162 106.294,269.495 106.5,266.5 Z"/>
<path style="opacity:1" fill="#3d3d3f" d="M 106.5,265.5 C 106.5,265.833 106.5,266.167 106.5,266.5C 106.294,269.495 106.96,272.162 108.5,274.5C 109.338,274.842 109.672,275.508 109.5,276.5C 109.5,277.167 109.5,277.833 109.5,278.5C 108.778,278.918 108.278,279.584 108,280.5C 107.79,278.942 107.29,277.609 106.5,276.5C 105.575,272.21 104.909,267.876 104.5,263.5C 104.351,262.448 104.517,261.448 105,260.5C 105.198,262.382 105.698,264.048 106.5,265.5 Z"/>
<path style="opacity:0.684" fill="#6e7072" d="M 170.5,221.5 C 171.333,243.666 171.333,266 170.5,288.5C 170.5,289.833 170.5,291.167 170.5,292.5C 169.224,290.438 168.39,288.104 168,285.5C 167.295,277.139 167.462,268.806 168.5,260.5C 168.5,259.833 168.5,259.167 168.5,258.5C 169.167,246.167 169.833,233.833 170.5,221.5 Z"/>
<path style="opacity:1" fill="#1e1d22" d="M 138.5,276.5 C 138.5,277.167 138.5,277.833 138.5,278.5C 137.833,278.833 137.167,279.167 136.5,279.5C 136.238,278.022 136.571,276.689 137.5,275.5C 138.107,275.624 138.44,275.957 138.5,276.5 Z"/>
<path style="opacity:1" fill="#5d5d5f" d="M 99.5,237.5 C 100.492,237.328 101.158,237.662 101.5,238.5C 95.3894,250.155 92.2228,262.822 92,276.5C 91.0581,279.993 89.7248,283.326 88,286.5C 87.5007,291.489 87.3341,296.489 87.5,301.5C 86.5139,297.03 86.1805,292.363 86.5,287.5C 90.701,279.355 92.3677,270.689 91.5,261.5C 93.9601,253.453 96.6268,245.453 99.5,237.5 Z"/>
<path style="opacity:0.753" fill="#5f6062" d="M 74.5,257.5 C 74.8333,257.5 75.1667,257.5 75.5,257.5C 76.1667,257.5 76.5,257.833 76.5,258.5C 78.2014,270.27 77.7014,281.937 75,293.5C 74.51,292.207 74.3433,290.873 74.5,289.5C 74.5,289.167 74.5,288.833 74.5,288.5C 75.4767,285.713 75.81,282.713 75.5,279.5C 74.8605,272.852 74.5272,266.186 74.5,259.5C 74.5,258.833 74.5,258.167 74.5,257.5 Z"/>
<path style="opacity:0.988" fill="#78797b" d="M 106.5,276.5 C 107.29,277.609 107.79,278.942 108,280.5C 108.278,279.584 108.778,278.918 109.5,278.5C 108.548,287.977 106.215,296.977 102.5,305.5C 102.672,304.508 102.338,303.842 101.5,303.5C 104.349,294.74 106.016,285.74 106.5,276.5 Z"/>
<path style="opacity:0.094" fill="#d5d6da" d="M 75.5,279.5 C 75.81,282.713 75.4767,285.713 74.5,288.5C 74.0618,288.565 73.7284,288.399 73.5,288C 74.1281,285.061 74.7948,282.228 75.5,279.5 Z"/>
<path style="opacity:1" fill="#2e2f31" d="M 86.5,287.5 C 86.1805,292.363 86.5139,297.03 87.5,301.5C 88.1098,302.391 88.4431,303.391 88.5,304.5C 87.6043,303.494 86.9377,303.494 86.5,304.5C 86.1667,304.5 85.8333,304.5 85.5,304.5C 85.8256,300.116 85.4922,295.783 84.5,291.5C 83.8165,291.863 83.1499,292.196 82.5,292.5C 83.0798,290.251 84.4131,288.585 86.5,287.5 Z"/>
<path style="opacity:0.443" fill="#abb0b2" d="M 170.5,288.5 C 171.738,290.214 172.405,292.214 172.5,294.5C 171.833,293.833 171.167,293.167 170.5,292.5C 170.5,291.167 170.5,289.833 170.5,288.5 Z"/>
<path style="opacity:0.945" fill="#727375" d="M 138.5,278.5 C 139.739,288.457 142.073,298.124 145.5,307.5C 144.662,307.842 144.328,308.508 144.5,309.5C 139.982,300.101 137.315,290.101 136.5,279.5C 137.167,279.167 137.833,278.833 138.5,278.5 Z"/>
<path style="opacity:1" fill="#e2e3e5" d="M 85.5,304.5 C 83.803,301.984 82.4697,299.151 81.5,296C 81.9891,294.862 82.3225,293.695 82.5,292.5C 83.1499,292.196 83.8165,291.863 84.5,291.5C 85.4922,295.783 85.8256,300.116 85.5,304.5 Z"/>
<path style="opacity:0.91" fill="#333538" d="M 169.5,298.5 C 170.209,297.596 171.209,297.263 172.5,297.5C 172.818,302.032 172.485,306.366 171.5,310.5C 171.665,306.818 171.499,303.152 171,299.5C 170.617,298.944 170.117,298.611 169.5,298.5 Z"/>

<g id="Calves">
    calves<path style="opacity:1" fill="#f0f1f3" d="M 164.5,296.5 C 164.833,296.5 165.167,296.5 165.5,296.5C 167.062,296.733 168.395,297.4 169.5,298.5C 170.117,298.611 170.617,298.944 171,299.5C 171.499,303.152 171.665,306.818 171.5,310.5C 173.889,317.61 176.556,324.61 179.5,331.5C 179.216,333.415 179.549,335.081 180.5,336.5C 180.739,340.842 181.073,345.176 181.5,349.5C 181.975,352.082 181.308,354.082 179.5,355.5C 174.681,352.888 171.514,348.888 170,343.5C 168.244,331.213 165.41,319.213 161.5,307.5C 161.896,303.648 162.896,299.981 164.5,296.5 Z"/>
    calves<path style="opacity:1" fill="#f0f1f3" d="M 88.5,304.5 C 90.6782,309.339 92.3449,314.339 93.5,319.5C 91.8559,330.072 91.0226,340.739 91,351.5C 90.1779,353.788 89.5112,356.122 89,358.5C 88.4387,359.022 87.772,359.355 87,359.5C 81.2202,356.887 77.3868,352.554 75.5,346.5C 78.3649,332.247 82.0316,318.247 86.5,304.5C 86.9377,303.494 87.6043,303.494 88.5,304.5 Z"/>
    calves<path style="opacity:1" fill="#f0f2f3" d="M 167.5,352.5 C 164.805,355.191 161.805,357.525 158.5,359.5C 157.482,358.807 156.482,358.141 155.5,357.5C 154.22,344.497 152.886,331.497 151.5,318.5C 152.86,313.447 155.027,308.781 158,304.5C 163.079,318.147 166.912,332.147 169.5,346.5C 168.822,348.516 168.156,350.516 167.5,352.5 Z"/>
    calves<path style="opacity:1" fill="#f0f0f2" d="M 72.5,350.5 C 70.026,353.31 67.026,355.31 63.5,356.5C 63.5,352.833 63.5,349.167 63.5,345.5C 64.0234,341.109 64.6901,336.776 65.5,332.5C 67.6507,325.836 70.1507,319.169 73,312.5C 73.1725,308.129 73.6725,303.796 74.5,299.5C 76.3325,298.752 77.9991,297.752 79.5,296.5C 81.6534,300.458 83.3201,304.624 84.5,309C 83.1952,311.776 82.0285,314.61 81,317.5C 78.2113,328.551 75.3779,339.551 72.5,350.5 Z"/>
</g>

<path style="opacity:1" fill="#4c4c4e" d="M 164.5,213.5 C 165.039,223.117 161.039,229.783 152.5,233.5C 149.941,233.39 147.608,234.056 145.5,235.5C 150.709,250.078 154.209,265.078 156,280.5C 157.825,286.483 161.325,291.15 166.5,294.5C 166.167,295.167 165.833,295.833 165.5,296.5C 165.167,296.5 164.833,296.5 164.5,296.5C 162.896,299.981 161.896,303.648 161.5,307.5C 165.41,319.213 168.244,331.213 170,343.5C 171.514,348.888 174.681,352.888 179.5,355.5C 179.5,356.167 179.167,356.5 178.5,356.5C 175.23,354.899 172.563,352.566 170.5,349.5C 169.712,350.77 168.712,351.77 167.5,352.5C 168.156,350.516 168.822,348.516 169.5,346.5C 166.912,332.147 163.079,318.147 158,304.5C 155.027,308.781 152.86,313.447 151.5,318.5C 152.886,331.497 154.22,344.497 155.5,357.5C 154.833,357.167 154.167,356.833 153.5,356.5C 152.698,355.048 152.198,353.382 152,351.5C 152.079,340.379 151.079,329.379 149,318.5C 147.487,315.473 145.987,312.473 144.5,309.5C 144.328,308.508 144.662,307.842 145.5,307.5C 146.987,310.473 148.487,313.473 150,316.5C 152.397,311.373 155.064,306.373 158,301.5C 159.403,293.665 158.07,286.331 154,279.5C 152.656,265.777 149.656,252.443 145,239.5C 143.511,246.119 142.345,252.785 141.5,259.5C 140.662,259.158 140.328,258.492 140.5,257.5C 140.847,249.74 141.847,242.073 143.5,234.5C 138.778,235.623 134.112,235.623 129.5,234.5C 129.5,233.833 129.833,233.5 130.5,233.5C 136.189,233.468 141.855,233.134 147.5,232.5C 156.877,231.79 161.877,226.79 162.5,217.5C 163.167,216.167 163.833,214.833 164.5,213.5 Z"/>
<path style="opacity:1" fill="#d9dada" d="M 164.5,296.5 C 161.988,298.478 160.488,301.145 160,304.5C 159.333,299.833 159.333,295.167 160,290.5C 162.127,292.114 163.627,294.114 164.5,296.5 Z"/>
<path style="opacity:0.573" fill="#636365" d="M 170.5,292.5 C 171.167,293.167 171.833,293.833 172.5,294.5C 173.242,300.118 173.742,305.785 174,311.5C 175.696,317.431 177.862,323.098 180.5,328.5C 180.737,329.791 180.404,330.791 179.5,331.5C 176.556,324.61 173.889,317.61 171.5,310.5C 172.485,306.366 172.818,302.032 172.5,297.5C 171.209,297.263 170.209,297.596 169.5,298.5C 168.395,297.4 167.062,296.733 165.5,296.5C 165.833,295.833 166.167,295.167 166.5,294.5C 169.369,297.512 170.702,296.845 170.5,292.5 Z"/>
<path style="opacity:1" fill="#606162" d="M 82.5,292.5 C 82.3225,293.695 81.9891,294.862 81.5,296C 82.4697,299.151 83.803,301.984 85.5,304.5C 85.8333,304.5 86.1667,304.5 86.5,304.5C 82.0316,318.247 78.3649,332.247 75.5,346.5C 77.3868,352.554 81.2202,356.887 87,359.5C 87.772,359.355 88.4387,359.022 89,358.5C 89.5112,356.122 90.1779,353.788 91,351.5C 91.0226,340.739 91.8559,330.072 93.5,319.5C 92.3449,314.339 90.6782,309.339 88.5,304.5C 91.4151,307.99 93.5818,311.99 95,316.5C 97.4536,312.303 99.6202,307.97 101.5,303.5C 102.338,303.842 102.672,304.508 102.5,305.5C 101.404,310.951 99.2374,315.951 96,320.5C 94.9337,331.823 93.9337,343.156 93,354.5C 87.2416,363.776 82.2416,373.443 78,383.5C 76.8321,387.506 75.6655,391.506 74.5,395.5C 76.0082,397.507 77.8416,399.174 80,400.5C 81.5339,403.595 81.7005,406.595 80.5,409.5C 79.7784,409.918 79.2784,410.584 79,411.5C 78.6012,411.272 78.4346,410.938 78.5,410.5C 78.9292,406.743 78.2625,403.243 76.5,400C 75.552,399.517 74.552,399.351 73.5,399.5C 72.9524,403.787 72.2858,404.12 71.5,400.5C 73.8309,386.664 78.8309,373.831 86.5,362C 81.269,359.057 77.269,354.891 74.5,349.5C 73.8165,349.863 73.1499,350.196 72.5,350.5C 75.3779,339.551 78.2113,328.551 81,317.5C 82.0285,314.61 83.1952,311.776 84.5,309C 83.3201,304.624 81.6534,300.458 79.5,296.5C 77.9991,297.752 76.3325,298.752 74.5,299.5C 73.6725,303.796 73.1725,308.129 73,312.5C 70.1507,319.169 67.6507,325.836 65.5,332.5C 65.5912,330.302 64.9245,329.969 63.5,331.5C 65.3654,325.74 67.5321,320.073 70,314.5C 70.2071,308.693 71.0404,303.027 72.5,297.5C 73.2679,296.737 73.7679,295.737 74,294.5C 74.3333,295.5 74.6667,296.5 75,297.5C 77.3996,295.585 79.8996,293.919 82.5,292.5 Z"/>
<path style="opacity:0.286" fill="#9fa0a1" d="M 180.5,328.5 C 182.118,331.171 182.785,334.171 182.5,337.5C 181.698,336.048 181.198,334.382 181,332.5C 180.51,333.793 180.343,335.127 180.5,336.5C 179.549,335.081 179.216,333.415 179.5,331.5C 180.404,330.791 180.737,329.791 180.5,328.5 Z"/>
<path style="opacity:0.961" fill="#303133" d="M 65.5,332.5 C 64.6901,336.776 64.0234,341.109 63.5,345.5C 62.4608,341.658 62.4608,337.658 63.5,333.5C 63.5,332.833 63.5,332.167 63.5,331.5C 64.9245,329.969 65.5912,330.302 65.5,332.5 Z"/>
<path style="opacity:0.794" fill="#505153" d="M 182.5,337.5 C 182.5,338.167 182.5,338.833 182.5,339.5C 182.813,343.042 182.479,346.375 181.5,349.5C 181.073,345.176 180.739,340.842 180.5,336.5C 180.343,335.127 180.51,333.793 181,332.5C 181.198,334.382 181.698,336.048 182.5,337.5 Z"/>
<path style="opacity:0.624" fill="#7c7d7f" d="M 63.5,333.5 C 62.4608,337.658 62.4608,341.658 63.5,345.5C 63.5,349.167 63.5,352.833 63.5,356.5C 62.8333,353.5 62.1667,350.5 61.5,347.5C 61.5,346.833 61.5,346.167 61.5,345.5C 61.0834,341.183 61.7501,337.183 63.5,333.5 Z"/>
<path style="opacity:0.514" fill="#909193" d="M 182.5,339.5 C 183.813,345.959 184.479,352.626 184.5,359.5C 183.681,356.695 183.181,353.695 183,350.5C 182.832,353.177 181.999,355.51 180.5,357.5C 179.508,357.672 178.842,357.338 178.5,356.5C 179.167,356.5 179.5,356.167 179.5,355.5C 181.308,354.082 181.975,352.082 181.5,349.5C 182.479,346.375 182.813,343.042 182.5,339.5 Z"/>
<path style="opacity:1" fill="#37383a" d="M 61.5,347.5 C 62.1667,350.5 62.8333,353.5 63.5,356.5C 67.026,355.31 70.026,353.31 72.5,350.5C 70.4186,355.076 66.9186,358.076 62,359.5C 61.5012,355.514 61.3345,351.514 61.5,347.5 Z"/>
<path style="opacity:0.925" fill="#6e6f72" d="M 167.5,352.5 C 165.74,356.762 162.74,359.928 158.5,362C 164.498,372.49 169.498,383.323 173.5,394.5C 173.817,397.572 173.484,400.572 172.5,403.5C 171.702,401.922 171.202,400.256 171,398.5C 169.846,399.743 168.512,400.743 167,401.5C 166.342,405.572 166.675,409.572 168,413.5C 168.893,412.289 169.726,412.289 170.5,413.5C 168.674,417.526 169.674,420.693 173.5,423C 176.5,423.667 179.5,423.667 182.5,423C 184.463,412.423 185.13,401.59 184.5,390.5C 184.5,389.5 184.5,388.5 184.5,387.5C 185.329,394.655 185.829,401.989 186,409.5C 186.5,402.174 186.666,394.841 186.5,387.5C 187.659,398.326 187.826,409.326 187,420.5C 182.79,427.067 177.29,428.234 170.5,424C 166.983,418.118 164.65,411.785 163.5,405C 165.088,401.09 167.421,397.757 170.5,395C 168.394,388.013 165.894,381.18 163,374.5C 159.553,368.604 156.386,362.604 153.5,356.5C 154.167,356.833 154.833,357.167 155.5,357.5C 156.482,358.141 157.482,358.807 158.5,359.5C 161.805,357.525 164.805,355.191 167.5,352.5 Z"/>
<path style="opacity:1" fill="#f0f1f2" d="M 61.5,345.5 C 61.5,346.167 61.5,346.833 61.5,347.5C 61.3345,351.514 61.5012,355.514 62,359.5C 66.9186,358.076 70.4186,355.076 72.5,350.5C 73.1499,350.196 73.8165,349.863 74.5,349.5C 77.269,354.891 81.269,359.057 86.5,362C 78.8309,373.831 73.8309,386.664 71.5,400.5C 72.2858,404.12 72.9524,403.787 73.5,399.5C 74.552,399.351 75.552,399.517 76.5,400C 78.2625,403.243 78.9292,406.743 78.5,410.5C 77.6618,410.842 77.3284,411.508 77.5,412.5C 77.19,413.738 76.69,413.738 76,412.5C 75.8333,413.667 75.6667,414.833 75.5,416C 75.6083,417.681 76.2749,418.848 77.5,419.5C 77.573,421.027 76.9063,422.027 75.5,422.5C 74.9467,420.343 73.9467,420.51 72.5,423C 69.1489,424.448 65.8156,424.615 62.5,423.5C 62.2172,422.711 61.7172,422.044 61,421.5C 60.5003,413.507 60.3336,405.507 60.5,397.5C 60.5,395.5 60.5,393.5 60.5,391.5C 61.8333,381.167 61.8333,370.833 60.5,360.5C 60.1795,355.305 60.5128,350.305 61.5,345.5 Z"/>
<path style="opacity:1" fill="#f1f1f3" d="M 178.5,356.5 C 178.842,357.338 179.508,357.672 180.5,357.5C 181.117,357.611 181.617,357.944 182,358.5C 183.44,368.115 184.273,377.781 184.5,387.5C 184.5,388.5 184.5,389.5 184.5,390.5C 182.852,391.777 181.018,392.777 179,393.5C 178.667,395.833 178.333,398.167 178,400.5C 176.318,399.135 176.151,397.635 177.5,396C 176.156,394.447 174.823,393.947 173.5,394.5C 169.498,383.323 164.498,372.49 158.5,362C 162.74,359.928 165.74,356.762 167.5,352.5C 168.712,351.77 169.712,350.77 170.5,349.5C 172.563,352.566 175.23,354.899 178.5,356.5 Z"/>
<path style="opacity:1" fill="#7d7f80" d="M 60.5,360.5 C 61.8333,370.833 61.8333,381.167 60.5,391.5C 60.8195,386.637 60.4861,381.97 59.5,377.5C 59.2143,371.741 59.5476,366.075 60.5,360.5 Z"/>
<path style="opacity:0.741" fill="#474749" d="M 184.5,359.5 C 185.625,368.788 186.291,378.121 186.5,387.5C 186.666,394.841 186.5,402.174 186,409.5C 185.829,401.989 185.329,394.655 184.5,387.5C 184.273,377.781 183.44,368.115 182,358.5C 181.617,357.944 181.117,357.611 180.5,357.5C 181.999,355.51 182.832,353.177 183,350.5C 183.181,353.695 183.681,356.695 184.5,359.5 Z"/>
<path style="opacity:0.82" fill="#303132" d="M 59.5,377.5 C 60.4861,381.97 60.8195,386.637 60.5,391.5C 60.5,393.5 60.5,395.5 60.5,397.5C 59.508,404.982 59.1746,412.648 59.5,420.5C 58.5076,412.684 58.1743,404.684 58.5,396.5C 58.2487,390.108 58.582,383.775 59.5,377.5 Z"/>
<path style="opacity:0.18" fill="#d1d2d3" d="M 58.5,396.5 C 58.1743,404.684 58.5076,412.684 59.5,420.5C 59.5,421.5 59.5,422.5 59.5,423.5C 58.7784,423.082 58.2784,422.416 58,421.5C 57.1768,412.99 57.3434,404.656 58.5,396.5 Z"/>
<path style="opacity:1" fill="#f3f3f5" d="M 184.5,390.5 C 185.13,401.59 184.463,412.423 182.5,423C 179.5,423.667 176.5,423.667 173.5,423C 169.674,420.693 168.674,417.526 170.5,413.5C 169.726,412.289 168.893,412.289 168,413.5C 166.675,409.572 166.342,405.572 167,401.5C 168.512,400.743 169.846,399.743 171,398.5C 171.202,400.256 171.702,401.922 172.5,403.5C 173.484,400.572 173.817,397.572 173.5,394.5C 174.823,393.947 176.156,394.447 177.5,396C 176.151,397.635 176.318,399.135 178,400.5C 178.333,398.167 178.667,395.833 179,393.5C 181.018,392.777 182.852,391.777 184.5,390.5 Z"/>
<path style="opacity:1" fill="#838486" d="M 60.5,397.5 C 60.3336,405.507 60.5003,413.507 61,421.5C 61.7172,422.044 62.2172,422.711 62.5,423.5C 61.2617,423.81 61.2617,424.31 62.5,425C 66.2027,425.579 69.8694,425.412 73.5,424.5C 71.5379,426.017 69.2046,426.684 66.5,426.5C 63.3889,426.988 61.0556,425.988 59.5,423.5C 59.5,422.5 59.5,421.5 59.5,420.5C 59.1746,412.648 59.508,404.982 60.5,397.5 Z"/>
<path style="opacity:0.98" fill="#949496" d="M 80.5,409.5 C 80.5979,411.553 79.9313,413.22 78.5,414.5C 78.6716,413.508 78.3382,412.842 77.5,412.5C 77.3284,411.508 77.6618,410.842 78.5,410.5C 78.4346,410.938 78.6012,411.272 79,411.5C 79.2784,410.584 79.7784,409.918 80.5,409.5 Z"/>
<path style="opacity:0.859" fill="#535355" d="M 77.5,412.5 C 78.3382,412.842 78.6716,413.508 78.5,414.5C 78.634,416.292 78.3007,417.958 77.5,419.5C 76.2749,418.848 75.6083,417.681 75.5,416C 75.6667,414.833 75.8333,413.667 76,412.5C 76.69,413.738 77.19,413.738 77.5,412.5 Z"/>
<path style="opacity:0.882" fill="#1e1e20" d="M 75.5,422.5 C 75.1667,423.5 74.5,424.167 73.5,424.5C 69.8694,425.412 66.2027,425.579 62.5,425C 61.2617,424.31 61.2617,423.81 62.5,423.5C 65.8156,424.615 69.1489,424.448 72.5,423C 73.9467,420.51 74.9467,420.343 75.5,422.5 Z"/>
</svg>
