<?xml version="1.0" standalone="no"?>
<!DOCTYPE svg PUBLIC "-//W3C//DTD SVG 20010904//EN"
 "http://www.w3.org/TR/2001/REC-SVG-20010904/DTD/svg10.dtd">
<svg version="1.0" xmlns="http://www.w3.org/2000/svg"
 width="200.000000pt" height="350.000000pt" viewBox="0 0 648.000000 1280.000000"
 preserveAspectRatio="xMidYMid meet">

<g transform="translate(0.000000,1280.000000) scale(0.100000,-0.100000)"
fill="#000000" stroke="none">
<path d="M3139 12718 c-70 -8 -213 -49 -270 -78 -111 -57 -189 -233 -189 -429
0 -75 20 -233 40 -316 5 -22 10 -57 10 -77 0 -41 8 -68 20 -68 11 0 18 55 28
210 8 117 11 128 41 177 24 39 36 75 46 137 8 47 18 94 24 104 16 31 57 40
201 47 169 8 158 8 325 0 200 -9 215 -19 229 -155 3 -34 20 -83 46 -135 36
-73 40 -87 41 -160 0 -94 12 -211 22 -221 13 -13 18 3 32 97 8 52 21 139 29
193 50 315 -32 545 -220 616 -147 55 -301 75 -455 58z"/>
<path d="M2910 11146 c0 -119 1 -127 40 -232 86 -233 170 -400 206 -411 15 -5
34 49 34 94 0 68 -32 190 -80 303 -27 63 -63 150 -80 193 -27 66 -99 177 -115
177 -3 0 -5 -56 -5 -124z"/>
<path d="M3569 11243 c-45 -49 -68 -89 -103 -179 -19 -49 -48 -118 -64 -154
-51 -112 -75 -206 -76 -302 -1 -94 10 -122 39 -98 31 25 93 146 148 285 87
221 88 225 85 358 l-3 118 -26 -28z"/>
<path d="M3049 11184 c17 -14 31 -32 31 -40 0 -8 24 -71 53 -141 30 -71 64
-155 77 -188 13 -33 26 -64 30 -68 16 -18 48 33 85 134 21 57 50 129 65 159
16 31 33 73 39 95 7 26 20 46 38 57 l28 17 -40 1 c-22 0 -77 -7 -122 -15 -73
-12 -92 -12 -159 0 -42 8 -94 15 -116 15 l-40 0 31 -26z"/>
<path d="M2898 10874 c-3 -5 -9 -44 -13 -86 -9 -99 10 -170 57 -214 37 -35
133 -93 127 -77 -2 6 -37 86 -78 179 -40 93 -76 178 -80 188 -4 11 -10 16 -13
10z"/>
<path d="M3580 10819 c-12 -34 -42 -104 -66 -156 -57 -121 -75 -165 -71 -170
7 -7 124 75 144 101 31 38 45 117 37 203 -4 40 -10 76 -14 78 -4 3 -17 -23
-30 -56z"/>

<g id = "Traps">
traps<path d="M2790 10834 c-40 -41 -163 -131 -262 -190 l-91 -54 36 -15 c82 -34
313 -48 341 -20 23 23 37 113 34 211 -3 100 -15 114 -58 68z"/>
traps<path d="M3662 10733 c4 -123 14 -167 42 -185 30 -21 265 -1 333 27 l37 15
-77 44 c-91 52 -192 123 -259 182 -78 70 -81 66 -76 -83z"/>
</g>

shouldershoulder<g id="Shoulders">

<path d="M4326 10610 c-55 -14 -154 -69 -177 -98 -37 -47 -26 -67 49 -96 98
-38 173 -86 206 -134 29 -41 30 -48 36 -185 8 -166 13 -183 98 -288 130 -162
140 -166 241 -98 230 154 271 450 90 653 -72 82 -189 175 -265 213 -62 30 -84
36 -156 39 -45 2 -100 -1 -122 -6z"/>
<path d="M1964 10602 c-81 -29 -159 -81 -252 -167 -120 -112 -167 -193 -187
-321 -14 -91 36 -237 111 -323 71 -82 182 -139 220 -113 27 17 166 191 186
231 18 37 23 69 28 185 6 155 15 184 71 230 37 32 106 68 184 97 61 23 66 35
35 86 -13 22 -42 43 -96 69 -66 32 -89 37 -163 41 -66 3 -98 -1 -137 -15z"/>

</g>

<g id = "Chest">
chest<path d="M2635 10474 c-123 -17 -190 -43 -296 -115 -125 -84 -170 -170 -189
-354 -17 -169 12 -350 77 -479 35 -69 116 -151 177 -180 274 -130 616 -70 731
128 60 104 84 535 38 716 -34 140 -109 247 -188 269 -41 12 -297 23 -350 15z"/>
chest<path d="M3589 10470 c-37 -4 -80 -15 -96 -24 -67 -34 -125 -127 -160 -256
-14 -52 -18 -102 -17 -255 1 -238 16 -372 49 -441 86 -177 349 -262 605 -195
122 33 181 64 239 127 103 113 151 266 151 485 0 199 -35 313 -122 396 -52 49
-176 122 -248 144 -75 23 -290 34 -401 19z"/>
</g>

<g id ="Biceps">
biceps<path d="M2012 9764 c-6 -16 -14 -40 -16 -54 -66 -324 -143 -545 -363 -1038
-56 -126 -59 -146 -25 -184 24 -28 58 -22 94 18 120 131 248 394 355 729 35
112 38 128 38 240 -1 94 -6 138 -24 202 -12 45 -28 89 -35 99 -11 15 -14 14
-24 -12z"/>
bicep<path d="M4473 9778 c-15 -17 -47 -142 -63 -239 -15 -95 -2 -167 70 -386 83
-251 185 -464 292 -606 67 -91 112 -101 143 -35 16 33 15 35 -65 218 -179 406
-263 641 -316 878 -38 171 -45 190 -61 170z"/>
bicep<path d="M1642 9544 c-59 -47 -157 -204 -199 -318 -37 -104 -69 -489 -43 -521
29 -35 132 -8 202 54 95 83 233 484 212 616 -26 172 -89 234 -172 169z"/>
bicep<path d="M4763 9555 c-25 -17 -57 -98 -67 -165 -19 -132 94 -496 189 -608 67
-79 199 -120 226 -70 21 38 -7 393 -38 493 -34 108 -154 303 -212 344 -34 25
-68 27 -98 6z"/>
</g>
<g id = "Abs">
abs<path d="M2180 9418 c0 -68 18 -115 55 -145 38 -32 185 -93 230 -96 27 -2 30
1 33 30 3 35 11 28 -133 122 -49 33 -106 75 -124 95 -47 48 -61 47 -61 -6z"/>
<path d="M4249 9407 c-32 -29 -95 -74 -140 -102 -46 -27 -87 -54 -92 -60 -4
-5 -6 -23 -5 -40 3 -27 6 -30 33 -28 48 3 194 65 230 98 18 17 38 45 44 64 15
47 14 121 -1 121 -7 -1 -38 -24 -69 -53z"/>
<path d="M3035 9311 c-33 -16 -117 -57 -187 -90 -72 -35 -135 -72 -146 -86
-39 -50 -53 -189 -31 -311 23 -129 41 -194 53 -194 19 0 95 42 261 145 83 51
161 96 173 100 50 15 63 118 42 320 -15 145 -53 172 -165 116z"/>
<path d="M3346 9321 c-28 -31 -37 -80 -43 -231 -6 -159 3 -201 49 -216 12 -3
85 -46 162 -93 182 -113 250 -151 268 -151 18 0 42 95 60 233 14 110 1 224
-30 266 -18 25 -93 66 -285 156 -127 59 -155 65 -181 36z"/>
<path d="M2156 9293 c-3 -3 -6 -27 -6 -52 0 -51 68 -201 118 -261 28 -33 30
-34 54 -18 35 23 148 128 148 138 0 4 -42 24 -94 45 -120 47 -149 65 -184 114
-16 22 -32 37 -36 34z"/>
<path d="M4317 9259 c-33 -48 -63 -67 -183 -114 -52 -21 -94 -41 -94 -45 0
-10 109 -112 144 -135 l29 -19 28 34 c48 57 112 197 117 255 2 29 0 55 -4 58
-5 2 -21 -13 -37 -34z"/>
<path d="M3907 8942 c-8 -229 -7 -231 79 -173 32 22 83 62 112 91 44 43 51 53
42 70 -10 19 -148 143 -201 181 l-26 18 -6 -187z"/>
<path d="M2467 9025 c-59 -53 -107 -100 -107 -106 0 -17 94 -103 162 -148 59
-40 63 -41 76 -24 10 13 12 35 8 77 -3 32 -6 112 -6 177 0 89 -3 119 -13 119
-6 0 -60 -43 -120 -95z"/>
<path d="M2162 8975 c4 -59 13 -109 27 -147 24 -63 61 -122 76 -122 12 -1 43
105 44 149 1 23 -15 49 -65 110 -37 44 -71 85 -76 90 -7 7 -9 -20 -6 -80z"/>
<path d="M4273 8973 c-81 -97 -84 -108 -57 -201 21 -74 27 -79 52 -45 53 76
85 185 80 277 l-3 57 -72 -88z"/>
<path d="M4134 8829 c-3 -6 -51 -40 -106 -76 -62 -40 -102 -73 -108 -89 -14
-37 -13 -174 2 -174 29 0 265 161 275 187 7 17 -33 149 -47 158 -5 3 -12 0
-16 -6z"/>
<path d="M2339 8803 c-6 -16 -16 -50 -22 -77 -11 -49 -11 -49 23 -78 31 -25
140 -100 221 -151 15 -9 29 -13 33 -10 8 8 8 122 0 162 -6 27 -24 44 -117 106
-60 41 -113 75 -118 75 -5 0 -14 -12 -20 -27z"/>
<path d="M3104 8764 c-375 -197 -379 -201 -391 -378 -5 -85 -4 -93 13 -100 29
-11 321 -20 386 -12 102 13 100 9 102 253 1 211 1 211 -23 237 -14 14 -28 26
-31 26 -4 0 -29 -12 -56 -26z"/>
<path d="M3319 8771 c-24 -19 -24 -20 -24 -236 0 -251 -1 -248 103 -261 64 -8
358 1 387 12 16 6 17 16 11 93 -3 47 -10 102 -16 121 -18 66 -91 118 -336 244
-50 25 -93 46 -96 46 -3 0 -16 -9 -29 -19z"/>
<path d="M2290 8556 c0 -106 8 -128 73 -194 72 -74 227 -206 234 -198 9 9 16
190 9 228 -4 23 -14 39 -30 46 -13 6 -81 54 -150 106 -69 53 -128 96 -131 96
-3 0 -5 -38 -5 -84z"/>
abs<path d="M4115 8568 c-50 -39 -115 -87 -145 -107 -30 -20 -58 -40 -62 -46 -11
-14 -9 -227 1 -244 8 -12 23 -3 78 44 120 103 204 189 219 224 15 35 20 186 6
195 -4 2 -48 -27 -97 -66z"/>
abs<path d="M2961 8225 c-24 -7 -87 -21 -140 -30 -53 -10 -103 -24 -111 -32 -12
-11 -15 -38 -14 -121 1 -111 14 -181 38 -201 21 -18 149 -30 313 -31 l152 0
10 38 c12 39 15 349 5 376 -5 13 -24 16 -108 15 -55 0 -121 -6 -145 -14z"/>
abs<path d="M3297 8233 c-12 -11 -8 -358 4 -392 l11 -31 151 0 c197 1 296 13 319
40 20 25 31 100 30 207 -1 112 -5 118 -99 133 -43 7 -109 21 -148 31 -69 18
-254 27 -268 12z"/>
abs<path d="M2306 8322 c-3 -20 -6 -79 -6 -130 0 -117 12 -145 96 -220 59 -53
177 -132 196 -132 5 0 7 62 6 137 l-3 137 -65 54 c-36 30 -99 85 -141 123
l-77 68 -6 -37z"/>
abs<path d="M4145 8312 c-28 -26 -91 -82 -142 -124 -104 -88 -100 -78 -95 -250
l3 -98 35 15 c48 20 177 118 218 166 45 53 56 137 38 286 l-7 52 -50 -47z"/>
abs<path d="M2296 7973 c-12 -59 -25 -236 -31 -413 l-7 -185 151 -165 c148 -161
183 -191 249 -205 45 -9 49 9 23 108 -14 56 -27 166 -41 346 -11 145 -23 275
-26 287 -4 14 -26 36 -53 52 -54 34 -185 138 -220 176 -31 33 -38 33 -45 -1z"/>
<path d="M4130 7939 c-36 -33 -102 -85 -147 -116 -46 -31 -85 -64 -87 -72 -6
-19 -21 -194 -36 -406 -6 -83 -20 -187 -31 -232 -26 -100 -22 -117 23 -108 65
14 99 42 247 205 l151 165 0 48 c0 92 -21 442 -30 501 -5 33 -13 63 -17 67 -4
4 -37 -19 -73 -52z"/>
<path d="M2726 7747 c-16 -12 -17 -22 -6 -137 37 -412 117 -773 213 -969 51
-102 103 -163 165 -191 26 -12 57 -27 69 -33 13 -6 26 -7 30 -4 14 14 22 295
22 785 l1 513 -33 14 c-80 33 -423 50 -461 22z"/>
abs<path d="M3421 7748 c-35 -5 -79 -15 -97 -23 l-34 -14 0 -513 c0 -500 6 -756
19 -777 13 -21 123 31 172 80 133 136 235 473 293 974 30 256 30 262 7 274
-24 13 -268 13 -360 -1z"/>

</g>

<g id = "Forearms">
forearm<path d="M1286 8567 c-45 -47 -82 -102 -143 -213 -44 -83 -86 -168 -92 -191
-6 -23 -18 -110 -25 -195 -8 -84 -28 -218 -45 -298 -27 -131 -93 -460 -142
-710 -29 -153 -23 -242 16 -210 25 20 86 156 160 355 37 99 127 329 201 511
149 370 165 429 184 677 16 197 0 337 -37 337 -8 0 -43 -29 -77 -63z"/>
forearm<path d="M5119 8598 c-31 -73 -7 -480 36 -625 8 -27 65 -173 126 -324 61 -151
137 -344 169 -429 127 -340 172 -443 205 -470 14 -12 18 -12 26 1 19 31 9 116
-46 379 -81 388 -145 744 -155 860 -15 169 -23 197 -79 298 -27 48 -66 119
-87 157 -39 72 -141 185 -167 185 -8 0 -21 -15 -28 -32z"/>
forearm<path d="M1533 8330 c-34 -14 -52 -59 -84 -213 -34 -162 -45 -194 -124 -367
-104 -230 -187 -438 -301 -753 -65 -182 -77 -237 -49 -237 21 0 59 64 109 187
87 211 148 352 221 508 16 33 61 112 101 176 91 146 103 171 147 294 49 137
61 197 61 290 0 113 -19 140 -81 115z"/>
forearm<path d="M4907 8328 c-29 -77 -14 -219 39 -377 42 -123 66 -173 146 -300 95
-151 213 -401 329 -697 46 -116 91 -194 114 -194 30 0 14 62 -81 317 -153 410
-169 450 -239 603 -100 218 -121 275 -149 411 -33 161 -43 193 -64 219 -22 26
-87 39 -95 18z"/>
forearm<path d="M1650 8175 c0 -40 -29 -172 -56 -260 -37 -117 -101 -246 -178 -360
-82 -122 -139 -238 -243 -500 -192 -480 -144 -451 72 45 108 249 156 346 258
525 68 120 217 460 217 496 0 15 -11 36 -28 52 -35 34 -42 34 -42 2z"/>
forearm<path d="M4811 8169 c-18 -23 -22 -38 -18 -64 9 -57 165 -397 252 -551 46 -81
125 -241 175 -356 148 -339 225 -497 237 -485 5 6 -27 102 -87 257 -119 306
-192 463 -261 560 -130 185 -214 389 -242 588 -6 45 -16 82 -22 81 -5 0 -21
-14 -34 -30z"/>
</g>

<g id = "Quads">
quad<path d="M2397 7088 c3 -13 43 -102 89 -199 106 -225 158 -355 311 -774 68
-187 128 -344 134 -350 20 -20 63 19 102 95 l38 75 -26 100 c-103 398 -351
822 -605 1035 -42 35 -48 37 -43 18z"/>
<path d="M3990 6993 c-245 -247 -450 -630 -539 -1005 -8 -36 -8 -55 3 -86 28
-79 79 -142 115 -142 14 0 26 29 128 315 124 349 223 597 318 795 82 171 105
230 90 230 -5 0 -56 -48 -115 -107z"/>
<path d="M2350 6953 c0 -6 9 -39 19 -74 11 -35 49 -172 85 -304 225 -834 403
-1580 452 -1898 18 -114 19 -117 30 -84 23 66 44 234 44 348 0 441 -166 1002
-545 1844 -77 172 -85 187 -85 168z"/>
<path d="M4115 6878 c-406 -889 -585 -1479 -585 -1932 0 -126 16 -260 42 -351
10 -35 12 -37 15 -15 57 403 316 1477 570 2363 12 40 -7 11 -42 -65z"/>
quad<path d="M2224 6848 c-120 -237 -194 -537 -194 -793 0 -193 39 -396 186 -975
151 -596 214 -792 285 -892 63 -88 127 50 166 358 22 174 25 697 5 844 -38
278 -102 526 -266 1030 -73 224 -136 434 -136 455 0 34 -22 21 -46 -27z"/>
quad<path d="M4227 6828 c-17 -73 -70 -246 -167 -543 -178 -544 -227 -787 -236
-1180 -7 -252 5 -487 31 -655 27 -169 73 -290 110 -290 58 0 148 222 255 634
50 193 164 650 185 741 101 439 98 680 -12 1045 -32 109 -126 320 -142 320 -4
0 -15 -33 -24 -72z"/>

quad<path d="M3035 5778 c-105 -137 -100 -104 -55 -359 21 -123 42 -250 46 -283 4
-41 9 -54 15 -43 45 79 114 777 78 777 -8 0 -45 -41 -84 -92z"/>
quad<path d="M3755 5093 c-106 -267 -137 -509 -100 -783 8 -58 15 -135 15 -172 0
-67 14 -98 45 -98 24 0 77 53 96 95 24 53 24 115 -3 315 -18 134 -22 216 -22
437 -1 150 -2 273 -2 273 -1 0 -14 -30 -29 -67z"/>
quad<path d="M2725 4892 c-1 -208 -5 -291 -24 -437 -29 -227 -26 -301 16 -353 17
-20 42 -44 56 -52 23 -13 28 -13 45 3 16 15 20 36 25 120 3 56 11 145 17 197
17 132 7 328 -24 460 -23 99 -89 297 -104 312 -4 4 -7 -109 -7 -250z"/>
<path d="M3376 5852 c-15 -46 48 -614 80 -722 l17 -55 23 150 c13 83 33 198
44 256 32 167 32 166 -56 283 -42 56 -82 102 -89 104 -8 2 -16 -5 -19 -16z"/>
<path d="M2004 5605 c-7 -17 -6 -34 20 -395 25 -339 74 -577 151 -736 24 -50
67 -151 95 -225 28 -73 57 -140 65 -149 47 -46 72 110 40 243 -10 40 -33 112
-52 162 -90 235 -193 629 -243 930 -22 132 -59 215 -76 170z"/>
<path d="M4471 5590 c-11 -19 -25 -57 -30 -85 -5 -27 -19 -104 -31 -170 -47
-264 -135 -587 -235 -860 -42 -114 -48 -142 -52 -230 -4 -100 5 -143 34 -152
16 -6 44 52 98 199 25 67 58 144 74 173 36 64 74 183 101 317 30 150 39 219
55 437 8 108 17 235 21 282 4 53 3 93 -4 104 -9 17 -12 16 -31 -15z"/>

</g>
<path d="M735 6639 c-57 -13 -203 -115 -246 -173 -42 -55 -59 -104 -59 -168 0
-73 57 -142 182 -222 81 -51 153 -77 233 -83 76 -6 112 5 148 45 36 40 77 251
77 398 0 104 -12 130 -81 164 -65 34 -191 53 -254 39z"/>
<path d="M5650 6638 c-77 -10 -166 -52 -195 -91 -17 -24 -20 -41 -17 -120 5
-189 44 -356 92 -402 30 -29 35 -30 118 -29 101 1 156 20 261 88 84 55 147
119 162 164 31 93 -19 208 -127 290 -127 98 -181 116 -294 100z"/>
<path d="M358 6441 c-30 -32 -68 -80 -84 -107 -36 -58 -64 -85 -134 -126 -49
-30 -55 -37 -58 -71 l-3 -37 40 0 c60 0 87 15 155 83 64 64 79 94 124 241 12
39 20 71 18 73 -2 2 -28 -23 -58 -56z"/>
<path d="M6090 6495 c0 -9 17 -63 58 -183 18 -54 62 -113 125 -165 39 -34 56
-41 102 -45 l55 -4 0 36 c0 31 -5 39 -42 62 -94 60 -109 73 -146 130 -41 63
-151 186 -152 169z"/>
<path d="M331 5955 c-45 -86 -96 -180 -113 -207 -32 -52 -51 -148 -30 -148 15
0 66 65 172 220 50 74 107 151 126 170 19 20 34 46 34 58 0 25 -32 49 -76 58
-30 6 -30 5 -113 -151z"/>
<path d="M6030 6092 c-49 -24 -51 -55 -7 -101 19 -20 76 -97 127 -171 106
-155 157 -220 172 -220 20 0 2 97 -25 138 -14 22 -65 114 -113 206 -57 110
-92 166 -103 166 -9 0 -32 -8 -51 -18z"/>
<path d="M532 5975 c-7 -14 -12 -32 -12 -40 0 -8 -36 -110 -80 -227 -45 -117
-82 -229 -83 -248 -2 -32 0 -35 23 -32 38 4 64 39 105 142 21 52 67 158 102
235 34 77 63 148 63 157 0 11 -13 21 -37 27 -56 16 -69 14 -81 -14z"/>
<path d="M5896 5990 c-42 -13 -47 -29 -24 -74 12 -23 61 -133 109 -246 49
-112 97 -212 106 -222 27 -26 67 -28 71 -2 2 11 -33 115 -76 230 -44 115 -87
235 -96 267 -18 62 -26 66 -90 47z"/>
<path d="M916 5958 l-39 -11 5 -176 c5 -171 11 -211 29 -211 26 0 38 63 45
233 4 98 5 177 3 176 -2 -1 -21 -6 -43 -11z"/>
<path d="M5544 5938 c3 -18 8 -96 11 -172 6 -133 21 -206 43 -206 20 0 25 39
30 211 l4 176 -28 7 c-16 4 -37 9 -47 12 -16 5 -18 1 -13 -28z"/>
<path d="M695 5929 c-3 -13 -14 -85 -25 -159 -11 -74 -26 -177 -33 -227 -15
-99 -13 -143 8 -143 12 0 45 26 45 34 0 2 22 112 50 247 27 134 46 246 42 250
-4 4 -24 11 -44 14 -33 6 -38 5 -43 -16z"/>
<path d="M5755 5943 c-11 -3 -23 -8 -27 -12 -4 -3 14 -116 41 -250 38 -185 54
-249 69 -264 49 -49 53 10 16 256 -14 95 -30 196 -35 225 -11 54 -15 57 -64
45z"/>
 

<path d="M2343 3988 c-17 -4 -42 -21 -53 -36 -33 -40 -23 -141 30 -311 46
-151 61 -184 98 -223 21 -23 34 -28 72 -28 39 0 53 6 88 35 49 43 98 137 113
220 14 79 8 287 -9 308 -23 27 -272 53 -339 35z"/>
<path d="M4000 3989 c-177 -14 -183 -19 -195 -148 -14 -164 40 -341 129 -417
32 -28 48 -34 84 -34 62 0 100 40 136 145 57 167 77 242 83 315 5 67 3 78 -16
102 -19 24 -79 50 -106 46 -5 0 -57 -5 -115 -9z"/>
<path d="M2792 3843 c-11 -16 -25 -55 -32 -88 -20 -97 -66 -219 -152 -399 -44
-93 -91 -200 -103 -237 -45 -132 -54 -219 -22 -219 43 0 208 347 312 654 57
170 67 238 43 291 -14 32 -22 32 -46 -2z"/>
<path d="M3671 3851 c-25 -46 -13 -132 43 -296 65 -195 108 -301 191 -467 73
-146 100 -188 122 -188 13 0 15 11 11 68 -7 87 -40 183 -123 357 -102 212
-112 237 -145 358 -45 164 -75 214 -99 168z"/>
<path d="M4266 3781 c-4 -6 -27 -131 -52 -278 -25 -148 -49 -290 -54 -318 -5
-27 -27 -151 -49 -275 -112 -629 -146 -896 -156 -1205 -10 -294 9 -322 85
-129 83 214 165 494 194 669 49 293 91 794 83 1000 -9 235 -28 519 -37 534 -5
9 -9 10 -14 2z"/>
<path d="M2216 3663 c-4 -65 -12 -179 -18 -253 -23 -279 19 -860 88 -1229 41
-217 203 -700 243 -725 26 -16 33 49 27 234 -12 317 -47 591 -160 1230 -83
469 -107 611 -121 705 -29 194 -50 207 -59 38z"/>

<g id = "Calves">
calves<path d="M2150 3405 c-30 -74 -41 -207 -46 -525 -9 -522 10 -702 127 -1188 79
-329 81 -341 77 -442 -2 -79 -1 -95 12 -95 23 0 67 96 81 177 16 97 4 176 -72
488 -63 258 -102 443 -147 700 -26 148 -27 168 -24 445 1 160 6 324 11 365 10
86 0 124 -19 75z"/>
calves<path d="M4336 3422 c-3 -6 -2 -54 4 -109 5 -54 11 -215 12 -358 3 -210 0
-280 -14 -365 -44 -263 -91 -494 -147 -720 -70 -285 -91 -393 -91 -462 0 -98
55 -253 90 -253 12 0 14 17 12 100 -3 95 0 116 72 420 41 176 84 374 95 440
51 300 54 995 6 1226 -16 74 -28 99 -39 81z"/>
calves<path d="M2652 3040 c-63 -125 -107 -226 -114 -260 -11 -56 -2 -187 52 -755
11 -115 23 -257 26 -314 9 -127 6 -132 89 184 34 132 77 280 94 329 48 135 58
251 38 456 -14 133 -71 539 -80 560 -1 3 -48 -87 -105 -200z"/>
calves<path d="M3740 3177 c-6 -40 -17 -112 -25 -162 -49 -308 -65 -522 -46 -640 7
-42 30 -125 51 -183 21 -59 63 -208 94 -331 63 -251 75 -284 76 -201 0 48 23
319 60 695 22 239 28 379 17 434 -6 32 -51 135 -113 257 l-102 202 -12 -71z"/>
</g>

<path d="M2504 1376 c-4 -10 9 -33 39 -65 24 -28 63 -85 86 -128 l42 -78 -4
81 c-5 87 -19 124 -64 166 -36 35 -90 48 -99 24z"/>
<path d="M3907 1350 c-51 -46 -67 -93 -67 -187 l1 -58 42 81 c24 45 62 103 85
129 47 53 49 68 9 73 -19 2 -38 -7 -70 -38z"/>
<path d="M2444 1239 c-43 -15 -74 -72 -88 -160 -8 -46 -26 -121 -40 -166 -25
-75 -26 -84 -13 -110 21 -39 48 -62 163 -136 56 -36 117 -84 136 -106 19 -23
38 -41 41 -41 12 0 46 110 56 185 18 127 -20 290 -96 413 -60 96 -115 138
-159 121z"/>
<path d="M4014 1235 c-89 -38 -192 -246 -211 -426 -8 -83 39 -289 66 -289 3 0
15 14 26 31 11 17 77 68 146 114 69 46 136 95 148 110 27 36 27 75 -3 163 -14
39 -28 97 -31 129 -15 128 -73 197 -141 168z"/>



<path d="M2317 567 c-15 -25 -83 -118 -152 -207 -69 -90 -125 -166 -125 -170
0 -13 36 -39 83 -60 26 -12 98 -30 160 -40 62 -11 120 -22 129 -25 21 -8 33
15 42 80 3 28 20 84 38 125 29 71 38 126 29 200 -1 14 0 35 4 46 6 19 -1 26
-57 53 -34 17 -77 34 -94 37 -28 5 -33 2 -57 -39z"/>
<path d="M4089 591 c-25 -10 -59 -26 -75 -35 l-30 -18 1 -102 c1 -90 4 -109
33 -175 18 -40 35 -92 38 -115 11 -84 13 -89 37 -82 12 3 73 15 135 26 118 20
218 57 228 85 10 24 -5 49 -101 170 -48 61 -110 145 -138 188 -29 42 -59 77
-67 77 -8 -1 -36 -9 -61 -19z"/>
<path d="M2579 455 c-13 -30 -25 -84 -30 -137 -5 -47 -17 -113 -29 -147 -24
-72 -26 -119 -5 -127 8 -4 36 -2 62 2 51 10 48 6 71 99 6 22 18 61 27 86 16
46 16 47 -13 110 -16 35 -33 80 -37 99 -14 66 -22 69 -46 15z"/>
<path d="M3878 427 c-14 -40 -33 -91 -42 -115 -15 -40 -15 -46 3 -100 11 -31
22 -73 25 -93 9 -53 25 -67 83 -75 51 -6 52 -6 59 21 5 19 -1 52 -16 99 -13
39 -25 103 -27 141 -5 65 -36 180 -53 190 -4 2 -18 -28 -32 -68z"/>
</g>
</svg>
